<?xml version="1.0" encoding="UTF-8" standalone="no"?>
<!-- Created with Inkscape (http://www.inkscape.org/) -->

<svg
   xmlns:dc="http://purl.org/dc/elements/1.1/"
   xmlns:cc="http://creativecommons.org/ns#"
   xmlns:rdf="http://www.w3.org/1999/02/22-rdf-syntax-ns#"
   xmlns:svg="http://www.w3.org/2000/svg"
   xmlns="http://www.w3.org/2000/svg"
   xmlns:sodipodi="http://sodipodi.sourceforge.net/DTD/sodipodi-0.dtd"
   xmlns:inkscape="http://www.inkscape.org/namespaces/inkscape"
   id="svg2"
   version="1.1"
   inkscape:version="0.48.4 r9939"
   width="559.775"
   height="223.7125"
   xml:space="preserve"
   sodipodi:docname="EPSRC_Logo.eps"><metadata
     id="metadata8"><rdf:RDF><cc:Work
         rdf:about=""><dc:format>image/svg+xml</dc:format><dc:type
           rdf:resource="http://purl.org/dc/dcmitype/StillImage" /><dc:title></dc:title></cc:Work></rdf:RDF></metadata><defs
     id="defs6" /><sodipodi:namedview
     pagecolor="#ffffff"
     bordercolor="#666666"
     borderopacity="1"
     objecttolerance="10"
     gridtolerance="10"
     guidetolerance="10"
     inkscape:pageopacity="0"
     inkscape:pageshadow="2"
     inkscape:window-width="640"
     inkscape:window-height="480"
     id="namedview4"
     showgrid="false"
     inkscape:zoom="1.2898039"
     inkscape:cx="300.54315"
     inkscape:cy="57.789108"
     inkscape:window-x="49"
     inkscape:window-y="24"
     inkscape:window-maximized="0"
     inkscape:current-layer="g10" /><g
     id="g10"
     inkscape:groupmode="layer"
     inkscape:label="ink_ext_XXXXXX"
     transform="matrix(1.25,0,0,-1.25,0,223.7125)"><g
       id="g12"
       transform="scale(0.1,0.1)"><path
         d="m 31.1719,764.59 3178.2281,0 c 17.21,0 31.13,-13.852 31.13,-30.871 0,-17.059 -13.92,-30.867 -31.13,-30.867 l -3178.2281,0 C 13.9648,702.852 0,716.66 0,733.719 0,750.738 13.9648,764.59 31.1719,764.59 l 0,0"
         style="fill:#00a9a0;fill-opacity:1;fill-rule:nonzero;stroke:none"
         id="path14" /><path
         d="m 31.1719,1789.71 3178.2281,0 c 17.21,0 31.13,-13.82 31.13,-30.85 0,-17.06 -13.92,-30.88 -31.13,-30.88 l -3178.2281,0 C 13.9648,1727.98 0,1741.8 0,1758.86 c 0,17.03 13.9648,30.85 31.1719,30.85 l 0,0"
         style="fill:#00a9a0;fill-opacity:1;fill-rule:nonzero;stroke:none"
         id="path16" /><path
         d="m 3221.06,1555.2 c -69.45,48.46 -143.5,66.47 -220.41,65.14 -217.44,-3.8 -372.97,-174.63 -375,-373.82 -2.05,-201.94 150.27,-362.86 374.77,-373.172 76.83,-3.516 166.83,17.91 235.85,69.965 l -53.26,85.647 c -69.04,-59.112 -126.79,-74.397 -186.68,-61.292 -119.08,26.047 -200.52,149.442 -195.97,278.852 1.89,53 9.57,104.31 30.13,147.94 37.43,79.27 89.73,120.34 163.5,131.9 64.18,10.06 117.97,0.92 175.7,-51.11 l 51.37,79.95 z m -945.43,-50.52 c -15.8,0.92 84.18,1.7 84.18,-101.97 0,-108.79 -85.74,-109.23 -85.74,-109.23 l -126.57,0 0,211.31 128.13,-0.11 z m -300.52,101.7 0,-718.657 172.28,0 0,298.527 209.26,-302.746 220.35,0 -238.32,321.786 c 0,0 180.91,7.8 192.38,172.66 11.41,164.87 -108.52,228.3 -259.12,228.3 l -296.83,0.13 z m -149.9,-47.95 c -15.86,9.05 -134.81,60.14 -226.62,60.14 -171.18,0 -284.64,-90.05 -281.39,-221.11 5.99,-242.14 395.4,-205.77 375.93,-358.39 -13.83,-108.476 -279.56,-84.507 -370.61,5.49 l -24.5,-105.962 c 148.58,-96.293 517.77,-105.668 541.54,138.462 24.06,246.73 -382.32,248.15 -382.32,369.53 0,58.59 54.26,85.02 146.45,82.56 120.34,-3.2 159.22,-54.86 184.24,-68.7 l 37.28,97.98 z m -858.589,-53.45 c 90.999,-7.86 87.769,-107.76 87.769,-107.76 -3.9,-99.92 -83.128,-104.2 -83.128,-104.2 l -129.192,0 0,211.96 124.551,0 z m -297.019,101.08 0,-718.591 172.261,0 0,313.711 131.731,0 c 6.14,0 257.166,-10.8 253.026,197.89 0,0 18.83,202.78 -254.347,206.99 l -302.671,0 z M 12.1484,1526.81 c 13.9844,79.28 84.2852,79.28 84.2852,79.28 l 418.0194,0 0,-101.2 -328.984,0 0,-212.2 304.426,0 0,-91.69 -304.426,0 0,-212.18 328.984,0 0,-101.195 c 0,0 -324.492,0 -410.09,0 -85.6442,0 -92.3317,82.691 -92.3317,82.691 l 0.1171,556.494"
         style="fill:#7d2460;fill-opacity:1;fill-rule:nonzero;stroke:none"
         id="path18" /><path
         d="m 14.9531,331.789 0,213.609 132.6019,0 0,-20.398 -109.8011,0 0,-75.301 93.5981,0 0,-20.41 -93.5981,0 0,-77.09 109.8011,0 0,-20.41 -132.6019,0"
         style="fill:#7d2460;fill-opacity:1;fill-rule:nonzero;stroke:none"
         id="path20" /><path
         d="m 282.551,331.789 0,90.902 c 0,26.11 -14.098,39.309 -36.301,39.309 -22.203,0 -36.602,-13.512 -36.602,-39.309 l 0,-90.902 -21.597,0 0,147.602 21.597,0 0,-16.2 c 10.504,12 24.903,18.008 41.403,18.008 15.898,0 28.797,-4.808 37.801,-13.801 10.5,-10.199 15.296,-24 15.296,-41.097 l 0,-94.512 -21.597,0"
         style="fill:#7d2460;fill-opacity:1;fill-rule:nonzero;stroke:none"
         id="path22" /><path
         d="m 404.352,462 c -32.102,0 -36.903,-27.609 -36.903,-55.211 0,-27.59 4.801,-55.187 36.903,-55.187 32.097,0 36.601,27.597 36.601,55.187 0,27.602 -4.504,55.211 -36.601,55.211 z m -3.301,-198.012 c -22.199,0 -34.496,5.711 -50.098,19.813 l 14.098,13.801 c 10.801,-9.602 18.301,-14.704 35.398,-14.704 28.5,0 40.504,20.102 40.504,45.293 l 0,23.11 c -12.004,-15.313 -25.504,-19.199 -41.402,-19.199 -15,0 -27.903,5.398 -35.699,13.187 -14.704,14.711 -18,37.5 -18,61.5 0,24.012 3.296,46.801 18,61.512 7.796,7.789 20.996,12.898 35.996,12.898 16.203,0 29.406,-3.597 41.402,-19.199 l 0,17.391 21.301,0 0,-152.102 c 0,-36.598 -22.801,-63.301 -61.5,-63.301"
         style="fill:#7d2460;fill-opacity:1;fill-rule:nonzero;stroke:none"
         id="path24" /><path
         d="m 513.551,331.789 0,147.602 21.594,0 0,-147.602 -21.594,0 z m -1.203,189.602 0,24.308 24.3,0 0,-24.308 -24.3,0"
         style="fill:#7d2460;fill-opacity:1;fill-rule:nonzero;stroke:none"
         id="path26" /><path
         d="m 680.945,331.789 0,90.902 c 0,26.11 -14.093,39.309 -36.297,39.309 -22.203,0 -36.601,-13.512 -36.601,-39.309 l 0,-90.902 -21.598,0 0,147.602 21.598,0 0,-16.2 c 10.504,12 24.902,18.008 41.402,18.008 15.899,0 28.797,-4.808 37.801,-13.801 10.5,-10.199 15.301,-24 15.301,-41.097 l 0,-94.512 -21.606,0"
         style="fill:#7d2460;fill-opacity:1;fill-rule:nonzero;stroke:none"
         id="path28" /><path
         d="m 839.043,440.691 c -5.703,13.508 -18.898,22.207 -34.5,22.207 -15.598,0 -28.801,-8.699 -34.492,-22.207 -3.305,-8.089 -3.906,-12.601 -4.504,-24.601 l 78,0 c -0.598,12 -1.203,16.512 -4.504,24.601 z m -73.496,-40.793 c 0,-32.398 15.293,-51.007 43.496,-51.007 17.102,0 27.004,5.097 38.699,16.8 l 14.699,-12.902 c -15,-15 -28.796,-22.789 -53.996,-22.789 -39.004,0 -64.5,23.398 -64.5,75.59 0,47.711 23.098,75.609 60.598,75.609 38.102,0 60.602,-27.609 60.602,-71.41 l 0,-9.891 -99.598,0"
         style="fill:#7d2460;fill-opacity:1;fill-rule:nonzero;stroke:none"
         id="path30" /><path
         d="m 995.051,440.691 c -5.703,13.508 -18.906,22.207 -34.504,22.207 -15.606,0 -28.801,-8.699 -34.5,-22.207 -3.305,-8.089 -3.899,-12.601 -4.504,-24.601 l 78,0 c -0.598,12 -1.191,16.512 -4.492,24.601 z m -73.508,-40.793 c 0,-32.398 15.305,-51.007 43.508,-51.007 17.097,0 26.992,5.097 38.699,16.8 l 14.7,-12.902 c -15,-15 -28.802,-22.789 -54.009,-22.789 -38.992,0 -64.5,23.398 -64.5,75.59 0,47.711 23.106,75.609 60.606,75.609 38.098,0 60.593,-27.609 60.593,-71.41 l 0,-9.891 -99.597,0"
         style="fill:#7d2460;fill-opacity:1;fill-rule:nonzero;stroke:none"
         id="path32" /><path
         d="m 1146.54,451.199 c -8.1,8.09 -14.1,10.801 -25.5,10.801 -21.6,0 -35.4,-17.102 -35.4,-39.602 l 0,-90.609 -21.6,0 0,147.602 21.6,0 0,-18 c 8.1,12.308 24.3,19.808 41.4,19.808 14.1,0 24.9,-3.301 35.4,-13.801 l -15.9,-16.199"
         style="fill:#7d2460;fill-opacity:1;fill-rule:nonzero;stroke:none"
         id="path34" /><path
         d="m 1187.34,331.789 0,147.602 21.61,0 0,-147.602 -21.61,0 z m -1.2,189.602 0,24.308 24.3,0 0,-24.308 -24.3,0"
         style="fill:#7d2460;fill-opacity:1;fill-rule:nonzero;stroke:none"
         id="path36" /><path
         d="m 1354.75,331.789 0,90.902 c 0,26.11 -14.11,39.309 -36.3,39.309 -22.21,0 -36.6,-13.512 -36.6,-39.309 l 0,-90.902 -21.61,0 0,147.602 21.61,0 0,-16.2 c 10.49,12 24.89,18.008 41.39,18.008 15.9,0 28.8,-4.808 37.8,-13.801 10.5,-10.199 15.31,-24 15.31,-41.097 l 0,-94.512 -21.6,0"
         style="fill:#7d2460;fill-opacity:1;fill-rule:nonzero;stroke:none"
         id="path38" /><path
         d="m 1476.54,462 c -32.11,0 -36.9,-27.609 -36.9,-55.211 0,-27.59 4.79,-55.187 36.9,-55.187 32.1,0 36.59,27.597 36.59,55.187 0,27.602 -4.49,55.211 -36.59,55.211 z m -3.3,-198.012 c -22.2,0 -34.5,5.711 -50.11,19.813 l 14.11,13.801 c 10.8,-9.602 18.3,-14.704 35.4,-14.704 28.5,0 40.49,20.102 40.49,45.293 l 0,23.11 c -11.99,-15.313 -25.49,-19.199 -41.39,-19.199 -15,0 -27.9,5.398 -35.7,13.187 -14.7,14.711 -18,37.5 -18,61.5 0,24.012 3.3,46.801 18,61.512 7.8,7.789 21,12.898 36,12.898 16.2,0 29.4,-3.597 41.4,-19.199 l 0,17.391 21.3,0 0,-152.102 c 0,-36.598 -22.8,-63.301 -61.5,-63.301"
         style="fill:#7d2460;fill-opacity:1;fill-rule:nonzero;stroke:none"
         id="path40" /><path
         d="m 1741.14,399.898 -41.4,0 c -22.2,0 -33,-9 -33,-26.097 0,-17.102 10.5,-25.211 33.9,-25.211 12.6,0 23.7,0.898 33,9.898 5.1,4.813 7.5,13.211 7.5,25.5 l 0,15.91 z m 0,-68.109 0,14.109 c -12,-12.007 -22.8,-15.898 -42.6,-15.898 -20.41,0 -32.4,3.891 -41.7,13.488 -7.2,7.203 -11.1,18.301 -11.1,30 0,25.801 18,42.602 51,42.602 l 44.4,0 0,14.101 c 0,21.598 -10.8,32.411 -37.8,32.411 -18.9,0 -28.5,-4.512 -37.2,-16.801 l -14.7,13.488 c 13.2,17.102 28.2,21.91 52.2,21.91 39.6,0 59.1,-17.097 59.1,-49.199 l 0,-100.211 -21.6,0"
         style="fill:#7d2460;fill-opacity:1;fill-rule:nonzero;stroke:none"
         id="path42" /><path
         d="m 1906.74,331.789 0,90.902 c 0,26.11 -14.1,39.309 -36.3,39.309 -22.21,0 -36.6,-13.512 -36.6,-39.309 l 0,-90.902 -21.6,0 0,147.602 21.6,0 0,-16.2 c 10.5,12 24.89,18.008 41.39,18.008 15.9,0 28.8,-4.808 37.81,-13.801 10.5,-10.199 15.3,-24 15.3,-41.097 l 0,-94.512 -21.6,0"
         style="fill:#7d2460;fill-opacity:1;fill-rule:nonzero;stroke:none"
         id="path44" /><path
         d="m 2028.83,462 c -32.1,0 -37.2,-27.609 -37.2,-56.41 0,-28.801 5.1,-56.391 37.2,-56.391 32.1,0 36.9,27.59 36.9,56.391 0,28.801 -4.8,56.41 -36.9,56.41 z m 37.21,-130.211 0,17.699 C 2054.03,333.891 2040.23,330 2024.03,330 c -15,0 -28.2,5.102 -36,12.898 -15,15 -18,39.602 -18,62.692 0,23.109 3,47.711 18,62.711 7.8,7.789 21,12.898 36,12.898 16.2,0 29.7,-3.597 41.7,-18.91 l 0,83.109 21.6,0 0,-213.609 -21.29,0"
         style="fill:#7d2460;fill-opacity:1;fill-rule:nonzero;stroke:none"
         id="path46" /><path
         d="m 2291.33,525 -54.61,0 0,-84.898 54.61,0 c 26.7,0 45.3,14.398 45.3,42.589 0,28.207 -18.6,42.309 -45.3,42.309 z m 2.09,-105.301 -56.7,0 0,-87.91 -22.79,0 0,213.609 79.49,0 c 39.01,0 66,-24.308 66,-62.707 0,-38.402 -26.99,-62.992 -66,-62.992"
         style="fill:#7d2460;fill-opacity:1;fill-rule:nonzero;stroke:none"
         id="path48" /><path
         d="m 2490.53,331.789 0,91.211 c 0,25.801 -13.81,39 -36.01,39 -22.19,0 -36.9,-13.512 -36.9,-39 l 0,-91.211 -21.6,0 0,213.609 21.6,0 0,-82.207 c 10.8,12.309 24.9,18.008 41.41,18.008 33.3,0 53.1,-21.301 53.1,-54.597 l 0,-94.813 -21.6,0"
         style="fill:#7d2460;fill-opacity:1;fill-rule:nonzero;stroke:none"
         id="path50" /><path
         d="m 2598.23,296.09 c -3.01,-8.09 -6.31,-13.488 -10.51,-17.391 -7.79,-7.5 -18.3,-10.211 -28.81,-10.211 l -9.3,0 0,19.203 6.61,0 c 15,0 19.51,4.809 24.29,18.297 l 10.51,28.801 -53.1,144.602 23.39,0 40.51,-118.493 40.2,118.493 23.4,0 -67.19,-183.301"
         style="fill:#7d2460;fill-opacity:1;fill-rule:nonzero;stroke:none"
         id="path52" /><path
         d="m 2739.22,330 c -24.9,0 -44.39,5.691 -60.6,21.301 l 14.41,14.39 c 11.7,-12.293 27.6,-17.101 45.9,-17.101 24.3,0 39.3,8.699 39.3,26.109 0,12.903 -7.5,20.09 -24.61,21.602 l -24.3,2.097 c -28.79,2.403 -44.1,15.301 -44.1,39.602 0,27 22.81,43.199 54.3,43.199 21.01,0 39.9,-5.109 53.1,-15.91 l -14.1,-14.09 c -10.49,8.09 -24,11.699 -39.3,11.699 -21.6,0 -33,-9.308 -33,-24.308 0,-12.602 7.2,-20.102 25.8,-21.59 l 23.71,-2.102 c 25.8,-2.398 43.49,-12.296 43.49,-39.898 0,-28.512 -24.29,-45 -60,-45"
         style="fill:#7d2460;fill-opacity:1;fill-rule:nonzero;stroke:none"
         id="path54" /><path
         d="m 2838.52,331.789 0,147.602 21.6,0 0,-147.602 -21.6,0 z m -1.21,189.602 0,24.308 24.3,0 0,-24.308 -24.3,0"
         style="fill:#7d2460;fill-opacity:1;fill-rule:nonzero;stroke:none"
         id="path56" /><path
         d="m 2968.72,330 c -37.21,0 -65.41,25.191 -65.41,75.59 0,50.398 28.2,75.609 65.41,75.609 20.39,0 33.3,-5.398 48.59,-21.91 L 3002.62,445.5 c -11.11,12.289 -19.8,16.5 -33.9,16.5 -14.4,0 -26.41,-5.699 -34.2,-16.809 -6.9,-9.601 -9.61,-20.992 -9.61,-39.601 0,-18.59 2.71,-30 9.61,-39.602 7.79,-11.097 19.8,-16.789 34.2,-16.789 14.1,0 22.79,4.5 33.9,16.789 l 14.69,-14.097 C 3002.02,335.398 2989.11,330 2968.72,330"
         style="fill:#7d2460;fill-opacity:1;fill-rule:nonzero;stroke:none"
         id="path58" /><path
         d="m 3135.45,399.898 -41.4,0 c -22.21,0 -33.01,-9 -33.01,-26.097 0,-17.102 10.51,-25.211 33.91,-25.211 12.59,0 23.69,0.898 33,9.898 5.1,4.813 7.5,13.211 7.5,25.5 l 0,15.91 z m 0,-68.109 0,14.109 C 3123.44,333.891 3112.64,330 3092.84,330 c -20.39,0 -32.39,3.891 -41.7,13.488 -7.19,7.203 -11.1,18.301 -11.1,30 0,25.801 18.01,42.602 51,42.602 l 44.41,0 0,14.101 c 0,21.598 -10.8,32.411 -37.81,32.411 -18.89,0 -28.49,-4.512 -37.19,-16.801 l -14.7,13.488 c 13.2,17.102 28.2,21.91 52.2,21.91 39.59,0 59.11,-17.097 59.11,-49.199 l 0,-100.211 -21.61,0"
         style="fill:#7d2460;fill-opacity:1;fill-rule:nonzero;stroke:none"
         id="path60" /><path
         d="m 3243.44,331.789 c -25.8,0 -37.5,16.801 -37.5,39.301 l 0,174.308 21.6,0 0,-173.398 c 0,-14.398 4.81,-21.602 19.81,-21.602 l 11.7,0 0,-18.609 -15.61,0"
         style="fill:#7d2460;fill-opacity:1;fill-rule:nonzero;stroke:none"
         id="path62" /><path
         d="m 3423.15,330 c -32.11,0 -53.11,8.09 -73.2,28.191 l 15.6,15.61 c 17.7,-17.711 34.2,-23.403 58.19,-23.403 31.21,0 50.41,14.704 50.41,39.602 0,11.09 -3.31,20.691 -10.2,26.699 -6.91,5.992 -12.3,7.801 -27.91,10.192 l -24.9,3.91 c -16.8,2.687 -30,8.09 -39.3,16.199 -10.8,9.602 -16.19,22.789 -16.19,39.891 0,36.308 26.09,60.308 68.4,60.308 27.3,0 45.29,-6.898 63.59,-23.398 l -14.69,-14.699 c -13.2,11.988 -27.3,18.296 -49.8,18.296 -28.5,0 -45,-15.91 -45,-39.597 0,-10.512 2.99,-18.91 9.59,-24.61 6.6,-5.691 17.69,-9.89 28.81,-11.703 l 23.4,-3.59 c 20.09,-3 30,-7.207 39,-15 11.7,-9.898 17.99,-24.597 17.99,-42.308 0,-37.5 -29.4,-60.59 -73.79,-60.59"
         style="fill:#7d2460;fill-opacity:1;fill-rule:nonzero;stroke:none"
         id="path64" /><path
         d="m 3595.04,330 c -37.2,0 -65.41,25.191 -65.41,75.59 0,50.398 28.21,75.609 65.41,75.609 20.39,0 33.3,-5.398 48.6,-21.91 L 3628.95,445.5 c -11.11,12.289 -19.8,16.5 -33.91,16.5 -14.39,0 -26.4,-5.699 -34.2,-16.809 -6.89,-9.601 -9.6,-20.992 -9.6,-39.601 0,-18.59 2.71,-30 9.6,-39.602 7.8,-11.097 19.81,-16.789 34.2,-16.789 14.11,0 22.8,4.5 33.91,16.789 l 14.69,-14.097 C 3628.34,335.398 3615.43,330 3595.04,330"
         style="fill:#7d2460;fill-opacity:1;fill-rule:nonzero;stroke:none"
         id="path66" /><path
         d="m 3681.74,331.789 0,147.602 21.6,0 0,-147.602 -21.6,0 z m -1.21,189.602 0,24.308 24.3,0 0,-24.308 -24.3,0"
         style="fill:#7d2460;fill-opacity:1;fill-rule:nonzero;stroke:none"
         id="path68" /><path
         d="m 3841.65,440.691 c -5.71,13.508 -18.91,22.207 -34.52,22.207 -15.6,0 -28.79,-8.699 -34.49,-22.207 -3.3,-8.089 -3.9,-12.601 -4.51,-24.601 l 78.01,0 c -0.61,12 -1.19,16.512 -4.49,24.601 z m -73.52,-40.793 c 0,-32.398 15.31,-51.007 43.52,-51.007 17.09,0 26.99,5.097 38.69,16.8 l 14.7,-12.902 c -15,-15 -28.8,-22.789 -54,-22.789 -39,0 -64.51,23.398 -64.51,75.59 0,47.711 23.1,75.609 60.6,75.609 38.11,0 60.61,-27.609 60.61,-71.41 l 0,-9.891 -99.61,0"
         style="fill:#7d2460;fill-opacity:1;fill-rule:nonzero;stroke:none"
         id="path70" /><path
         d="m 4005.14,331.789 0,90.902 c 0,26.11 -14.1,39.309 -36.31,39.309 -22.2,0 -36.6,-13.512 -36.6,-39.309 l 0,-90.902 -21.6,0 0,147.602 21.6,0 0,-16.2 c 10.51,12 24.9,18.008 41.41,18.008 15.9,0 28.79,-4.808 37.79,-13.801 10.51,-10.199 15.31,-24 15.31,-41.097 l 0,-94.512 -21.6,0"
         style="fill:#7d2460;fill-opacity:1;fill-rule:nonzero;stroke:none"
         id="path72" /><path
         d="m 4133.52,330 c -37.19,0 -65.39,25.191 -65.39,75.59 0,50.398 28.2,75.609 65.39,75.609 20.41,0 33.3,-5.398 48.61,-21.91 l -14.7,-13.789 c -11.1,12.289 -19.81,16.5 -33.91,16.5 -14.39,0 -26.39,-5.699 -34.2,-16.809 -6.89,-9.601 -9.59,-20.992 -9.59,-39.601 0,-18.59 2.7,-30 9.59,-39.602 7.81,-11.097 19.81,-16.789 34.2,-16.789 14.1,0 22.81,4.5 33.91,16.789 l 14.7,-14.097 C 4166.82,335.398 4153.93,330 4133.52,330"
         style="fill:#7d2460;fill-opacity:1;fill-rule:nonzero;stroke:none"
         id="path74" /><path
         d="m 4302.7,440.691 c -5.7,13.508 -18.91,22.207 -34.51,22.207 -15.61,0 -28.79,-8.699 -34.49,-22.207 -3.3,-8.089 -3.91,-12.601 -4.52,-24.601 l 78.01,0 c -0.6,12 -1.19,16.512 -4.49,24.601 z m -73.52,-40.793 c 0,-32.398 15.32,-51.007 43.52,-51.007 17.09,0 26.99,5.097 38.69,16.8 l 14.71,-12.902 c -15,-15 -28.81,-22.789 -54.01,-22.789 -39,0 -64.51,23.398 -64.51,75.59 0,47.711 23.11,75.609 60.61,75.609 38.1,0 60.6,-27.609 60.6,-71.41 l 0,-9.891 -99.61,0"
         style="fill:#7d2460;fill-opacity:1;fill-rule:nonzero;stroke:none"
         id="path76" /><path
         d="m 4418.19,330 c -24.9,0 -44.4,5.691 -60.61,21.301 l 14.42,14.39 c 11.7,-12.293 27.59,-17.101 45.9,-17.101 24.29,0 39.29,8.699 39.29,26.109 0,12.903 -7.5,20.09 -24.61,21.602 l -24.29,2.097 c -28.79,2.403 -44.11,15.301 -44.11,39.602 0,27 22.82,43.199 54.3,43.199 21.02,0 39.9,-5.109 53.11,-15.91 l -14.1,-14.09 c -10.49,8.09 -24.01,11.699 -39.3,11.699 -21.6,0 -33.01,-9.308 -33.01,-24.308 0,-12.602 7.21,-20.102 25.8,-21.59 l 23.71,-2.102 c 25.8,-2.398 43.5,-12.296 43.5,-39.898 0,-28.512 -24.3,-45 -60,-45"
         style="fill:#7d2460;fill-opacity:1;fill-rule:nonzero;stroke:none"
         id="path78" /><path
         d="m 94.7578,195 -57.0039,0 0,-78.301 57.0039,0 c 24.8942,0 42.5972,12.903 42.5972,38.992 0,26.098 -17.703,39.309 -42.5972,39.309 z M 137.656,1.78906 89.0508,96.6016 l -51.2969,0 0,-94.81254 -22.8008,0 0,213.60894 81.9024,0 c 37.1995,0 63.3005,-22.5 63.3005,-59.41 0,-31.199 -18.902,-51.597 -46.504,-57.2888 l 50.703,-96.91014 -26.699,0"
         style="fill:#7d2460;fill-opacity:1;fill-rule:nonzero;stroke:none"
         id="path80" /><path
         d="m 291.852,110.691 c -5.7,13.508 -18.899,22.207 -34.497,22.207 -15.601,0 -28.804,-8.699 -34.503,-22.207 -3.301,-8.089 -3.903,-12.6012 -4.5,-24.6012 l 78,0 c -0.598,12 -1.2,16.5122 -4.5,24.6012 z m -73.5,-40.7926 c 0,-32.3984 15.3,-51.0078 43.5,-51.0078 17.097,0 27,5.0977 38.699,16.8008 L 315.254,22.7891 C 300.254,7.78906 286.449,0 261.25,0 c -39,0 -64.496,23.3984 -64.496,75.5898 0,47.7112 23.101,75.6092 60.601,75.6092 38.098,0 60.598,-27.609 60.598,-71.4099 l 0,-9.8907 -99.601,0"
         style="fill:#7d2460;fill-opacity:1;fill-rule:nonzero;stroke:none"
         id="path82" /><path
         d="m 407.348,0 c -24.903,0 -44.399,5.69141 -60.602,21.3008 l 14.402,14.3906 c 11.7,-12.293 27.602,-17.1016 45.899,-17.1016 24.301,0 39.301,8.6993 39.301,26.1094 0,12.9024 -7.5,20.0899 -24.602,21.6016 l -24.301,2.0976 C 368.648,70.8008 353.352,83.6992 353.352,108 c 0,27 22.796,43.199 54.293,43.199 21.003,0 39.906,-5.109 53.101,-15.91 l -14.098,-14.09 c -10.5,8.09 -24.003,11.699 -39.3,11.699 -21.602,0 -33,-9.308 -33,-24.308 0,-12.6017 7.199,-20.1017 25.797,-21.59 l 23.703,-2.1016 c 25.8,-2.3984 43.5,-12.2968 43.5,-39.8984 0,-28.5117 -24.301,-45 -60,-45"
         style="fill:#7d2460;fill-opacity:1;fill-rule:nonzero;stroke:none"
         id="path84" /><path
         d="m 593.645,110.691 c -5.7,13.508 -18.899,22.207 -34.5,22.207 -15.598,0 -28.801,-8.699 -34.5,-22.207 -3.301,-8.089 -3.903,-12.6012 -4.504,-24.6012 l 78.004,0 c -0.602,12 -1.204,16.5122 -4.5,24.6012 z M 520.141,69.8984 c 0,-32.3984 15.304,-51.0078 43.504,-51.0078 17.097,0 27,5.0977 38.699,16.8008 L 617.047,22.7891 C 602.047,7.78906 588.242,0 563.043,0 c -39,0 -64.496,23.3984 -64.496,75.5898 0,47.7112 23.098,75.6092 60.598,75.6092 38.101,0 60.601,-27.609 60.601,-71.4099 l 0,-9.8907 -99.605,0"
         style="fill:#7d2460;fill-opacity:1;fill-rule:nonzero;stroke:none"
         id="path86" /><path
         d="m 746.348,69.8984 -41.403,0 c -22.203,0 -33.004,-9 -33.004,-26.0976 0,-17.1016 10.504,-25.211 33.903,-25.211 12.601,0 23.703,0.8985 33.004,9.8985 5.097,4.8125 7.5,13.2109 7.5,25.5 l 0,15.9101 z m 0,-68.10934 0,14.10934 C 734.348,3.89063 723.547,0 703.746,0 c -20.402,0 -32.402,3.89063 -41.699,13.4883 -7.203,7.2031 -11.106,18.3008 -11.106,30 0,25.8008 18.004,42.6015 51,42.6015 l 44.407,0 0,14.1012 c 0,21.598 -10.801,32.411 -37.801,32.411 -18.902,0 -28.504,-4.512 -37.203,-16.801 l -14.699,13.488 c 13.199,17.102 28.199,21.91 52.199,21.91 39.601,0 59.105,-17.097 59.105,-49.199 l 0,-100.21094 -21.601,0"
         style="fill:#7d2460;fill-opacity:1;fill-rule:nonzero;stroke:none"
         id="path88" /><path
         d="m 899.941,121.199 c -8.105,8.09 -14.101,10.801 -25.5,10.801 -21.597,0 -35.398,-17.102 -35.398,-39.6016 l 0,-90.60934 -21.602,0 0,147.60194 21.602,0 0,-18 c 8.098,12.308 24.297,19.808 41.395,19.808 14.105,0 24.906,-3.301 35.402,-13.801 l -15.899,-16.199"
         style="fill:#7d2460;fill-opacity:1;fill-rule:nonzero;stroke:none"
         id="path90" /><path
         d="m 987.781,0 c -37.195,0 -65.398,25.1914 -65.398,75.5898 0,50.3982 28.203,75.6092 65.398,75.6092 20.399,0 33.299,-5.398 48.609,-21.91 l -14.7,-13.789 c -11.1,12.289 -19.81,16.5 -33.909,16.5 -14.39,0 -26.394,-5.699 -34.195,-16.809 -6.898,-9.601 -9.602,-20.9918 -9.602,-39.6012 0,-18.5898 2.704,-30 9.602,-39.6015 7.801,-11.0977 19.805,-16.7891 34.195,-16.7891 14.099,0 22.809,4.5 33.909,16.7891 l 14.7,-14.0977 C 1021.08,5.39844 1008.18,0 987.781,0"
         style="fill:#7d2460;fill-opacity:1;fill-rule:nonzero;stroke:none"
         id="path92" /><path
         d="m 1168.98,1.78906 0,91.21094 c 0,25.801 -13.79,39 -36,39 -22.2,0 -36.9,-13.512 -36.9,-39 l 0,-91.21094 -21.6,0 0,213.60894 21.6,0 0,-82.207 c 10.8,12.309 24.9,18.008 41.4,18.008 33.3,0 53.11,-21.301 53.11,-54.5974 l 0,-94.81254 -21.61,0"
         style="fill:#7d2460;fill-opacity:1;fill-rule:nonzero;stroke:none"
         id="path94" /><path
         d="m 1382.28,0 c -21,0 -40.2,7.78906 -54.6,22.1992 -20.1,20.0899 -20.1,41.1016 -20.1,86.3908 0,45.301 0,66.308 20.1,86.41 14.4,14.391 33.6,22.199 54.6,22.199 38.39,0 66.9,-23.398 74.1,-63.609 l -23.4,0 c -5.7,26.109 -24.01,43.199 -50.7,43.199 -14.11,0 -27.6,-5.398 -36.91,-15 -13.49,-13.789 -15,-28.488 -15,-73.199 0,-44.6994 1.51,-59.3908 15,-73.1916 9.31,-9.5976 22.8,-15 36.91,-15 26.69,0 45.6,17.1016 51.29,43.1914 l 22.81,0 C 1449.47,23.3984 1420.38,0 1382.28,0"
         style="fill:#7d2460;fill-opacity:1;fill-rule:nonzero;stroke:none"
         id="path96" /><path
         d="m 1579.38,121.199 c -6.9,6.891 -16.5,10.801 -27,10.801 -10.5,0 -19.8,-3.91 -26.7,-10.801 -10.8,-10.801 -12,-29.0974 -12,-45.6092 0,-16.4882 1.2,-34.789 12,-45.5898 6.9,-6.9102 16.2,-10.8008 26.7,-10.8008 10.5,0 20.1,3.8906 27,10.8008 10.81,10.8008 11.7,29.1016 11.7,45.5898 0,16.5118 -0.89,34.8082 -11.7,45.6092 z m 15.3,-104.4099 C 1584.48,6.60156 1570.38,0 1552.38,0 c -18,0 -32.1,6.60156 -42.3,16.7891 -15,15.3125 -18,36 -18,58.8007 0,22.8086 3,43.5122 18,58.8012 10.2,10.211 24.3,16.808 42.3,16.808 18,0 32.1,-6.597 42.3,-16.808 15,-15.289 18.01,-35.9926 18.01,-58.8012 0,-22.8007 -3.01,-43.4882 -18.01,-58.8007"
         style="fill:#7d2460;fill-opacity:1;fill-rule:nonzero;stroke:none"
         id="path98" /><path
         d="m 1749.18,1.78906 0,16.51174 C 1738.68,6.30078 1723.97,0 1707.48,0 c -15.9,0 -29.1,4.78906 -38.1,13.8008 -10.5,10.1875 -15,24.289 -15,41.3906 l 0,94.1996 21.6,0 0,-90.9027 c 0,-26.0977 13.8,-39.2891 35.99,-39.2891 22.21,0 36.91,13.4922 36.91,39.2891 l 0,90.9027 21.6,0 0,-147.60194 -21.3,0"
         style="fill:#7d2460;fill-opacity:1;fill-rule:nonzero;stroke:none"
         id="path100" /><path
         d="m 1915.98,1.78906 0,90.90234 c 0,26.1096 -14.1,39.3086 -36.3,39.3086 -22.21,0 -36.6,-13.512 -36.6,-39.3086 l 0,-90.90234 -21.61,0 0,147.60194 21.61,0 0,-16.2 c 10.49,12 24.89,18.008 41.39,18.008 15.9,0 28.8,-4.808 37.81,-13.801 10.49,-10.199 15.3,-24 15.3,-41.0972 l 0,-94.51174 -21.6,0"
         style="fill:#7d2460;fill-opacity:1;fill-rule:nonzero;stroke:none"
         id="path102" /><path
         d="m 2044.38,0 c -37.2,0 -65.41,25.1914 -65.41,75.5898 0,50.3982 28.21,75.6092 65.41,75.6092 20.4,0 33.3,-5.398 48.6,-21.91 l -14.7,-13.789 c -11.1,12.289 -19.8,16.5 -33.9,16.5 -14.4,0 -26.4,-5.699 -34.2,-16.809 -6.9,-9.601 -9.6,-20.9918 -9.6,-39.6012 0,-18.5898 2.7,-30 9.6,-39.6015 7.8,-11.0977 19.8,-16.7891 34.2,-16.7891 14.1,0 22.8,4.5 33.9,16.7891 l 14.7,-14.0977 C 2077.68,5.39844 2064.78,0 2044.38,0"
         style="fill:#7d2460;fill-opacity:1;fill-rule:nonzero;stroke:none"
         id="path104" /><path
         d="m 2131.07,1.78906 0,147.60194 21.61,0 0,-147.60194 -21.61,0 z m -1.2,189.60194 0,24.308 24.3,0 0,-24.308 -24.3,0"
         style="fill:#7d2460;fill-opacity:1;fill-rule:nonzero;stroke:none"
         id="path106" /><path
         d="m 2240.86,1.78906 c -25.8,0 -37.5,16.80074 -37.5,39.30074 l 0,174.3082 21.61,0 0,-173.398 c 0,-14.3984 4.8,-21.6016 19.8,-21.6016 l 11.7,0 0,-18.60934 -15.61,0"
         style="fill:#7d2460;fill-opacity:1;fill-rule:nonzero;stroke:none"
         id="path108" /></g></g></svg>