<?xml version="1.0" encoding="UTF-8" standalone="no"?>
<!-- Created with Inkscape (http://www.inkscape.org/) -->

<svg
   xmlns:dc="http://purl.org/dc/elements/1.1/"
   xmlns:cc="http://creativecommons.org/ns#"
   xmlns:rdf="http://www.w3.org/1999/02/22-rdf-syntax-ns#"
   xmlns:svg="http://www.w3.org/2000/svg"
   xmlns="http://www.w3.org/2000/svg"
   xmlns:sodipodi="http://sodipodi.sourceforge.net/DTD/sodipodi-0.dtd"
   xmlns:inkscape="http://www.inkscape.org/namespaces/inkscape"
   id="svg2"
   version="1.1"
   inkscape:version="0.48.4 r9939"
   width="151.25"
   height="116.25"
   xml:space="preserve"
   sodipodi:docname="HW_Logo.EPS"><metadata
     id="metadata8"><rdf:RDF><cc:Work
         rdf:about=""><dc:format>image/svg+xml</dc:format><dc:type
           rdf:resource="http://purl.org/dc/dcmitype/StillImage" /><dc:title></dc:title></cc:Work></rdf:RDF></metadata><defs
     id="defs6" /><sodipodi:namedview
     pagecolor="#ffffff"
     bordercolor="#666666"
     borderopacity="1"
     objecttolerance="10"
     gridtolerance="10"
     guidetolerance="10"
     inkscape:pageopacity="0"
     inkscape:pageshadow="2"
     inkscape:window-width="1871"
     inkscape:window-height="1056"
     id="namedview4"
     showgrid="false"
     inkscape:zoom="2.8710056"
     inkscape:cx="86.217323"
     inkscape:cy="69.137536"
     inkscape:window-x="49"
     inkscape:window-y="24"
     inkscape:window-maximized="1"
     inkscape:current-layer="g10" /><g
     id="g10"
     inkscape:groupmode="layer"
     inkscape:label="ink_ext_XXXXXX"
     transform="matrix(1.25,0,0,-1.25,0,116.25)"><g
       id="g12"
       transform="scale(0.1,0.1)"><path
         d="m 18.0547,912.668 1174.3053,0 0,-710.293 L 18.0547,18.7031 l 0,893.9649"
         style="fill:#ffffff;fill-opacity:1;fill-rule:nonzero;stroke:none"
         id="path14" /><path
         d="m 18.0547,912.668 1174.3053,0 0,-710.293 L 18.0547,18.7031 l 0,893.9649 z"
         style="fill:none;stroke:#ffffff;stroke-opacity:1;stroke-width:30.873;stroke-linecap:butt;stroke-linejoin:miter;stroke-miterlimit:3.86369;stroke-dasharray:none"
         id="path16" /><path
         d="m 18.0547,912.668 1174.3053,0 0,-710.293 L 18.0547,18.7031 l 0,893.9649"
         style="fill:#1a68bb;fill-opacity:1;fill-rule:nonzero;stroke:none"
         id="path18" /><path
         d="m 271.207,294.332 c 3.887,1.102 13.465,4.012 22.856,8.414 11.675,5.477 27.21,14.344 42.765,27.988 31.367,27.516 62.188,73.973 62.188,149.079 l 0,86.214 -255.618,0 0,-86.214 c 0,-75.106 30.825,-121.563 62.192,-149.079 15.547,-13.644 31.09,-22.515 42.762,-27.988 9.39,-4.402 18.968,-7.312 22.855,-8.414"
         style="fill:#ffffff;fill-opacity:1;fill-rule:nonzero;stroke:none"
         id="path20" /><path
         d="m 271.207,294.332 c 3.887,1.102 13.465,4.012 22.856,8.414 11.675,5.477 27.21,14.344 42.765,27.988 31.367,27.516 62.188,73.973 62.188,149.079 l 0,86.214 -255.618,0 0,-86.214 c 0,-75.106 30.825,-121.563 62.192,-149.079 15.547,-13.644 31.09,-22.515 42.762,-27.988 9.39,-4.402 18.968,-7.312 22.855,-8.414 z"
         style="fill:none;stroke:#ffffff;stroke-opacity:1;stroke-width:1.339;stroke-linecap:butt;stroke-linejoin:miter;stroke-miterlimit:3.86369;stroke-dasharray:none"
         id="path22" /><path
         d="m 529.5,699.949 c 0.211,0.008 0.52,0.024 1.023,0.024 28.165,0 38.567,7.949 38.567,29.402 0,21.996 -10.211,31.691 -33.567,31.691 -3.871,0 -5.496,-0.468 -6.234,-1.039 -0.48,-0.371 -1.086,-1.199 -1.086,-4.195 l 0,-52.91 c 0,-0.949 0.02,-1.731 0.125,-2.363 l 0.078,-0.442 0.434,-0.117 c 0.234,-0.059 0.449,-0.059 0.66,-0.051 z m -1.297,-48.691 c 0,-9.324 0.785,-12.223 5.051,-14.281 1.117,-0.559 2.414,-0.922 3.809,-1.168 1.48,-0.262 2.937,-0.387 4.21,-0.536 0.754,-0.089 1.45,-0.183 2.075,-0.312 0.664,-0.133 1.398,-0.332 2.093,-0.652 1.59,-0.739 2.965,-2.2 2.965,-4.504 0,-4.11 -3.859,-5.176 -6.633,-5.176 -1.668,0 -10.625,1.039 -27.289,1.039 -16.664,0 -25.621,-1.039 -27.285,-1.039 -2.777,0 -6.636,1.066 -6.636,5.176 0,2.304 1.375,3.769 2.968,4.504 0.692,0.32 1.43,0.519 2.09,0.652 0.629,0.129 1.324,0.223 2.074,0.312 1.278,0.149 2.731,0.274 4.211,0.536 1.399,0.246 2.696,0.609 3.809,1.168 4.265,2.058 5.055,4.957 5.055,14.285 l 0,93.734 c 0,9.059 -0.95,11.961 -4.993,13.84 -1.031,0.473 -2.269,0.797 -3.675,1.039 -1.469,0.246 -2.934,0.383 -4.239,0.535 l -2.074,0.289 c -0.762,0.133 -1.422,0.301 -1.984,0.508 -1.25,0.465 -3.242,1.645 -3.242,4.203 0,4.024 4.058,4.969 6.636,4.969 1.039,0 6.664,-0.418 16.871,-0.418 14.789,0 28.121,1.043 39.785,1.043 35.465,0 54.543,-10.988 54.543,-38.504 0,-20.672 -12.371,-33.77 -34.929,-38.465 l -1.16,-0.242 41.851,-48.988 c 4.059,-4.723 8.797,-7.16 12.731,-8.864 2.117,-0.918 3.945,-1.613 5.242,-2.289 0.715,-0.371 1.527,-0.855 2.187,-1.519 0.711,-0.719 1.364,-1.778 1.364,-3.164 0,-3.446 -3.805,-4.758 -6.215,-4.758 -1.043,0 -6.461,0.832 -16.457,0.832 -3.332,0 -6.664,-0.207 -9.789,-0.207 -4.348,0 -7.844,0.207 -11.211,4.418 l -45.008,56.469 c -2.309,2.968 -3.938,3.691 -8.176,3.687 l -0.703,-0.004 0.078,-38.148"
         style="fill:#ffffff;fill-opacity:1;fill-rule:evenodd;stroke:none"
         id="path24" /><path
         d="m 864.793,697.711 c 0,42.742 -19.816,65.648 -47.523,65.648 -27.11,0 -47.942,-23.988 -47.942,-65.23 0,-41.547 20.481,-66.274 47.524,-66.274 26.914,0 47.941,23.168 47.941,65.856 z m -46.691,75.793 c 22.625,0 44.023,-9.055 58.757,-24.656 12.86,-13.731 18.907,-30.516 18.907,-51.344 0,-20.949 -8.414,-40.891 -22.575,-54.18 -14.304,-13.441 -35.433,-21.613 -55.921,-21.613 -21.692,0 -41.372,7.312 -55.915,20.769 -16.011,14.934 -23.417,32.165 -23.417,54.606 0,20.156 7.617,38.391 22.308,53.082 15.559,15.344 35.676,23.336 57.856,23.336"
         style="fill:#ffffff;fill-opacity:1;fill-rule:evenodd;stroke:none"
         id="path26" /><path
         d="m 155.082,759.582 c -1.465,0.246 -2.93,0.383 -4.234,0.535 l -2.075,0.285 c -0.761,0.137 -1.425,0.305 -1.988,0.512 -1.25,0.465 -3.238,1.645 -3.238,4.203 0,4.024 4.055,4.965 6.633,4.965 2.293,0 11.457,-0.832 27.289,-0.832 16.453,0 25.621,0.832 27.285,0.832 1.336,0 2.769,-0.168 3.984,-0.75 1.34,-0.644 2.653,-1.965 2.653,-4.008 0,-1.867 -1.055,-3.164 -2.364,-3.875 -1.035,-0.566 -2.3,-0.808 -3.308,-0.976 -1.989,-0.325 -4.801,-0.567 -8.121,-1.469 -4.731,-1.293 -6.414,-4.363 -6.414,-14.301 l 0,-38.773 69.425,0 0,38.773 c 0,9.059 -0.949,11.961 -4.992,13.84 -1.043,0.48 -2.297,0.816 -3.711,1.074 -1.472,0.27 -2.953,0.434 -4.265,0.61 -1.301,0.175 -2.832,0.406 -4.051,0.886 -1.238,0.485 -3.188,1.684 -3.188,4.211 0,2.043 1.313,3.367 2.653,4.008 1.215,0.582 2.652,0.75 3.984,0.75 1.664,0 10.832,-0.832 27.285,-0.832 15.832,0 24.996,0.832 27.289,0.832 2.578,0 6.633,-0.941 6.633,-4.965 0,-2.558 -1.988,-3.738 -3.238,-4.203 -0.567,-0.207 -1.227,-0.375 -1.988,-0.512 l -2.075,-0.285 c -1.304,-0.152 -2.765,-0.289 -4.238,-0.535 -1.402,-0.242 -2.644,-0.566 -3.672,-1.039 -4.043,-1.879 -4.992,-4.781 -4.992,-13.84 l 0,-93.734 c 0,-9.328 0.785,-12.227 5.051,-14.285 1.117,-0.559 2.414,-0.922 3.808,-1.168 1.485,-0.262 2.938,-0.387 4.215,-0.536 0.746,-0.089 1.446,-0.187 2.071,-0.312 0.664,-0.137 1.402,-0.332 2.093,-0.652 1.59,-0.739 2.965,-2.2 2.965,-4.504 0,-4.11 -3.855,-5.176 -6.633,-5.176 -1.668,0 -10.625,1.039 -27.289,1.039 -16.664,0 -25.621,-1.039 -27.285,-1.039 -2.777,0 -6.637,1.066 -6.637,5.176 0,2.304 1.379,3.765 2.969,4.504 0.692,0.32 1.43,0.515 2.09,0.652 0.625,0.125 1.324,0.223 2.074,0.312 1.278,0.149 2.731,0.274 4.215,0.536 1.395,0.246 2.688,0.609 3.805,1.168 4.269,2.058 5.054,4.957 5.054,14.285 l 0,42.734 -69.425,0 0,-42.734 c 0,-9.227 0.953,-12.207 5.261,-14.285 1.121,-0.559 2.407,-0.922 3.782,-1.168 1.464,-0.262 2.89,-0.387 4.14,-0.536 0.742,-0.089 1.426,-0.191 2.043,-0.316 0.653,-0.133 1.383,-0.332 2.07,-0.66 1.59,-0.758 2.911,-2.227 2.911,-4.492 0,-4.11 -3.86,-5.176 -6.637,-5.176 -1.664,0 -10.621,1.039 -27.285,1.039 -16.664,0 -25.621,-1.039 -27.289,-1.039 -2.774,0 -6.633,1.066 -6.633,5.176 0,2.304 1.375,3.765 2.965,4.504 0.695,0.32 1.429,0.515 2.093,0.652 0.625,0.125 1.321,0.223 2.071,0.312 1.277,0.149 2.73,0.274 4.215,0.536 1.394,0.246 2.691,0.609 3.808,1.168 4.266,2.058 5.055,4.957 5.055,14.285 l 0,93.734 c 0,9.059 -0.953,11.961 -4.996,13.84 -1.028,0.473 -2.27,0.797 -3.676,1.039"
         style="fill:#ffffff;fill-opacity:1;fill-rule:nonzero;stroke:none"
         id="path28" /><path
         d="m 442.691,647.727 c 1.071,1.816 1.77,3.523 2.27,5.086 0.523,1.632 0.824,3.082 1.094,4.3 l 0.472,1.93 c 0.176,0.598 0.407,1.262 0.758,1.895 0.84,1.507 2.289,2.582 4.348,2.582 2.43,0 4.035,-1.418 4.683,-3.52 0.254,-0.828 0.364,-1.734 0.422,-2.605 0.055,-0.844 0.071,-1.844 0.071,-3.008 0,-6.668 -0.832,-13.75 -0.832,-21.043 0,-7.035 -1.75,-8.715 -9.762,-8.715 -3.953,0 -29.574,1.039 -77.277,1.039 -16.665,0 -25.622,-1.039 -27.286,-1.039 -2.777,0 -6.632,1.066 -6.632,5.176 0,2.304 1.375,3.769 2.964,4.504 0.692,0.32 1.426,0.519 2.09,0.652 0.625,0.129 1.324,0.223 2.074,0.312 1.278,0.149 2.731,0.274 4.215,0.536 1.395,0.246 2.688,0.609 3.805,1.168 4.27,2.058 5.055,4.957 5.055,14.285 l 0,93.734 c 0,9.059 -0.95,11.961 -4.993,13.84 -1.027,0.473 -2.269,0.797 -3.675,1.039 -1.469,0.246 -2.93,0.383 -4.235,0.535 l -2.078,0.289 c -0.758,0.133 -1.422,0.301 -1.984,0.508 -1.25,0.465 -3.238,1.645 -3.238,4.203 0,4.024 4.054,4.969 6.632,4.969 2.082,0 13.121,-0.832 32.703,-0.832 14.997,0 31.868,0.625 51.45,0.625 l 4.582,0 c 2.359,0 4.34,-0.016 5.988,-0.113 1.676,-0.098 3.25,-0.293 4.598,-0.739 3.355,-1.097 4.793,-3.609 4.793,-7.035 0,-1.875 -0.621,-5.414 -0.621,-11.246 0,-5.207 0.832,-8.75 0.832,-10.832 0,-2.754 -0.985,-6.219 -5.176,-6.219 -2.27,0 -3.774,1.27 -4.563,2.91 -0.336,0.696 -0.539,1.434 -0.687,2.09 l -0.363,2.067 c -0.196,1.277 -0.395,2.746 -0.809,4.308 -0.387,1.461 -0.953,2.938 -1.852,4.344 -5.25,8.402 -15.629,9.695 -35.675,9.695 l -1.668,0 c -3.481,0 -6.172,-0.007 -8.246,-0.191 -2.028,-0.184 -2.915,-0.508 -3.333,-0.793 -0.253,-0.297 -0.359,-0.465 -0.476,-0.684 -0.117,-0.234 -0.254,-0.546 -0.328,-0.894 -0.27,-1.231 -0.356,-3.02 -0.356,-5.801 l 0,-44.859 0.75,0.05 c 13.918,0.958 20.34,3.098 24.524,9.856 0.918,1.535 1.523,3.152 1.969,4.805 0.468,1.726 0.738,3.379 0.98,4.824 l 0.426,2.254 c 0.152,0.676 0.347,1.422 0.652,2.133 0.629,1.464 1.969,3.199 4.477,3.199 4.109,0 5.382,-3.551 5.382,-6.426 0,-4.168 -1.039,-11.664 -1.039,-22.289 0,-14.164 1.247,-22.914 1.247,-26.457 0,-2.961 -1.399,-6.633 -5.172,-6.633 -1.985,0 -3.235,1.203 -3.899,2.426 -0.293,0.539 -0.496,1.098 -0.648,1.609 l -0.43,1.645 c -0.238,1.031 -0.492,2.258 -0.879,3.633 -0.359,1.289 -0.844,2.718 -1.551,4.222 -3.589,7.696 -10.64,10.422 -25.921,10.422 l -0.7,0 -0.168,-31.691 c 0,-22.703 1.114,-27.532 27.735,-27.532 18.277,0 27.343,2.766 32.511,11.497"
         style="fill:#ffffff;fill-opacity:1;fill-rule:nonzero;stroke:none"
         id="path30" /><path
         d="m 707.352,635.727 c 1.64,-0.274 3.203,-0.391 4.566,-0.528 l 2.207,-0.285 c 0.68,-0.121 1.418,-0.301 2.117,-0.598 1.629,-0.691 3.098,-2.136 3.098,-4.511 0,-3.856 -3.789,-5.176 -6.84,-5.176 -1.875,0 -11.664,1.039 -29.16,1.039 -17.5,0 -27.082,-1.039 -28.957,-1.039 -2.824,0 -7.051,1.18 -7.051,5.176 0,2.418 1.535,3.847 3.156,4.523 0.715,0.297 1.473,0.473 2.172,0.594 l 2.207,0.281 c 1.387,0.137 2.977,0.25 4.637,0.524 1.582,0.257 3.113,0.648 4.523,1.289 4.727,2.132 5.801,5.172 5.801,14.246 l 0,93.734 c 0,8.957 -1.113,11.942 -5.199,13.84 -0.988,0.453 -2.324,0.781 -3.945,1.027 -1.668,0.254 -3.395,0.391 -4.961,0.539 -1.563,0.153 -3.297,0.34 -4.653,0.75 -1.066,0.317 -3.738,1.34 -3.738,4.258 0,1.77 1.234,2.813 1.852,3.235 0.714,0.488 1.546,0.812 2.277,1.035 1.492,0.457 3.289,0.699 4.797,0.699 2.293,0 11.25,-0.832 27.082,-0.832 16.453,0 25.828,0.832 27.492,0.832 1.356,0 3.027,-0.18 4.449,-0.574 0.692,-0.192 1.516,-0.489 2.231,-0.973 0.664,-0.449 1.828,-1.48 1.828,-3.211 0,-2.398 -1.828,-3.555 -2.988,-4.019 -1.137,-0.461 -2.555,-0.684 -3.817,-0.848 -2.472,-0.324 -5.769,-0.559 -9.066,-1.457 -4.731,-1.293 -6.414,-4.363 -6.414,-14.301 l 0,-93.734 c 0,-9.274 1.297,-12.293 5.785,-14.239 1.41,-0.64 2.953,-1.039 4.512,-1.296"
         style="fill:#ffffff;fill-opacity:1;fill-rule:nonzero;stroke:none"
         id="path32" /><path
         d="m 1015.46,635.727 c 1.66,-0.274 3.25,-0.387 4.64,-0.524 l 2.24,-0.289 c 0.68,-0.117 1.43,-0.293 2.14,-0.586 1.62,-0.676 3.15,-2.105 3.15,-4.523 0,-3.996 -4.22,-5.176 -7.05,-5.176 -1.67,0 -11.25,1.039 -29.166,1.039 -17.91,0 -27.699,-1.039 -29.367,-1.039 -3.051,0 -6.844,1.32 -6.844,5.176 0,2.418 1.535,3.847 3.156,4.523 0.715,0.297 1.473,0.473 2.168,0.594 l 2.207,0.281 c 1.391,0.137 2.981,0.25 4.641,0.524 1.582,0.257 3.152,0.664 4.559,1.304 4.625,1.942 5.765,4.883 5.765,14.231 l 0,104.984 c 0,1.219 -0.179,1.844 -0.34,2.164 l -0.254,0.274 c -0.937,0.593 -1.812,0.82 -3.218,0.961 -1.438,0.14 -3.153,0.171 -5.176,0.171 l -8.332,0 c -18.699,0 -27.617,-1.082 -31.785,-7.082 -2.078,-3.031 -2.742,-6.773 -3.242,-10.254 -0.27,-1.902 -0.497,-3.554 -0.852,-4.726 -0.344,-1.149 -1.379,-3.766 -4.32,-3.766 -1.809,0 -3.426,0.84 -4.207,2.645 -0.301,0.687 -0.422,1.387 -0.481,1.965 -0.054,0.523 -0.074,1.132 -0.074,1.816 l 0,23.539 c 0,5.957 3.445,7.676 8.926,7.676 3.543,0 25.832,-1.457 67.07,-1.457 41.246,0 63.536,1.457 67.076,1.457 5.64,0 8.72,-1.852 8.72,-7.676 l 0,-23.531 -0.04,-1.727 c -0.03,-0.523 -0.1,-1.191 -0.33,-1.859 -0.67,-1.922 -2.31,-2.848 -4.19,-2.848 -2.9,0 -3.97,2.571 -4.33,3.719 -0.21,0.637 -0.38,1.398 -0.53,2.266 l -0.41,2.468 c -0.55,3.489 -1.27,7.262 -3.36,10.305 -2.17,3.223 -5.73,5.086 -11.75,6.067 -6.26,1.023 -14.39,1.003 -24.61,1.003 l -3.54,0 c -2.08,0 -3.84,-0.019 -5.29,-0.148 -1.41,-0.121 -2.23,-0.324 -2.72,-0.551 l -0.34,-0.332 c -0.06,-0.109 -0.21,-0.379 -0.35,-0.797 -0.15,-0.437 -0.29,-1.023 -0.29,-1.742 l 0,-104.984 c 0,-9.348 1.14,-12.289 5.77,-14.231 1.41,-0.64 2.98,-1.047 4.56,-1.304"
         style="fill:#ffffff;fill-opacity:1;fill-rule:nonzero;stroke:none"
         id="path34" /><path
         d="m 527.891,562.949 c 1.222,2.031 3.05,3.449 5.746,3.449 2.758,0 4.676,-1.226 5.968,-3.476 0.547,-0.957 0.973,-2.059 1.364,-3.223 l 1.261,-4.097 29.118,-95.153 16.402,53.305 c 4.75,15.082 6.742,26.641 6.742,33.93 0,3.964 -2.277,6.918 -7.789,7.777 -2.445,0.426 -4.433,0.492 -5.789,0.781 -2.023,0.438 -4.332,1.715 -4.332,4.981 0,2.078 1.281,3.507 2.731,4.257 1.328,0.688 2.941,0.918 4.523,0.918 2.504,0 10.625,-0.832 24.789,-0.832 5.832,0 10.207,0.625 12.918,0.625 2.473,0 6.008,-1.14 6.008,-4.757 0,-1.649 -0.797,-2.907 -1.852,-3.739 -0.906,-0.715 -2.011,-1.129 -2.894,-1.406 -1.598,-0.508 -3.723,-0.902 -5.856,-1.715 -4.906,-1.898 -6.898,-6.703 -10.359,-17.949 L 573.887,431.641 c -1.27,-4.137 -2.606,-7.489 -4.078,-9.86 -1.375,-2.218 -3.43,-4.465 -6.383,-4.465 -3.016,0 -5.02,1.754 -6.352,3.977 -1.238,2.066 -2.16,4.918 -3.082,8.098 l -27.265,92.593 -27.61,-91.152 c -1.156,-3.887 -2.34,-7.082 -3.801,-9.355 -1.515,-2.352 -3.648,-4.161 -6.668,-4.161 -3.234,0 -5.218,1.993 -6.523,4.309 -0.586,1.035 -1.137,2.313 -1.691,3.816 -0.504,1.364 -1.028,2.946 -1.61,4.7 l -36.043,112.711 c -2.718,8.566 -4.418,10.996 -8.586,12.035 -2.355,0.504 -4.609,0.605 -6.277,0.965 -1.93,0.418 -5.063,1.586 -5.063,5.371 0,1.832 0.868,3.457 2.715,4.226 0.692,0.289 1.407,0.403 2,0.465 0.547,0.051 1.188,0.07 1.918,0.07 2.711,0 11.043,-0.832 25.207,-0.832 9.371,0 18.121,1.039 25.828,1.039 2.024,0 3.934,-0.144 5.422,-0.707 1.739,-0.656 3.297,-2.105 3.297,-4.468 0,-3.559 -2.929,-4.469 -4.633,-4.746 -1.41,-0.231 -3.464,-0.282 -6.027,-0.79 -7.234,-1.41 -8.297,-2.96 -8.297,-6.335 0,-3.332 2.422,-13.079 7.383,-30.102 4.258,-14.602 10.246,-34.145 17.762,-58.719 l 0.679,-2.222 29.141,97.902 c 0.809,2.723 1.578,5.187 2.641,6.945"
         style="fill:#ffffff;fill-opacity:1;fill-rule:nonzero;stroke:none"
         id="path36" /><path
         d="m 1015.39,431.332 c 1.66,-0.273 3.25,-0.387 4.65,-0.527 l 2.23,-0.285 c 0.69,-0.118 1.44,-0.293 2.14,-0.586 1.63,-0.676 3.16,-2.106 3.16,-4.524 0,-3.996 -4.23,-5.176 -7.05,-5.176 -1.67,0 -11.25,1.039 -29.168,1.039 -17.911,0 -27.7,-1.039 -29.368,-1.039 -3.05,0 -6.843,1.321 -6.843,5.176 0,2.418 1.535,3.848 3.156,4.524 0.715,0.296 1.473,0.472 2.168,0.593 l 2.211,0.278 c 1.387,0.14 2.976,0.254 4.64,0.527 1.582,0.262 3.145,0.664 4.551,1.305 4.633,1.937 5.77,4.883 5.77,14.226 l 0,104.989 c 0,1.218 -0.18,1.843 -0.34,2.164 l -0.254,0.277 c -0.938,0.59 -1.813,0.816 -3.219,0.957 -1.433,0.141 -3.152,0.172 -5.176,0.172 l -8.332,0 c -18.699,0 -27.617,-1.082 -31.785,-7.082 -2.078,-3.031 -2.742,-6.77 -3.242,-10.254 -0.269,-1.902 -0.496,-3.555 -0.851,-4.731 -0.344,-1.144 -1.379,-3.761 -4.321,-3.761 -1.808,0 -3.426,0.84 -4.207,2.644 -0.297,0.688 -0.418,1.387 -0.48,1.965 -0.055,0.524 -0.075,1.133 -0.075,1.817 l 0,23.539 c 0,5.957 3.446,7.675 8.926,7.675 3.543,0 25.832,-1.461 67.071,-1.461 41.248,0 63.538,1.461 67.078,1.461 5.64,0 8.71,-1.851 8.71,-7.675 l 0,-23.532 -0.03,-1.726 c -0.03,-0.524 -0.11,-1.192 -0.34,-1.86 -0.66,-1.921 -2.3,-2.847 -4.18,-2.847 -2.9,0 -3.97,2.566 -4.34,3.715 -0.2,0.64 -0.37,1.402 -0.53,2.269 l -0.4,2.469 c -0.55,3.488 -1.27,7.258 -3.36,10.305 -2.17,3.222 -5.73,5.086 -11.75,6.066 -6.26,1.023 -14.39,1.004 -24.61,1.004 l -3.54,0 c -2.09,0 -3.84,-0.02 -5.29,-0.145 -1.41,-0.125 -2.23,-0.332 -2.73,-0.554 l -0.34,-0.332 c -0.05,-0.11 -0.2,-0.379 -0.34,-0.797 -0.16,-0.438 -0.29,-1.024 -0.29,-1.742 l 0,-104.989 c 0,-9.343 1.14,-12.289 5.77,-14.226 1.41,-0.641 2.97,-1.043 4.55,-1.305"
         style="fill:#ffffff;fill-opacity:1;fill-rule:nonzero;stroke:none"
         id="path38" /><path
         d="m 844.504,431.332 c 1.664,-0.273 3.254,-0.387 4.641,-0.527 l 2.242,-0.285 c 0.687,-0.118 1.429,-0.293 2.136,-0.586 1.622,-0.676 3.153,-2.106 3.153,-4.524 0,-3.996 -4.223,-5.176 -7.051,-5.176 -1.664,0 -11.246,1.039 -29.16,1.039 -17.914,0 -27.703,-1.039 -29.371,-1.039 -3.051,0 -6.84,1.321 -6.84,5.176 0,2.418 1.531,3.848 3.152,4.524 0.715,0.296 1.473,0.472 2.168,0.593 l 2.211,0.278 c 1.391,0.14 2.977,0.254 4.641,0.527 1.582,0.262 3.148,0.664 4.554,1.305 4.629,1.937 5.77,4.883 5.77,14.226 l 0,104.989 c 0,1.218 -0.184,1.843 -0.344,2.164 l -0.25,0.277 c -0.941,0.59 -1.816,0.816 -3.222,0.957 -1.434,0.141 -3.149,0.172 -5.172,0.172 l -8.332,0 c -18.703,0 -27.617,-1.082 -31.789,-7.082 -2.075,-3.031 -2.743,-6.77 -3.243,-10.254 -0.269,-1.902 -0.496,-3.555 -0.851,-4.731 -0.344,-1.144 -1.379,-3.761 -4.32,-3.761 -1.805,0 -3.422,0.84 -4.207,2.644 -0.297,0.688 -0.418,1.387 -0.477,1.965 -0.055,0.524 -0.074,1.133 -0.074,1.817 l 0,23.539 c 0,5.957 3.441,7.675 8.926,7.675 3.539,0 25.828,-1.461 67.07,-1.461 41.242,0 63.531,1.461 67.07,1.461 5.645,0 8.719,-1.847 8.719,-7.675 l 0,-23.532 -0.031,-1.726 c -0.035,-0.524 -0.106,-1.192 -0.34,-1.86 -0.668,-1.921 -2.305,-2.847 -4.18,-2.847 -2.906,0 -3.973,2.566 -4.34,3.715 -0.203,0.64 -0.375,1.402 -0.531,2.269 l -0.402,2.469 c -0.547,3.488 -1.27,7.258 -3.364,10.305 -2.171,3.222 -5.726,5.086 -11.746,6.066 -6.261,1.023 -14.386,1.004 -24.609,1.004 l -3.543,0 c -2.086,0 -3.84,-0.02 -5.293,-0.145 -1.406,-0.125 -2.23,-0.332 -2.723,-0.554 l -0.336,-0.332 c -0.054,-0.11 -0.207,-0.379 -0.351,-0.797 -0.149,-0.438 -0.285,-1.024 -0.285,-1.742 l 0,-104.989 c 0,-9.343 1.14,-12.289 5.769,-14.226 1.406,-0.641 2.977,-1.043 4.555,-1.305"
         style="fill:#ffffff;fill-opacity:1;fill-rule:nonzero;stroke:none"
         id="path40" /><path
         d="m 671.715,532.855 -20.582,-49.57 39.793,0 -19.211,49.57 z m -36.184,-93.281 c 0,-4.125 1.473,-6.332 5.063,-7.738 0.98,-0.398 1.988,-0.66 2.91,-0.859 l 3.008,-0.629 c 1.715,-0.418 5.058,-1.481 5.058,-5.356 0,-1.894 -1.207,-3.203 -2.515,-3.887 -1.227,-0.636 -2.739,-0.871 -4.328,-0.871 -2.914,0 -9.372,1.25 -19.372,1.25 -7.914,0 -13.953,-0.836 -17.496,-0.836 -1.91,0 -3.707,0.215 -5.125,0.86 -1.589,0.722 -2.964,2.164 -2.964,4.316 0,1.961 1.035,3.352 2.453,4.149 0.593,0.336 1.222,0.554 1.777,0.715 l 1.75,0.414 c 1.082,0.222 2.359,0.453 3.785,0.843 1.352,0.371 2.809,0.887 4.309,1.66 4.297,2.149 7.929,8.118 12.808,19.79 l 46.453,110.816 c 0.547,1.316 1.211,2.668 2.137,3.715 1.02,1.152 2.438,2.015 4.274,2.015 1.863,0 3.285,-0.89 4.324,-2.101 0.93,-1.086 1.66,-2.563 2.297,-4.055 L 732.184,447.73 c 3.562,-8.796 6.543,-13.289 10.929,-15.074 1.223,-0.527 2.5,-0.879 3.758,-1.136 1.34,-0.278 2.59,-0.45 3.66,-0.641 1.059,-0.188 2.434,-0.465 3.555,-1.102 1.398,-0.793 2.465,-2.179 2.465,-4.16 0,-1.984 -1.242,-3.355 -2.621,-4.07 -1.278,-0.664 -2.844,-0.899 -4.43,-0.899 -6.246,0 -15.203,0.836 -26.449,0.836 -8.336,0 -16.664,-1.25 -25.207,-1.25 -1.922,0 -3.735,0.215 -5.172,0.832 -1.52,0.653 -3.129,2.039 -3.129,4.344 0,2.555 2,3.789 3.328,4.336 1.363,0.559 3.227,0.918 5.184,1.227 8.156,1.074 8.984,2.925 8.984,4.644 0,1.453 -0.535,6.11 -2.934,12.301 l -8.878,23.559 -48.754,0 -8.434,-21.086 c -1.793,-4.582 -2.508,-8.371 -2.508,-10.817"
         style="fill:#ffffff;fill-opacity:1;fill-rule:evenodd;stroke:none"
         id="path42" /><path
         d="m 1043.03,308.531 c -1.49,0.719 -1.87,1.598 -1.87,5.672 l 0,13.817 c 5.48,8.328 9.53,15.156 12.52,20.293 l 3.75,6.46 c 1.01,1.715 1.73,2.848 2.23,3.481 1.41,1.789 2.84,2.391 3.99,2.734 0.75,0.227 1.39,0.371 1.83,0.551 0.66,0.27 1.8,0.945 1.8,2.465 0,1.992 -2.02,2.562 -3.01,2.562 -0.46,0 -2.98,-0.453 -7.59,-0.453 -4.16,0 -6.97,0.364 -8.14,0.364 -0.75,0 -1.56,-0.102 -2.25,-0.469 -0.81,-0.438 -1.4,-1.238 -1.4,-2.278 0,-1.882 1.61,-2.472 2.34,-2.667 0.65,-0.172 1.61,-0.293 2.81,-0.575 0.71,-0.144 1.09,-0.34 1.09,-1.726 0,-1.594 -1.18,-4.426 -3.9,-9.192 -2.3,-4.062 -5.48,-9.172 -9.32,-15.515 l -10.6,20.488 c -1.41,2.742 -1.78,4.492 -1.78,4.852 0,0.492 0.24,1.25 2.31,1.628 l 2.01,0.129 c 0.92,0.071 2.63,0.559 2.63,2.668 0,1.086 -0.54,2.043 -1.63,2.5 -0.74,0.309 -1.64,0.336 -2.37,0.336 -2.35,0 -6.6,-0.363 -12.84,-0.363 -4.6,0 -7.41,0.273 -8.4,0.273 -0.72,0 -1.58,-0.058 -2.3,-0.41 -0.96,-0.461 -1.53,-1.347 -1.53,-2.426 0,-1.773 1.3,-2.519 2.28,-2.796 0.64,-0.18 1.57,-0.266 2.69,-0.461 0.82,-0.137 1.37,-0.493 1.98,-1.246 0.33,-0.411 0.66,-0.926 1.04,-1.586 l 1.28,-2.301 15.41,-27.875 0,-13.262 c 0,-4.078 -0.38,-4.953 -1.87,-5.672 -0.41,-0.207 -0.92,-0.351 -1.51,-0.453 l -1.82,-0.226 c -1.28,-0.207 -1.64,-0.301 -2.01,-0.465 -0.83,-0.379 -1.65,-1.184 -1.65,-2.492 0,-2.43 2.47,-2.836 3.56,-2.836 0.72,0 4.6,0.453 11.84,0.453 7.23,0 11.11,-0.453 11.83,-0.453 1.24,0 3.47,0.496 3.47,2.836 0,1.281 -0.79,2.093 -1.63,2.488 l -1.98,0.469 -1.8,0.226 c -0.57,0.102 -1.08,0.246 -1.49,0.453"
         style="fill:#ffffff;fill-opacity:1;fill-rule:nonzero;stroke:none"
         id="path44" /><path
         d="m 969.395,308.566 c -1.641,0.688 -2.153,1.594 -2.153,5.637 l 0,45.551 c 1.684,0.953 2.43,0.965 3.313,0.965 l 1.539,0 c 4.394,0 7.886,0.008 10.582,-0.43 2.539,-0.414 3.89,-1.176 4.707,-2.379 0.82,-1.203 1.121,-2.715 1.363,-4.238 l 0.422,-2.137 c 0.164,-0.508 0.742,-2.023 2.445,-2.023 1.02,0 1.985,0.519 2.371,1.629 l 0.192,1.746 0,10.211 c 0,2.961 -1.715,3.918 -4.371,3.918 -1.535,0 -11.207,-0.629 -29.102,-0.629 -17.894,0 -27.562,0.629 -29.101,0.629 -2.547,0 -4.457,-0.871 -4.457,-3.918 l 0,-10.211 c 0.062,-1.129 0.121,-1.5 0.285,-1.875 0.449,-1.032 1.386,-1.5 2.363,-1.5 1.727,0 2.289,1.547 2.437,2.051 0.165,0.531 0.27,1.273 0.391,2.136 0.215,1.516 0.492,3.012 1.309,4.196 1.597,2.3 5.074,2.824 13.308,2.824 l 3.617,0 c 0.852,0 1.579,-0.016 2.184,-0.074 1.055,-0.243 1.125,-0.407 1.125,-0.891 l 0,-45.551 c 0,-4.043 -0.508,-4.949 -2.148,-5.637 -0.547,-0.246 -1.184,-0.418 -1.836,-0.523 -0.711,-0.117 -1.391,-0.168 -1.981,-0.227 -1.32,-0.179 -1.695,-0.265 -2.062,-0.421 -0.852,-0.352 -1.735,-1.145 -1.735,-2.5 0,-2.223 2.192,-2.836 3.559,-2.836 0.723,0 4.973,0.453 12.742,0.453 7.774,0 11.934,-0.453 12.652,-0.453 1.227,0 3.649,0.523 3.649,2.836 0,1.351 -0.879,2.148 -1.731,2.5 l -2.062,0.421 c -0.59,0.059 -1.273,0.11 -1.981,0.227 -0.656,0.105 -1.289,0.273 -1.835,0.523"
         style="fill:#ffffff;fill-opacity:1;fill-rule:nonzero;stroke:none"
         id="path46" /><path
         d="m 910.051,308.555 c -1.594,0.687 -2.16,1.644 -2.16,5.64 l 0,40.672 c 0,4.293 0.726,5.196 2.347,5.637 1.403,0.383 2.809,0.48 3.86,0.621 0.543,0.066 1.226,0.172 1.797,0.402 0.578,0.231 1.664,0.879 1.664,2.286 0,1.046 -0.704,1.648 -1.051,1.882 -0.387,0.262 -0.813,0.41 -1.141,0.5 -0.679,0.192 -1.457,0.274 -2.086,0.274 -0.722,0 -4.789,-0.364 -11.929,-0.364 -6.872,0 -10.758,0.364 -11.75,0.364 -0.711,0 -1.547,-0.114 -2.254,-0.328 -0.344,-0.106 -0.766,-0.27 -1.149,-0.528 -0.316,-0.215 -1.058,-0.82 -1.058,-1.89 0,-1.719 1.586,-2.274 2.039,-2.41 0.656,-0.196 1.465,-0.278 2.133,-0.344 l 2.121,-0.231 c 0.683,-0.105 1.199,-0.238 1.55,-0.402 1.422,-0.656 1.918,-1.586 1.918,-5.469 l 0,-40.672 c 0,-3.918 -0.472,-4.879 -2.172,-5.648 -0.55,-0.246 -1.16,-0.402 -1.816,-0.512 -0.707,-0.113 -1.387,-0.164 -1.98,-0.222 -1.317,-0.184 -1.696,-0.27 -2.063,-0.422 -0.851,-0.356 -1.73,-1.149 -1.73,-2.508 0,-2.305 2.422,-2.832 3.648,-2.832 0.813,0 4.969,0.453 12.563,0.453 7.589,0 11.836,-0.453 12.652,-0.453 1.367,0 3.555,0.613 3.555,2.832 0,1.332 -0.84,2.133 -1.7,2.5 l -2.046,0.43 c -0.579,0.058 -1.247,0.105 -1.946,0.222 -0.644,0.106 -1.265,0.27 -1.816,0.52"
         style="fill:#ffffff;fill-opacity:1;fill-rule:nonzero;stroke:none"
         id="path48" /><path
         d="m 837.695,305.289 c 1.508,-0.937 2.328,-1.512 3.649,-2.144 2.722,-1.309 6.523,-2.618 11.562,-2.618 13.274,0 23.438,8.313 23.438,19.914 0,11.411 -7.332,16.918 -19.442,22.289 -2.074,0.915 -3.968,1.735 -5.636,2.559 -1.649,0.805 -2.989,1.574 -4.051,2.391 -2.016,1.554 -3.043,3.277 -3.043,6.023 0,4.738 3.297,8.375 9.547,8.375 5.066,0 8.98,-2.652 11.34,-7.781 0.73,-1.629 0.996,-2.957 1.289,-3.879 0.3,-0.965 0.98,-2.801 3.187,-2.801 1.219,0 2.188,0.664 2.578,1.844 0.141,0.422 0.196,0.859 0.223,1.238 l 0.031,1.285 c 0,1.809 -0.269,3.707 -0.269,5.516 0,2.801 0.269,4.789 0.269,5.965 0,1.594 -0.73,3.828 -3.012,3.828 -1.238,0 -1.988,-0.781 -2.363,-1.363 l -0.781,-1.946 c -1.106,0.704 -2.008,1.266 -3.102,1.782 -2.304,1.074 -5.488,2.16 -9.754,2.16 -11.226,0 -19.734,-7.434 -19.734,-18.02 0,-8.121 5.031,-14.668 13.418,-18.234 3.527,-1.473 6.68,-2.676 9.344,-4.016 2.594,-1.304 4.531,-2.636 5.922,-4.375 1.261,-1.629 1.957,-3.652 1.957,-6.273 0,-6.547 -4.02,-10.453 -11.356,-10.453 -6.304,0 -11.347,3.515 -13.816,10.265 -0.602,1.676 -0.785,3.133 -1.02,4.176 -0.125,0.551 -0.32,1.301 -0.742,1.918 -0.535,0.781 -1.367,1.266 -2.406,1.266 -0.77,0 -1.914,-0.231 -2.496,-1.442 -0.203,-0.425 -0.27,-0.859 -0.301,-1.175 -0.039,-3.02 0.234,-5.731 0.234,-8.985 0,-3.707 -0.453,-5.965 -0.453,-6.777 0,-1.324 0.586,-3.106 2.742,-3.106 1.106,0 1.813,0.668 2.168,1.118 l 0.879,1.476"
         style="fill:#ffffff;fill-opacity:1;fill-rule:nonzero;stroke:none"
         id="path50" /><path
         d="m 780.512,335.961 c 12.441,-0.027 16.535,3.297 16.535,12.144 0,9.184 -4.137,13.165 -13.977,13.165 -1.687,0 -2.199,-0.219 -2.347,-0.332 -0.184,-0.403 -0.243,-0.754 -0.243,-1.356 l 0.032,-23.621 z m -0.032,-5.844 0,-15.906 c 0,-4.074 0.372,-4.953 1.864,-5.672 0.414,-0.207 0.922,-0.351 1.496,-0.453 l 1.793,-0.231 1.988,-0.468 c 0.844,-0.391 1.625,-1.203 1.625,-2.485 0,-2.339 -2.234,-2.832 -3.465,-2.832 -0.722,0 -4.609,0.45 -11.84,0.45 -7.23,0 -11.117,-0.45 -11.839,-0.45 -1.231,0 -3.465,0.493 -3.465,2.832 0,1.282 0.781,2.094 1.625,2.485 0.363,0.172 0.73,0.261 1.988,0.468 l 1.793,0.231 c 0.574,0.102 1.082,0.246 1.496,0.453 1.488,0.719 1.863,1.598 1.863,5.672 l 0,40.672 c 0,3.949 -0.433,4.824 -1.824,5.469 -0.379,0.175 -0.863,0.304 -1.449,0.406 l -1.809,0.226 -1.894,0.383 c -0.617,0.227 -1.789,0.879 -1.789,2.371 0,2.328 2.363,2.746 3.465,2.746 0.453,0 2.89,-0.183 7.32,-0.183 6.418,0 12.203,0.453 17.262,0.453 15.48,0 24.254,-4.84 24.254,-17.297 0,-9.168 -5.458,-14.996 -15.157,-17.16 l 17.516,-20.504 c 1.676,-1.949 3.637,-2.965 5.308,-3.688 0.938,-0.406 1.743,-0.714 2.313,-1.011 0.328,-0.172 0.746,-0.414 1.094,-0.77 0.383,-0.386 0.765,-0.988 0.765,-1.785 0,-2.047 -2.203,-2.652 -3.285,-2.652 -0.453,0 -2.785,0.363 -7.121,0.363 l -4.246,-0.09 c -1.922,0 -3.707,0.086 -5.344,2.137 l -19.531,24.504 c -0.836,1.074 -1.355,1.293 -2.77,1.316"
         style="fill:#ffffff;fill-opacity:1;fill-rule:evenodd;stroke:none"
         id="path52" /><path
         d="m 717.102,332.832 c 6.449,-0.023 9.121,-1.215 10.503,-4.18 0.293,-0.621 0.493,-1.211 0.641,-1.746 l 0.375,-1.551 c 0.266,-0.98 0.367,-1.273 0.524,-1.558 0.355,-0.652 1.066,-1.356 2.207,-1.356 2.168,0 2.832,2.11 2.832,3.461 0,1.539 -0.543,5.336 -0.543,11.481 0,4.609 0.453,7.863 0.453,9.672 0,1.343 -0.629,3.375 -2.922,3.375 -1.426,0 -2.164,-1 -2.484,-1.746 l -0.504,-2.032 c -0.106,-0.609 -0.219,-1.308 -0.414,-2.043 -0.188,-0.679 -0.426,-1.324 -0.793,-1.929 -1.622,-2.621 -4.067,-3.547 -9.875,-3.973 l 0,18.832 c 0,1.211 0.039,1.934 0.246,2.715 0.054,0.039 0.312,0.168 1.168,0.246 0.886,0.078 2.035,0.082 3.527,0.082 9.52,0 13.629,-0.613 15.707,-3.934 0.348,-0.546 0.574,-1.128 0.73,-1.722 0.176,-0.656 0.258,-1.274 0.34,-1.809 0.231,-1.238 0.332,-1.609 0.504,-1.965 0.426,-0.882 1.262,-1.597 2.512,-1.597 2.352,0 2.832,2.023 2.832,3.285 0,0.902 -0.363,2.437 -0.363,4.699 0,2.531 0.273,4.066 0.273,4.883 0,1.691 -0.746,3.039 -2.484,3.609 -0.66,0.219 -1.406,0.305 -2.145,0.348 l -2.633,0.051 -1.988,0 c -8.496,0 -15.816,-0.274 -22.324,-0.274 -8.492,0 -13.285,0.36 -14.191,0.36 -1.098,0 -3.465,-0.414 -3.465,-2.743 0,-1.488 1.175,-2.148 1.789,-2.371 l 1.898,-0.379 1.809,-0.23 c 0.586,-0.098 1.066,-0.227 1.445,-0.402 1.391,-0.645 1.828,-1.524 1.828,-5.473 l 0,-40.672 c 0,-4.074 -0.375,-4.949 -1.867,-5.672 -0.41,-0.207 -0.918,-0.351 -1.492,-0.453 l -1.797,-0.226 c -1.258,-0.207 -1.625,-0.305 -1.984,-0.473 -0.844,-0.391 -1.629,-1.207 -1.629,-2.488 0,-2.336 2.238,-2.832 3.465,-2.832 0.726,0 4.609,0.457 11.839,0.457 20.7,0 31.817,-0.457 33.532,-0.457 3.746,0 4.824,0.941 4.824,4.371 0,3.164 0.359,6.234 0.359,9.129 l -0.031,1.343 c -0.027,0.399 -0.078,0.84 -0.207,1.266 -0.348,1.129 -1.254,1.941 -2.594,1.941 -1.137,0 -1.945,-0.605 -2.402,-1.422 l -0.59,-1.816 c -0.117,-0.512 -0.242,-1.129 -0.465,-1.812 -0.203,-0.645 -0.488,-1.348 -0.93,-2.09 -2.066,-3.489 -5.679,-4.699 -13.597,-4.699 -11.164,0 -11.449,1.765 -11.449,11.355 l 0,13.164"
         style="fill:#ffffff;fill-opacity:1;fill-rule:nonzero;stroke:none"
         id="path54" /><path
         d="m 661.648,336.254 -7.14,-17.453 -11.117,30.762 c -1.965,5.421 -2.871,8.281 -2.871,9.496 0,0.789 0.046,1.39 2.554,1.703 1.078,0.144 1.946,0.207 2.535,0.355 0.891,0.223 2.227,0.899 2.227,2.641 0,2.297 -2.219,2.652 -3.191,2.652 -0.727,0 -4.879,-0.453 -12.653,-0.453 -6.597,0 -10.035,0.547 -10.668,0.547 -0.625,0 -1.41,-0.066 -2.094,-0.438 -0.871,-0.472 -1.371,-1.324 -1.371,-2.308 0,-0.969 0.5,-1.707 1.184,-2.153 0.527,-0.343 1.156,-0.503 1.605,-0.605 0.856,-0.187 2.094,-0.336 3.649,-0.738 0.793,-0.211 1.476,-0.785 2.308,-2.395 0.903,-1.75 1.708,-4.152 2.852,-7.144 l 17.168,-45.184 c 0.496,-1.34 1.074,-2.414 1.68,-3.203 0.48,-0.613 1.394,-1.606 2.664,-1.606 1.133,0 1.984,0.661 2.547,1.247 0.586,0.613 1.132,1.441 1.66,2.386 1.019,1.836 2.211,4.571 3.648,8.188 l 15.27,38.047 c 2.64,6.504 4.269,9.234 6.324,9.98 l 2.242,0.391 c 0.371,0.058 1.008,0.172 1.563,0.515 0.73,0.454 1.211,1.223 1.211,2.184 0,2.328 -2.364,2.742 -3.465,2.742 -1.176,0 -3.887,-0.453 -8.223,-0.453 -4.519,0 -7.504,0.453 -8.769,0.453 -1.09,0 -3.375,-0.461 -3.375,-2.742 0,-0.98 0.543,-1.703 1.246,-2.098 0.511,-0.285 1.105,-0.394 1.496,-0.461 0.777,-0.132 1.965,-0.246 3.504,-0.597 0.746,-0.149 1.347,-0.657 1.347,-2.086 0,-1.809 -2.238,-9.078 -7.547,-22.172"
         style="fill:#ffffff;fill-opacity:1;fill-rule:nonzero;stroke:none"
         id="path56" /><path
         d="m 601.07,308.598 c -1.593,0.687 -2.16,1.64 -2.16,5.64 l 0,40.668 c 0,4.293 0.727,5.199 2.348,5.641 1.402,0.383 2.808,0.48 3.855,0.617 0.543,0.07 1.231,0.176 1.801,0.402 0.574,0.235 1.664,0.883 1.664,2.289 0,1.047 -0.703,1.649 -1.055,1.883 -0.382,0.262 -0.808,0.41 -1.136,0.5 -0.68,0.188 -1.457,0.27 -2.086,0.27 -0.723,0 -4.789,-0.36 -11.934,-0.36 -6.867,0 -10.754,0.36 -11.746,0.36 -0.711,0 -1.543,-0.11 -2.254,-0.324 -0.344,-0.106 -0.769,-0.27 -1.148,-0.528 -0.317,-0.215 -1.059,-0.82 -1.059,-1.886 0,-1.719 1.586,-2.278 2.039,-2.415 0.653,-0.195 1.465,-0.281 2.133,-0.347 l 2.121,-0.227 c 0.684,-0.105 1.199,-0.238 1.555,-0.402 1.418,-0.656 1.914,-1.586 1.914,-5.473 l 0,-40.668 c 0,-3.918 -0.473,-4.879 -2.172,-5.648 -0.551,-0.25 -1.16,-0.406 -1.816,-0.512 -0.707,-0.117 -1.387,-0.168 -1.981,-0.226 -1.316,-0.184 -1.695,-0.27 -2.062,-0.418 -0.852,-0.36 -1.731,-1.153 -1.731,-2.508 0,-2.309 2.426,-2.832 3.649,-2.832 0.812,0 4.968,0.449 12.558,0.449 7.594,0 11.844,-0.449 12.656,-0.449 1.364,0 3.555,0.613 3.555,2.832 0,1.328 -0.84,2.133 -1.699,2.5 l -2.047,0.426 c -0.578,0.058 -1.25,0.109 -1.949,0.226 -0.645,0.106 -1.266,0.266 -1.813,0.52"
         style="fill:#ffffff;fill-opacity:1;fill-rule:nonzero;stroke:none"
         id="path58" /><path
         d="m 516.512,308.426 c -2.321,1.191 -2.797,2.672 -2.797,7.222 l 0,34.094 37.117,-46.176 c 0.488,-0.621 1.051,-1.312 1.707,-1.843 0.703,-0.567 1.594,-1.02 2.715,-1.02 1.281,0 2.355,0.61 2.883,1.813 0.207,0.472 0.297,0.964 0.343,1.39 l 0.059,1.348 0,48.445 c 0,4.41 0.434,5.621 2.09,6.508 0.43,0.223 0.906,0.379 1.445,0.504 l 1.637,0.305 c 1.113,0.234 1.437,0.324 1.75,0.468 0.68,0.317 1.574,1.032 1.574,2.336 0,1.051 -0.605,1.836 -1.383,2.243 -0.648,0.335 -1.382,0.414 -1.992,0.414 -1.445,0 -3.797,-0.274 -7.32,-0.274 -4.16,0 -7.32,0.453 -9.492,0.453 -1.09,0 -3.375,-0.465 -3.375,-2.746 0,-1.676 1.59,-2.738 2.836,-2.738 4.273,0 5.75,-1.703 5.75,-7.383 l 0,-31.902 -33.762,42.246 c -1.176,1.57 -2.707,2.254 -4.527,2.254 -1.625,0 -3.34,-0.184 -5.149,-0.184 -3.164,0 -5.336,0.363 -6.598,0.363 -0.859,0 -1.734,-0.062 -2.457,-0.324 -0.785,-0.285 -1.824,-1.015 -1.824,-2.422 0,-0.945 0.461,-1.695 1.141,-2.16 0.539,-0.371 1.164,-0.519 1.57,-0.601 0.695,-0.141 1.606,-0.192 2.5,-0.45 1.856,-0.546 3.078,-1.351 4.367,-3.218 l 0,-41.653 c 0,-4.722 -0.461,-6.125 -2.144,-7.082 -0.383,-0.218 -0.848,-0.383 -1.375,-0.511 -0.578,-0.145 -1.149,-0.223 -1.653,-0.309 -1.148,-0.234 -1.48,-0.324 -1.808,-0.473 -0.703,-0.324 -1.602,-1.054 -1.602,-2.379 0,-1.23 0.844,-1.992 1.559,-2.347 0.711,-0.356 1.566,-0.489 2.449,-0.489 2.078,0 4.609,0.274 7.41,0.274 4.699,0 7.504,-0.363 8.403,-0.363 0.757,0 1.589,0.101 2.293,0.48 0.832,0.441 1.445,1.27 1.445,2.356 0,1.023 -0.5,1.851 -1.336,2.324 l -1.707,0.508 -1.41,0.234 c -0.457,0.098 -0.903,0.242 -1.332,0.465"
         style="fill:#ffffff;fill-opacity:1;fill-rule:nonzero;stroke:none"
         id="path60" /><path
         d="m 426.453,360.348 c 1.422,-0.66 1.918,-1.59 1.918,-5.473 l 0,-32.988 c 0,-14.227 8.727,-21.184 24.883,-21.184 19.5,0 26.695,8.649 26.695,28.145 l 0,26.027 c 0,4.352 0.672,5.203 2.262,5.637 1.41,0.386 2.633,0.484 3.5,0.625 0.445,0.07 1.09,0.183 1.637,0.472 0.707,0.375 1.367,1.11 1.367,2.211 0,1.18 -0.762,1.926 -1.485,2.27 -0.64,0.308 -1.363,0.387 -1.98,0.387 -1.535,0 -4.246,-0.364 -7.953,-0.364 -3.977,0 -6.961,0.364 -8.856,0.364 -0.711,0 -1.476,-0.114 -2.136,-0.469 -0.715,-0.383 -1.422,-1.145 -1.422,-2.278 0,-1.488 1.176,-2.148 1.789,-2.375 l 1.894,-0.375 1.813,-0.23 c 0.582,-0.102 1.066,-0.23 1.445,-0.402 1.422,-0.66 1.918,-1.59 1.918,-5.473 l 0,-28.293 c 0,-13.293 -5.347,-18.945 -17.683,-18.945 -10.368,0 -14.7,4.59 -14.7,15.511 l 0,31.727 c 0,4.289 0.731,5.195 2.348,5.637 1.418,0.386 2.617,0.484 3.465,0.625 0.433,0.074 1.074,0.191 1.621,0.484 0.719,0.395 1.332,1.137 1.332,2.199 0,1.051 -0.605,1.836 -1.383,2.243 -0.648,0.335 -1.383,0.414 -1.992,0.414 -0.723,0 -4.793,-0.364 -11.93,-0.364 -6.867,0 -10.757,0.364 -11.75,0.364 -0.707,0 -1.472,-0.114 -2.136,-0.469 -0.711,-0.383 -1.418,-1.145 -1.418,-2.278 0,-1.488 1.172,-2.148 1.789,-2.375 l 1.894,-0.375 1.809,-0.23 c 0.586,-0.102 1.07,-0.23 1.445,-0.402"
         style="fill:#ffffff;fill-opacity:1;fill-rule:nonzero;stroke:none"
         id="path62" /><path
         d="m 302.281,528.234 c 1.004,-0.82 5.371,-0.234 10.41,1.637 5.039,1.871 11.645,-0.351 11.645,-0.351"
         style="fill:none;stroke:#1a68bb;stroke-opacity:1;stroke-width:4.019;stroke-linecap:round;stroke-linejoin:round;stroke-miterlimit:3.86369;stroke-dasharray:none"
         id="path64" /><path
         d="m 302.281,517.809 c 1.004,-0.817 5.332,-0.231 10.465,1.32 5.375,1.605 11.813,-0.738 11.813,-0.738"
         style="fill:none;stroke:#1a68bb;stroke-opacity:1;stroke-width:4.019;stroke-linecap:round;stroke-linejoin:round;stroke-miterlimit:3.86369;stroke-dasharray:none"
         id="path66" /><path
         d="m 302.281,507.566 c 1.004,-0.816 5.293,-0.23 10.524,1 5.711,1.352 11.98,-1.121 11.98,-1.121"
         style="fill:none;stroke:#1a68bb;stroke-opacity:1;stroke-width:4.019;stroke-linecap:round;stroke-linejoin:round;stroke-miterlimit:3.86369;stroke-dasharray:none"
         id="path68" /><path
         d="m 356.785,528.594 c -1.008,-0.821 -5.375,-0.235 -10.414,1.636 -5.039,1.872 -11.644,-0.351 -11.644,-0.351"
         style="fill:none;stroke:#1a68bb;stroke-opacity:1;stroke-width:4.019;stroke-linecap:round;stroke-linejoin:round;stroke-miterlimit:3.86369;stroke-dasharray:none"
         id="path70" /><path
         d="m 356.785,518.168 c -1.008,-0.82 -5.336,-0.234 -10.472,1.316 -5.372,1.614 -11.809,-0.734 -11.809,-0.734"
         style="fill:none;stroke:#1a68bb;stroke-opacity:1;stroke-width:4.019;stroke-linecap:round;stroke-linejoin:round;stroke-miterlimit:3.86369;stroke-dasharray:none"
         id="path72" /><path
         d="m 356.785,507.926 c -1.008,-0.817 -5.297,-0.231 -10.527,1 -5.707,1.351 -11.977,-1.121 -11.977,-1.121"
         style="fill:none;stroke:#1a68bb;stroke-opacity:1;stroke-width:4.019;stroke-linecap:round;stroke-linejoin:round;stroke-miterlimit:3.86369;stroke-dasharray:none"
         id="path74" /><path
         d="m 349.672,446.93 c 0,0 -2.715,2.351 -0.863,4.461 0.839,0.957 4.691,3.964 4.691,7.683 0,3.719 -3.086,6.196 -5.434,7.063 -2.343,0.867 -3.949,2.355 -4.445,3.965 -0.492,-1.61 -2.098,-3.098 -4.441,-3.965 -2.348,-0.867 -5.434,-3.344 -5.434,-7.063 0,-3.719 3.848,-6.726 4.692,-7.683 1.851,-2.11 -0.868,-4.461 -0.868,-4.461 0,0 -3.132,-1.91 -4.558,0.504 -0.645,1.101 -2.309,5.707 -5.832,6.855 -3.524,1.145 -6.825,-1.035 -8.371,-3.004 -1.547,-1.969 -3.454,-3.043 -5.133,-3.015 1.375,-0.973 2.285,-2.961 2.383,-5.469 0.097,-2.508 1.496,-6.219 5.015,-7.367 3.524,-1.149 7.567,1.597 8.731,2.105 2.57,1.113 3.988,-2.281 3.988,-2.281 0,0 0.82,-3.508 -1.914,-4.121 -1.238,-0.278 -6.117,-0.438 -8.297,-3.446 -2.176,-3.007 -1.129,-6.832 0.258,-8.918 1.39,-2.085 1.816,-4.238 1.273,-5.832 1.344,1.016 3.512,1.27 5.918,0.586 2.41,-0.679 6.356,-0.496 8.535,2.512 2.176,3.008 0.825,7.711 0.704,8.981 -0.266,2.796 3.312,3.101 3.312,3.101 0,0 3.656,-0.305 3.395,-3.101 -0.122,-1.27 -1.477,-5.973 0.703,-8.981 2.175,-3.008 6.125,-3.191 8.531,-2.512 2.406,0.684 4.574,0.426 5.918,-0.586 -0.543,1.594 -0.117,3.747 1.273,5.832 1.391,2.086 2.438,5.911 0.258,8.918 -2.176,3.004 -7.055,3.168 -8.293,3.446 -2.734,0.613 -1.914,4.121 -1.914,4.121 0,0 1.414,3.394 3.985,2.281 1.167,-0.508 5.207,-3.258 8.73,-2.105 3.523,1.148 4.918,4.859 5.016,7.363 0.097,2.508 1.011,4.5 2.382,5.469 -1.675,-0.024 -3.582,1.05 -5.128,3.019 -1.547,1.969 -4.852,4.149 -8.375,3.004 -3.52,-1.152 -5.184,-5.754 -5.829,-6.855 -1.425,-2.414 -4.496,-0.551 -4.496,-0.551 l -0.066,0.047 z m -78.25,31.273 116.316,0 c 0,-30.422 -5.23,-55.769 -13.074,-75.156 l -103.242,0 0,25.121 3.808,-0.07 c 0,0 3.563,-0.305 3.297,-3.098 -0.121,-1.27 -1.472,-5.977 0.703,-8.984 2.18,-3.008 6.125,-3.192 8.532,-2.508 2.406,0.68 4.578,0.422 5.918,-0.586 -0.543,1.594 -0.114,3.742 1.273,5.828 1.391,2.086 2.438,5.91 0.262,8.918 -2.18,3.008 -7.055,3.168 -8.297,3.449 -2.734,0.61 -1.914,4.117 -1.914,4.117 0,0 1.418,3.399 3.984,2.278 1.168,-0.504 5.211,-3.254 8.731,-2.102 3.523,1.149 4.922,4.863 5.019,7.367 0.094,2.508 1.008,4.496 2.383,5.465 -1.68,-0.023 -3.586,1.047 -5.133,3.02 -1.547,1.972 -4.847,4.152 -8.371,3 -3.523,-1.145 -5.187,-5.75 -5.832,-6.848 -1.426,-2.418 -4.492,-0.555 -4.492,-0.555 -0.07,0.047 -2.785,2.403 -0.934,4.508 0.844,0.957 4.692,3.965 4.692,7.684 0,3.715 -3.082,6.195 -5.43,7.062 -2.348,0.867 -4.641,2.258 -5.137,3.867 l -3.062,0.043 0,8.18"
         style="fill:#b3c2e8;fill-opacity:1;fill-rule:evenodd;stroke:none"
         id="path76" /><path
         d="m 349.672,446.93 c 0,0 -2.715,2.351 -0.863,4.461 0.839,0.957 4.691,3.964 4.691,7.683 0,3.719 -3.086,6.196 -5.434,7.063 -2.343,0.867 -3.949,2.355 -4.445,3.965 -0.492,-1.61 -2.098,-3.098 -4.441,-3.965 -2.348,-0.867 -5.434,-3.344 -5.434,-7.063 0,-3.719 3.848,-6.726 4.692,-7.683 1.851,-2.11 -0.868,-4.461 -0.868,-4.461 0,0 -3.132,-1.91 -4.558,0.504 -0.645,1.101 -2.309,5.707 -5.832,6.855 -3.524,1.145 -6.825,-1.035 -8.371,-3.004 -1.547,-1.969 -3.454,-3.043 -5.133,-3.015 1.375,-0.973 2.285,-2.961 2.383,-5.469 0.097,-2.508 1.496,-6.219 5.015,-7.367 3.524,-1.149 7.567,1.597 8.731,2.105 2.57,1.113 3.988,-2.281 3.988,-2.281 0,0 0.82,-3.508 -1.914,-4.121 -1.238,-0.278 -6.117,-0.438 -8.297,-3.446 -2.176,-3.007 -1.129,-6.832 0.258,-8.918 1.39,-2.085 1.816,-4.238 1.273,-5.832 1.344,1.016 3.512,1.27 5.918,0.586 2.41,-0.679 6.356,-0.496 8.535,2.512 2.176,3.008 0.825,7.711 0.704,8.981 -0.266,2.796 3.312,3.101 3.312,3.101 0,0 3.656,-0.305 3.395,-3.101 -0.122,-1.27 -1.477,-5.973 0.703,-8.981 2.175,-3.008 6.125,-3.191 8.531,-2.512 2.406,0.684 4.574,0.426 5.918,-0.586 -0.543,1.594 -0.117,3.747 1.273,5.832 1.391,2.086 2.438,5.911 0.258,8.918 -2.176,3.004 -7.055,3.168 -8.293,3.446 -2.734,0.613 -1.914,4.121 -1.914,4.121 0,0 1.414,3.394 3.985,2.281 1.167,-0.508 5.207,-3.258 8.73,-2.105 3.523,1.148 4.918,4.859 5.016,7.363 0.097,2.508 1.011,4.5 2.382,5.469 -1.675,-0.024 -3.582,1.05 -5.128,3.019 -1.547,1.969 -4.852,4.149 -8.375,3.004 -3.52,-1.152 -5.184,-5.754 -5.829,-6.855 -1.425,-2.414 -4.496,-0.551 -4.496,-0.551 l -0.066,0.047 z"
         style="fill:none;stroke:#b3c2e8;stroke-opacity:1;stroke-width:0.947;stroke-linecap:butt;stroke-linejoin:miter;stroke-miterlimit:3.86371;stroke-dasharray:none"
         id="path78" /><path
         d="m 271.422,478.203 116.316,0 c 0,-30.422 -5.23,-55.769 -13.074,-75.156 l -103.242,0 0,25.121 3.808,-0.07 c 0,0 3.563,-0.305 3.297,-3.098 -0.121,-1.27 -1.472,-5.977 0.703,-8.984 2.18,-3.008 6.125,-3.192 8.532,-2.508 2.406,0.68 4.578,0.422 5.918,-0.586 -0.543,1.594 -0.114,3.742 1.273,5.828 1.391,2.086 2.438,5.91 0.262,8.918 -2.18,3.008 -7.055,3.168 -8.297,3.449 -2.734,0.61 -1.914,4.117 -1.914,4.117 0,0 1.418,3.399 3.984,2.278 1.168,-0.504 5.211,-3.254 8.731,-2.102 3.523,1.149 4.922,4.863 5.019,7.367 0.094,2.508 1.008,4.496 2.383,5.465 -1.68,-0.023 -3.586,1.047 -5.133,3.02 -1.547,1.972 -4.847,4.152 -8.371,3 -3.523,-1.145 -5.187,-5.75 -5.832,-6.848 -1.426,-2.418 -4.492,-0.555 -4.492,-0.555 -0.07,0.047 -2.785,2.403 -0.934,4.508 0.844,0.957 4.692,3.965 4.692,7.684 0,3.715 -3.082,6.195 -5.43,7.062 -2.348,0.867 -4.641,2.258 -5.137,3.867 l -3.062,0.043 0,8.18 z"
         style="fill:none;stroke:#b3c2e8;stroke-opacity:1;stroke-width:0.947;stroke-linecap:butt;stroke-linejoin:miter;stroke-miterlimit:3.86371;stroke-dasharray:none"
         id="path80" /><path
         d="m 158.602,437.191 c 8.015,0 26.503,0 26.503,0 -0.066,-0.765 0.133,-1.925 1.954,-3.293 -1.75,-0.699 -5.735,-3.085 -6.27,-7.558 -0.516,-4.324 5.465,-7.266 9.789,-2.238 2.176,2.445 1.965,2.238 1.965,2.238 0,0 0.582,-7.52 4.547,-7.656 4.101,-0.141 6.765,4.375 7.254,7.711 0.215,-1.793 1.785,-4.024 6.207,-5.004 -3.09,-1.692 -3.676,-1.762 -5.899,-2.871 -6.738,-3.348 -5.789,-11.641 0.196,-11.735 -11.996,0 -37.965,0.016 -37.965,0.016 -4.375,12.515 -7.82,25.582 -8.281,30.39"
         style="fill:#b3c2e8;fill-opacity:1;fill-rule:nonzero;stroke:none"
         id="path82" /><path
         d="m 158.602,437.191 c 8.015,0 26.503,0 26.503,0 -0.066,-0.765 0.133,-1.925 1.954,-3.293 -1.75,-0.699 -5.735,-3.085 -6.27,-7.558 -0.516,-4.324 5.465,-7.266 9.789,-2.238 2.176,2.445 1.965,2.238 1.965,2.238 0,0 0.582,-7.52 4.547,-7.656 4.101,-0.141 6.765,4.375 7.254,7.711 0.215,-1.793 1.785,-4.024 6.207,-5.004 -3.09,-1.692 -3.676,-1.762 -5.899,-2.871 -6.738,-3.348 -5.789,-11.641 0.196,-11.735 -11.996,0 -37.965,0.016 -37.965,0.016 -4.375,12.515 -7.82,25.582 -8.281,30.39 z"
         style="fill:none;stroke:#b3c2e8;stroke-opacity:1;stroke-width:0.947;stroke-linecap:butt;stroke-linejoin:miter;stroke-miterlimit:3.86371;stroke-dasharray:none"
         id="path84" /><path
         d="m 154.777,512.109 44.887,0 c -1.277,-0.562 -3.379,-3.777 -1.848,-8.863 1.372,-4.543 2.055,-5.988 2.055,-5.988 -4.594,0.953 -10.152,-6.414 -2.422,-12.469 1.899,-1.488 3.684,-2.113 4.606,-2.59 -0.926,-0.168 -1.996,-0.371 -1.996,-0.371 l -11.246,0 c -0.879,2.383 -6.735,4.742 -9.379,0.027 -3.981,0 -24.657,-0.027 -24.657,-0.027 l 0,30.281"
         style="fill:#b3c2e8;fill-opacity:1;fill-rule:nonzero;stroke:none"
         id="path86" /><path
         d="m 154.777,512.109 44.887,0 c -1.277,-0.562 -3.379,-3.777 -1.848,-8.863 1.372,-4.543 2.055,-5.988 2.055,-5.988 -4.594,0.953 -10.152,-6.414 -2.422,-12.469 1.899,-1.488 3.684,-2.113 4.606,-2.59 -0.926,-0.168 -1.996,-0.371 -1.996,-0.371 l -11.246,0 c -0.879,2.383 -6.735,4.742 -9.379,0.027 -3.981,0 -24.657,-0.027 -24.657,-0.027 l 0,30.281 z"
         style="fill:none;stroke:#b3c2e8;stroke-opacity:1;stroke-width:0.947;stroke-linecap:butt;stroke-linejoin:miter;stroke-miterlimit:3.86371;stroke-dasharray:none"
         id="path88" /><path
         d="m 271.055,344.629 0,-39.434 c -12.524,4.25 -48.684,15.676 -80.348,56.559 27.727,0 59.781,0 59.781,0 -3.406,-2.481 -10.386,-4.988 -15.621,-8.785 -3.574,-2.594 -5.023,-8.684 -5.429,-9.969 4.816,4.297 7.277,5.91 13.105,5.91 5.824,0 7.598,-0.035 15.156,6.891 -0.855,-2.668 -2.719,-5 -4.765,-7.36 -2.051,-2.363 -7.911,-10.14 -4.879,-21.343 2.988,5.511 5.55,13.527 12.902,16.535 4.707,1.93 10.098,0.996 10.098,0.996"
         style="fill:#b3c2e8;fill-opacity:1;fill-rule:nonzero;stroke:none"
         id="path90" /><path
         d="m 271.055,344.629 0,-39.434 c -12.524,4.25 -48.684,15.676 -80.348,56.559 27.727,0 59.781,0 59.781,0 -3.406,-2.481 -10.386,-4.988 -15.621,-8.785 -3.574,-2.594 -5.023,-8.684 -5.429,-9.969 4.816,4.297 7.277,5.91 13.105,5.91 5.824,0 7.598,-0.035 15.156,6.891 -0.855,-2.668 -2.719,-5 -4.765,-7.36 -2.051,-2.363 -7.911,-10.14 -4.879,-21.343 2.988,5.511 5.55,13.527 12.902,16.535 4.707,1.93 10.098,0.996 10.098,0.996 z"
         style="fill:none;stroke:#b3c2e8;stroke-opacity:1;stroke-width:0.947;stroke-linecap:butt;stroke-linejoin:miter;stroke-miterlimit:3.86371;stroke-dasharray:none"
         id="path92" /><path
         d="m 224.512,406.73 c 4.668,0 35.929,0 35.929,0 -1.57,7.918 -1.535,12.981 -9.675,20.024 -2.223,-0.102 -6.707,-0.754 -8.739,-2.582 -2.035,-1.836 -3.285,-6.043 -4.547,-10.277 -1.257,-4.239 -6.488,-6.375 -10.82,-1.344 -1.75,-0.903 -1.84,-4.188 -2.148,-5.821"
         style="fill:#b3c2e8;fill-opacity:1;fill-rule:nonzero;stroke:none"
         id="path94" /><path
         d="m 224.512,406.73 c 4.668,0 35.929,0 35.929,0 -1.57,7.918 -1.535,12.981 -9.675,20.024 -2.223,-0.102 -6.707,-0.754 -8.739,-2.582 -2.035,-1.836 -3.285,-6.043 -4.547,-10.277 -1.257,-4.239 -6.488,-6.375 -10.82,-1.344 -1.75,-0.903 -1.84,-4.188 -2.148,-5.821 z"
         style="fill:none;stroke:#b3c2e8;stroke-opacity:1;stroke-width:0.947;stroke-linecap:butt;stroke-linejoin:miter;stroke-miterlimit:3.86371;stroke-dasharray:none"
         id="path96" /><path
         d="m 271.188,553.664 -116.731,0 0,-75.25 c 0,-143.047 116.57,-173.273 116.57,-173.273 0,0 116.891,30.226 116.891,173.273 l 0,75.25 -116.73,0 0,0 z"
         style="fill:none;stroke:#1a68bb;stroke-opacity:1;stroke-width:7.626;stroke-linecap:butt;stroke-linejoin:miter;stroke-miterlimit:3.86369;stroke-dasharray:none"
         id="path98" /><path
         d="m 224.324,506.348 c -3.851,-0.614 -8.109,0.343 -8.707,-4.223 -3.359,1.539 -5.566,-0.465 -6.625,-1.57 0.156,2.453 -0.043,5.929 -1.543,9.488 -1.258,3.203 -4.668,3.082 -6.406,2.656 -0.996,1.055 -1.801,1.883 -2.074,3.492 -0.528,3.086 1.125,5.762 4.117,5.762 1,0 4.242,-2.066 4.867,-2.379 -1.246,2.125 -2.121,4.129 -2.121,6.387 0,4.195 2.059,7.637 5.738,7.637 3.434,0 5.243,-3.129 4.493,-7.637 2.496,1.875 3.367,2.543 4.371,2.629 1.476,0.121 2.675,-0.367 3.484,-1.246 -0.578,-0.957 -1.188,-2.313 -1.188,-3.864 0,-2.003 0.254,-2.941 0.829,-4.503 -1.426,0.605 -3.746,1.66 -5.168,0.226 -0.692,-0.695 -0.758,-1.355 -1.016,-2.305 -1.289,-4.757 6.949,-10.55 6.949,-10.55 z"
         style="fill:none;stroke:#1a68bb;stroke-opacity:1;stroke-width:4.019;stroke-linecap:round;stroke-linejoin:round;stroke-miterlimit:3.86369;stroke-dasharray:none"
         id="path100" /><path
         d="m 204.164,462.109 c 1.164,0.664 2.992,0.02 3.524,1.399 0.273,0.711 0.039,1.551 -0.036,1.949 -0.523,2.766 -2.222,5.129 -5.707,5.094 -2.871,-0.028 -5.234,-4.856 -5.882,-5.266 2.355,2.473 1.992,5.442 1.402,7.59 -0.113,0.41 -0.293,0.902 -0.41,1.266 -0.407,1.257 -0.602,2.07 -1.985,2.804 -0.25,0.133 -0.757,0.278 -1.093,0.379 -1.86,0.543 -3.957,-0.371 -4.821,-1.367 0.75,4.254 0.168,7.742 -4.375,8.547 -2.461,0.43 -5.418,-0.996 -5.883,-4.344 -0.652,-4.715 1.883,-6.078 4.618,-7.832 -2.325,-0.226 -3.719,-0.312 -4.653,-0.785 -2.226,-1.133 -2.843,-3.23 -2.699,-5.605 0.305,-5.165 6.914,-7.719 12.34,-8.551 -4.234,-1.032 -4.961,-2.547 -5.262,-4.274 -0.75,-4.254 5.699,-8.414 10.172,-9.488 2.496,-0.598 5.043,-2.066 7.57,-3.539 1.082,0.289 1.098,0.422 1.61,0.789 0,0 -3.281,2.758 0.578,5.367 1.234,0.832 4.84,0.633 7.926,-0.129 2.539,-0.625 5.48,-2.164 5.48,-2.164 0,0 -0.855,2.926 -1.094,4.723 -0.129,0.953 0.27,1.914 0.27,1.914 0,0 -2.117,0.266 -4.598,1.449 -6.445,3.063 -9.926,8.395 -6.992,10.074 z"
         style="fill:none;stroke:#1a68bb;stroke-opacity:1;stroke-width:4.019;stroke-linecap:round;stroke-linejoin:round;stroke-miterlimit:3.86369;stroke-dasharray:none"
         id="path102" /><path
         d="m 204.336,426.41 c 0,-1.902 -3.023,-8.898 -8.035,-7.59 -3.008,0.789 -3.449,6.082 -3.758,7.524 -2.09,-2.567 -5.336,-6.735 -9.852,-4.071 -4.179,2.473 -1.089,9.438 4.379,11.625 -4.117,2.883 -1.41,7.293 4.582,6.668 0,0 8.563,-1.949 10.934,0.305 -2.836,2.703 -0.52,5.949 2.914,5.949 4.242,0 8.332,-1.367 11.078,-2.871 -1.5,4.762 -1.879,8.965 2.289,8.035 4.258,-0.945 9.391,-3.25 10.301,-7.57 -0.402,-2.711 1.848,-3.672 1.098,-4.191 -8.754,2.882 -16.969,-5.039 -9.274,-9.567 -3.773,-1.258 -8.734,0.032 -11.109,0.258 -5.758,0.547 -5.547,-4.504 -5.547,-4.504 z"
         style="fill:none;stroke:#1a68bb;stroke-opacity:1;stroke-width:4.019;stroke-linecap:round;stroke-linejoin:round;stroke-miterlimit:3.86369;stroke-dasharray:none"
         id="path104" /><path
         d="m 227.434,440.789 c -4.68,0.402 -9.235,-2.137 -9.504,-5.68 -0.207,-2.644 2.55,-4.035 3.05,-4.457 -3.121,-1.027 -7.375,-0.324 -9.882,0.118 -3.871,0.687 -5.696,-0.547 -6.453,-2.598 -1.247,-3.383 1.925,-6.055 5.949,-6.781 -1.801,-0.918 -4.317,-2.082 -5.942,-2.871 -2.187,-1.059 -4.636,-3.657 -4.672,-6.598 -0.015,-1.313 0.309,-4.957 4.801,-5.082 0,-2.664 -3.664,-2.735 -3.664,-6.875 0,-3.129 1.996,-4.258 4.988,-4.258 2.184,0 4.993,1.816 5.493,3.258 0.871,2.504 -0.266,6.437 2.894,6.621 1.684,-3.57 4.477,-4.352 6.449,-3.508 5.547,2.387 2.297,8.285 5.743,10.473 2.371,-2.442 3.722,-2.988 5.761,-2.906 7.051,0.285 4.11,10.753 10.368,15.027 2.144,1.465 5.218,1.801 7.91,2.101 0,0 -14.071,13.219 -23.289,14.016 z"
         style="fill:none;stroke:#1a68bb;stroke-opacity:1;stroke-width:4.019;stroke-linecap:round;stroke-linejoin:round;stroke-miterlimit:3.86369;stroke-dasharray:none"
         id="path106" /><path
         d="m 271.18,412.477 14.945,-44.782 27.207,0 -21.961,-16.031 7.234,-24.539 -27.585,17.461 0.16,67.891"
         style="fill:#b3c2e8;fill-opacity:1;fill-rule:nonzero;stroke:none"
         id="path108" /><path
         d="m 271.18,412.477 14.945,-44.782 27.207,0 -21.961,-16.031 7.234,-24.539 -27.585,17.461 0.16,67.891 z"
         style="fill:none;stroke:#1a68bb;stroke-opacity:1;stroke-width:4.019;stroke-linecap:round;stroke-linejoin:round;stroke-miterlimit:3.86369;stroke-dasharray:none"
         id="path110" /><path
         d="m 225.398,462.414 c -3.535,-1.152 -4.304,-2.391 -4.492,-4.719 -0.281,-3.55 3.086,-6.55 11.125,-9.199 -0.64,-0.105 -2.269,-1.84 -2.859,-4.094 -0.422,2.418 -2.477,4.407 -4.938,5.703 -2.289,1.208 -5.148,1.973 -6.289,2.016 -1.34,0.051 -1.882,-0.648 -2.269,-1.617 -0.895,0.141 -1.789,0.492 -2.348,0.695 -4.137,1.504 -10.258,5.063 -10.121,9.403 0.102,3.191 4.746,0.566 4.594,3.617 -0.098,1.926 -0.481,2.793 -1.387,4.242 -0.234,0.523 -1.258,1.269 -1.723,1.523 -0.714,0.399 -1.972,0.715 -3.175,0.516 -1.805,0.176 -3.129,0.859 -3.961,1.984 -0.27,0.934 -0.637,2.161 -1.082,3.125 -0.274,0.586 -0.91,1.075 -1.364,1.317 -0.144,4.168 3.879,4.703 6.938,5.273 0,0 -2.422,1.114 -3.25,1.633 -5.145,3.25 -5.695,7.34 -4.887,9.438 1.317,3.421 3.863,4.343 5.957,3.996 0,0 -2.695,6.527 -2.609,9.242 0.125,3.926 1.637,6.5 5.855,6.398 3.926,-0.093 4.508,-3.07 5.41,-6.234 0.641,-2.231 0.469,-4.738 0.469,-6.113 2.047,2.254 4.535,2.617 6.59,1.582 1.586,-0.719 1.996,-1.45 2.551,-2.856 0.273,-0.699 0.519,-3.512 0.355,-4.398 -0.238,-1.992 -0.957,-4.063 -3.347,-7.188 0,0 2.8,2.449 4.851,2.164 2.219,-0.316 3.559,-1.445 4.274,-3.398 -0.817,-0.836 -1.789,-2.004 -1.911,-4.399 -0.132,-2.589 1.368,-4.691 2.598,-6.421 0,0 -4.223,0.976 -5.402,-1.196 -2.078,-3.824 2.344,-8.715 9.203,-10.945 l -3.356,-1.09 z"
         style="fill:none;stroke:#1a68bb;stroke-opacity:1;stroke-width:4.019;stroke-linecap:round;stroke-linejoin:round;stroke-miterlimit:3.86369;stroke-dasharray:none"
         id="path112" /><path
         d="m 239.336,518.469 c 0.309,0.84 1.047,1.195 1.906,1.324 0.91,0.137 3.102,0.328 4.555,0.055 -2.192,1.367 -3.281,4.742 -2.828,7.105 0.461,2.383 1.672,4.832 4.605,4.832 1.996,0 2.324,-1.469 3.074,-2.469 -0.875,1.25 -0.636,3.219 -0.472,4.207 0.625,3.754 2.715,5.743 6.332,5.239 4.019,-0.555 6.297,-4.012 6.297,-7.703 0,-2.067 -0.75,-2.883 -1.996,-3.508 0.75,0.062 1.261,0.148 1.996,0 1.871,-0.375 4.011,-2.774 4.011,-5.34 0,-2.375 -3.05,-5.066 -7.296,-4.738 2.597,-0.032 2.832,0.41 4.742,-0.184 2.992,-0.922 4.035,-3.742 4.148,-6.476 0.137,-3.282 0.344,-9.493 -4.172,-10.856 3.598,-0.473 4.457,-2.453 4.754,-6.703 0.238,-3.418 0.309,-8.445 -0.48,-10.461 -0.578,-0.914 -1.125,-1.266 -1.883,-2.535 0,0 -0.395,5.058 -1.902,6.887 -1.633,1.976 -6.051,1.96 -9.735,-0.172 0,0 2.934,3.449 3.567,8.058 0.707,3.571 -0.36,8.617 -3.461,8.617 -1.789,0 -4.137,-2.507 -4.137,-2.507 0,0 1.824,5.211 -1.559,7.484 -4.757,3.195 -8.886,0.441 -8.886,0.441 0,0 1.175,4.914 -1.18,9.403 z"
         style="fill:none;stroke:#1a68bb;stroke-opacity:1;stroke-width:4.019;stroke-linecap:round;stroke-linejoin:round;stroke-miterlimit:3.86369;stroke-dasharray:none"
         id="path114" /><path
         d="m 271.188,344.629 c 0,0 -6.95,1.16 -11.801,-1.707 -3.938,-2.324 -6.707,-5.645 -11.332,-15.824 0,0 -3.395,9.55 2.597,18.148 5.004,7.176 4.868,5.297 7.047,10.539 0,0 -5.644,-6.168 -11,-6.746 -5.367,-0.582 -9.273,1.727 -17.261,-6.047 2.996,10.703 6.695,11.071 14.476,15.153 3.711,1.941 6.086,2.636 8.707,5.64 2.469,2.832 3.274,5.5 5.52,8.758 2.246,3.258 3.746,28.199 2.3,34.207 -1.878,7.832 0.856,15.078 -24.359,30.898 -1.609,1.016 -3.727,1.922 -5.812,2.571 0.531,0.34 -0.575,1.179 -0.868,2.156 1.532,-3.293 6.871,-2.801 9.125,-1.984 0.27,-6.762 15.836,-9 21.715,-6.746 0.625,2.043 1.375,5.195 1.207,10.988 2.91,-0.57 4.004,-1.738 7.235,8.515 1.64,5.059 2.324,11.489 2.324,11.489 l 0.18,-120.008 z"
         style="fill:none;stroke:#1a68bb;stroke-opacity:1;stroke-width:4.019;stroke-linecap:round;stroke-linejoin:round;stroke-miterlimit:3.86369;stroke-dasharray:none"
         id="path116" /><path
         d="m 271.188,553.664 0,-247.476"
         style="fill:none;stroke:#1a68bb;stroke-opacity:1;stroke-width:6.554;stroke-linecap:butt;stroke-linejoin:miter;stroke-miterlimit:3.86371;stroke-dasharray:none"
         id="path118" /><path
         d="m 231.297,487.766 c -3.488,1.351 -5.922,-0.043 -7.031,-1.344 -0.629,1.754 -1.645,2.574 -2.676,3.019 1.371,0.891 3.043,-0.351 3.043,-0.351 -2.078,1.168 -5.309,4.551 -6.184,5.543 0.09,1.867 0.469,6.176 -2.832,7.492 0.321,2.918 2.742,3.766 4.516,3.813 l 4.195,0.41 c 0,0 -7.578,5.195 -7.023,10.078 0.476,4.23 3.265,3.996 6.25,2.551 -3.133,8.386 3.445,11.777 5.742,11.535 2.293,-0.242 6.031,-2.707 1.594,-10.297 1.144,0.406 3.214,1.473 4.746,1.18 4.429,-0.844 5.808,-7.657 4.883,-12.325 -4.266,-2.757 -4.079,-7.347 3.648,-11 -5.207,2.559 -9.438,2.45 -8.742,-3.156 1.008,-8.191 8.879,-12.762 8.879,-12.762 -2.535,0.465 -4.711,-0.097 -5.563,-0.543 -2.355,1.332 -3.844,-0.136 -4.262,-0.629 -0.656,-0.781 -1.289,-1.367 -1.289,-1.367 0,0 1.895,6.688 -1.894,8.153 z"
         style="fill:none;stroke:#1a68bb;stroke-opacity:1;stroke-width:4.019;stroke-linecap:round;stroke-linejoin:round;stroke-miterlimit:3.86369;stroke-dasharray:none"
         id="path120" /><path
         d="m 238.527,440.395 c -2.976,-1.059 -8.058,-1.145 -9.222,2.273 -1.051,3.094 2.691,5.797 2.691,5.797 -1.605,0.512 -3.641,1.348 -4.82,1.949 -2.785,1.414 -6.223,3.024 -6.293,6.871 -0.059,3.403 2.976,4.75 4.687,5.199 l 3.246,1.024 c 0,0 -8.617,2.707 -9.605,7.933 -0.793,4.184 2.496,4.887 5.742,4.204 -6.258,8.07 0.317,12.621 3.078,12.652 2.715,0.027 6.957,-0.297 5.196,-8.649 0.531,0.399 1.761,2.407 3.32,2.493 4.5,0.254 5.523,-6.668 5.742,-9.036 0.348,-3.753 0,-5.207 -0.379,-8.195 2.215,2.207 3.746,2.762 4.965,2.485 2.734,-0.625 4.063,-1.903 3.012,-7.805 -0.449,-2.531 -0.629,-4.504 1.14,-6.945 3.18,7.988 10.852,1.769 10.411,-7.942 0.066,-3.863 -0.125,-8.687 -1.161,-10.973 -2.089,-1.062 -7.285,-1.371 -12.144,-0.273 -10.153,2.285 -9.606,6.938 -9.606,6.938 z"
         style="fill:none;stroke:#1a68bb;stroke-opacity:1;stroke-width:4.019;stroke-linecap:round;stroke-linejoin:round;stroke-miterlimit:3.86369;stroke-dasharray:none"
         id="path122" /><path
         d="m 261.457,444.641 c 1.125,-0.235 2.168,-0.571 3.016,-0.149 2.445,1.211 5.16,11.274 5.988,16.246 -2.051,9.028 -6.293,9.438 -6.293,9.438 0.086,1.672 0.656,2.773 1.437,4.648 1.333,3.196 1.079,4.68 0.958,6.36 -0.086,0.656 -0.715,3.718 -1.059,4.652 -1.133,3.07 -4.883,2.953 -6.617,2.664 -1.614,-0.27 -3.895,-1.527 -3.895,-1.527 0,0 4.512,5.031 3.68,11.613 -0.637,5.012 -3.484,7.07 -7.692,2.566 2.625,9.063 -6.503,9.543 -8.878,8.653 -6.379,-2.399 -5.832,-8.207 2.132,-11.766 -1.121,0.606 -4.898,2.168 -6.718,1.531 -3.895,-1.363 -1.758,-7.007 -0.731,-9.156 1.949,-4.082 4.887,-6.496 7.438,-8.223 -2.832,0.34 -4.36,-0.039 -5.477,-0.589 0.676,-0.465 2.008,-1.68 2.817,-4.438 1.664,-5.68 0.351,-12.254 0.351,-12.254 1.734,1.774 3.387,2.844 5.207,2.418 6.742,-1.574 -0.183,-10.109 3.91,-14.683 2.742,7.171 10.309,3.441 10.426,-8.004 z"
         style="fill:none;stroke:#1a68bb;stroke-opacity:1;stroke-width:4.019;stroke-linecap:round;stroke-linejoin:round;stroke-miterlimit:3.86369;stroke-dasharray:none"
         id="path124" /><path
         d="m 289.363,539.445 0,-47.996 c 0,0 7.903,-3.117 17.645,-0.797 8.703,2.075 16.289,0.379 22.527,-2.566 l 0.117,4.957 0,47.625 c 0,0 -7.218,5.723 -17.992,2.09 -10.551,-3.559 -15.707,-0.86 -15.707,-0.86 l 0.117,-2.824 c -2.519,-0.859 -6.707,0.371 -6.707,0.371 z"
         style="fill:none;stroke:#1a68bb;stroke-opacity:1;stroke-width:4.019;stroke-linecap:round;stroke-linejoin:round;stroke-miterlimit:3.86369;stroke-dasharray:none"
         id="path126" /><path
         d="m 370.168,539.445 0,-47.996 c 0,0 -8.379,-2.957 -17.852,-0.797 -8.718,1.993 -16.351,0.18 -22.586,-2.765 l -0.078,5.156 0,47.625 c 0,0 7.215,5.723 17.989,2.09 10.55,-3.559 15.707,-0.86 15.707,-0.86 l -0.121,-2.824 c 2.523,-0.859 6.941,0.371 6.941,0.371 z"
         style="fill:none;stroke:#1a68bb;stroke-opacity:1;stroke-width:4.019;stroke-linecap:round;stroke-linejoin:round;stroke-miterlimit:3.86369;stroke-dasharray:none"
         id="path128" /><path
         d="m 329.652,493.043 0,47.625 c 0,0 -7.218,5.723 -17.992,2.09 -10.551,-3.559 -15.707,-0.86 -15.707,-0.86 l 0,-44.71 c 2.156,-1.231 9.473,0.242 16.188,1.101 14.125,1.809 17.511,-5.246 17.511,-5.246 z"
         style="fill:none;stroke:#1a68bb;stroke-opacity:1;stroke-width:4.019;stroke-linecap:round;stroke-linejoin:round;stroke-miterlimit:3.86369;stroke-dasharray:none"
         id="path130" /><path
         d="m 329.652,493.043 0,47.625 c 0,0 7.215,5.723 17.989,2.09 10.55,-3.559 15.707,-0.86 15.707,-0.86 l 0,-44.71 c -2.157,-1.231 -9.473,0.242 -16.188,1.101 -14.125,1.809 -17.508,-5.246 -17.508,-5.246 z"
         style="fill:none;stroke:#1a68bb;stroke-opacity:1;stroke-width:4.019;stroke-linecap:round;stroke-linejoin:round;stroke-miterlimit:3.86369;stroke-dasharray:none"
         id="path132" /><path
         d="m 349.672,446.93 c 0,0 -2.715,2.351 -0.863,4.461 0.839,0.957 4.691,3.964 4.691,7.683 0,3.719 -3.086,6.196 -5.434,7.063 -2.343,0.867 -3.949,2.355 -4.445,3.965 -0.492,-1.61 -2.098,-3.098 -4.441,-3.965 -2.348,-0.867 -5.434,-3.344 -5.434,-7.063 0,-3.719 3.848,-6.726 4.692,-7.683 1.851,-2.11 -0.868,-4.461 -0.868,-4.461 0,0 -3.132,-1.91 -4.558,0.504 -0.645,1.101 -2.309,5.707 -5.832,6.855 -3.524,1.145 -6.825,-1.035 -8.371,-3.004 -1.547,-1.969 -3.454,-3.043 -5.133,-3.015 1.375,-0.973 2.285,-2.961 2.383,-5.469 0.097,-2.508 1.496,-6.219 5.015,-7.367 3.524,-1.149 7.567,1.597 8.731,2.105 2.57,1.113 3.988,-2.281 3.988,-2.281 0,0 0.82,-3.508 -1.914,-4.121 -1.238,-0.278 -6.117,-0.438 -8.297,-3.446 -2.176,-3.007 -1.129,-6.832 0.258,-8.918 1.39,-2.085 1.816,-4.238 1.273,-5.832 1.344,1.016 3.512,1.27 5.918,0.586 2.41,-0.679 6.356,-0.496 8.535,2.512 2.176,3.008 0.825,7.711 0.704,8.981 -0.266,2.796 3.312,3.101 3.312,3.101 0,0 3.656,-0.305 3.395,-3.101 -0.122,-1.27 -1.477,-5.973 0.703,-8.981 2.175,-3.008 6.125,-3.191 8.531,-2.512 2.406,0.684 4.574,0.426 5.918,-0.586 -0.543,1.594 -0.117,3.747 1.273,5.832 1.391,2.086 2.438,5.911 0.258,8.918 -2.176,3.004 -7.055,3.168 -8.293,3.446 -2.734,0.613 -1.914,4.121 -1.914,4.121 0,0 1.414,3.394 3.985,2.281 1.167,-0.508 5.207,-3.258 8.73,-2.105 3.523,1.148 4.918,4.859 5.016,7.363 0.097,2.508 1.011,4.5 2.382,5.469 -1.675,-0.024 -3.582,1.05 -5.128,3.019 -1.547,1.969 -4.852,4.149 -8.375,3.004 -3.52,-1.152 -5.184,-5.754 -5.829,-6.855 -1.425,-2.414 -4.496,-0.551 -4.496,-0.551 l -0.066,0.047 z"
         style="fill:none;stroke:#1a68bb;stroke-opacity:1;stroke-width:4.019;stroke-linecap:round;stroke-linejoin:round;stroke-miterlimit:3.86369;stroke-dasharray:none"
         id="path134" /><path
         d="m 275.23,428.098 c 0,0 3.563,-0.305 3.297,-3.098 -0.121,-1.27 -1.472,-5.977 0.703,-8.984 2.18,-3.008 6.125,-3.192 8.532,-2.508 2.406,0.68 4.578,0.422 5.918,-0.586 -0.543,1.594 -0.114,3.742 1.273,5.828 1.391,2.086 2.438,5.91 0.262,8.918 -2.18,3.008 -7.055,3.168 -8.297,3.449 -2.734,0.61 -1.914,4.117 -1.914,4.117 0,0 1.418,3.399 3.984,2.278 1.168,-0.504 5.211,-3.254 8.731,-2.102 3.523,1.149 4.922,4.863 5.019,7.367 0.094,2.508 1.008,4.496 2.383,5.465 -1.68,-0.023 -3.586,1.047 -5.133,3.02 -1.547,1.972 -4.847,4.152 -8.371,3 -3.523,-1.145 -5.187,-5.75 -5.832,-6.848 -1.426,-2.418 -4.492,-0.555 -4.492,-0.555 l -0.07,0.047 c 0,0 -2.715,2.356 -0.864,4.461 0.844,0.957 4.692,3.965 4.692,7.684 0,3.715 -3.082,6.195 -5.43,7.062 -2.348,0.867 -4.641,2.258 -5.137,3.867 l -3.421,0.047 -0.036,-41.843 4.203,-0.086 z"
         style="fill:none;stroke:#1a68bb;stroke-opacity:1;stroke-width:4.019;stroke-linecap:round;stroke-linejoin:round;stroke-miterlimit:3.86369;stroke-dasharray:none"
         id="path136" /><path
         d="m 156.879,444.41 34.141,0 c 0,0 1.101,-0.363 4.015,-1.297 2,-0.64 5.938,-3.035 5.938,-3.035 0,0 -1.508,-0.504 -4.825,-0.207 -1.347,0.121 -3.367,0.473 -3.367,0.473 0,0 -6.754,1.539 -7.679,-3.215 -4.903,0 -27.059,0 -27.059,0 l -1.164,7.281"
         style="fill:#1a68bb;fill-opacity:1;fill-rule:nonzero;stroke:none"
         id="path138" /><path
         d="m 154.488,482.055 25.008,0 c 0,0 -2.031,-4.27 0.758,-7.293 -4.902,0 -25.766,0.011 -25.766,0.011 l 0,7.282"
         style="fill:#1a68bb;fill-opacity:1;fill-rule:nonzero;stroke:none"
         id="path140" /><path
         d="m 188.711,482.055 12.598,0 c 0,0 -6.649,-0.547 -6.2,-5.129 -3.66,1.66 -5.953,-0.973 -5.953,-0.973 0,0 0.379,2.606 0.129,4.281 -0.164,1.094 -0.574,1.821 -0.574,1.821"
         style="fill:#1a68bb;fill-opacity:1;fill-rule:evenodd;stroke:none"
         id="path142" /><path
         d="m 154.906,519.395 44.321,0 c 0,0 -1.555,-3.563 1.824,-6.692 -0.41,-0.113 -0.785,-0.223 -1.391,-0.594 -9.719,0 -44.754,0 -44.754,0 l 0,7.286"
         style="fill:#1a68bb;fill-opacity:1;fill-rule:nonzero;stroke:none"
         id="path144" /><path
         d="m 224.504,406.781 35.906,0 c 0,0 0.477,-2.082 0.547,-7.281 -4.902,0 -49.168,0 -49.168,0 0,0 0.207,1.859 0.477,3.934 0.156,1.23 0.968,2.171 2.211,2.152 3.234,-6.231 7.921,-3.512 9.273,-1.082 0.473,0.848 0.754,2.277 0.754,2.277"
         style="fill:#1a68bb;fill-opacity:1;fill-rule:nonzero;stroke:none"
         id="path146" /><path
         d="m 166.449,406.719 38.328,-0.02 c 0,0 -0.152,-1.453 -1.175,-2.273 -1.215,-0.969 -2.637,-2.391 -2.43,-4.91 -4.902,0 -32.27,0 -32.27,0 l -2.453,7.203"
         style="fill:#1a68bb;fill-opacity:1;fill-rule:nonzero;stroke:none"
         id="path148" /><path
         d="m 265.57,519.484 5.805,0 c 0,0 0,-4.777 0,-7.281 -1.32,0 -3.055,0 -3.055,0 0,0 -0.91,5.953 -6.66,5.317 3.102,0.957 3.91,1.964 3.91,1.964"
         style="fill:#1a68bb;fill-opacity:1;fill-rule:nonzero;stroke:none"
         id="path150" /><path
         d="m 185.273,369.227 70.821,0 c 0,0 -0.824,-1.614 -1.559,-2.829 -0.844,-1.394 -2.285,-3.144 -3.808,-4.453 -4.899,0 -60.207,0 -60.207,0 l -5.247,7.282"
         style="fill:#1a68bb;fill-opacity:1;fill-rule:nonzero;stroke:none"
         id="path152" /><path
         d="m 271.281,406.781 104.633,0 c 0,0 -1.125,-2.875 -2.668,-7.281 -4.902,0 -102.285,0 -102.285,0 l 0.32,7.281"
         style="fill:#1a68bb;fill-opacity:1;fill-rule:nonzero;stroke:none"
         id="path154" /><path
         d="m 271.18,481.996 116.617,0 c 0,0 -0.051,-3.156 -0.09,-7.277 -4.902,0 -116.527,0 -116.527,0 l 0,7.277"
         style="fill:#1a68bb;fill-opacity:1;fill-rule:nonzero;stroke:none"
         id="path156" /><path
         d="m 344.219,444.457 c 2.867,-0.336 5.094,-2.773 5.094,-5.727 0,-3.187 -2.586,-5.769 -5.77,-5.769 -2.945,0 -5.375,2.211 -5.727,5.062 0.817,-1.41 2.336,-2.355 4.079,-2.355 2.597,0 4.703,2.105 4.703,4.703 0,1.75 -0.957,3.277 -2.379,4.086"
         style="fill:#1a68bb;fill-opacity:1;fill-rule:nonzero;stroke:none"
         id="path158" /><path
         d="m 275.84,444.457 c 2.863,-0.336 5.09,-2.773 5.09,-5.727 0,-3.187 -2.582,-5.769 -5.77,-5.769 -2.945,0 -5.375,2.211 -5.722,5.062 0.812,-1.41 2.332,-2.355 4.078,-2.355 2.593,0 4.699,2.105 4.699,4.703 0,1.75 -0.957,3.277 -2.375,4.086"
         style="fill:#1a68bb;fill-opacity:1;fill-rule:nonzero;stroke:none"
         id="path160" /><path
         d="m 271.145,456.156 c 0,2.871 -2.192,13.184 -6.981,14.004"
         style="fill:none;stroke:#1a68bb;stroke-opacity:1;stroke-width:3.027;stroke-linecap:round;stroke-linejoin:round;stroke-miterlimit:3.86369;stroke-dasharray:none"
         id="path162" /><path
         d="m 264.176,470.121 c 0.176,1.496 0.109,2.156 1.199,4.234 1.094,2.079 1.445,4.84 1.27,5.93 0.777,1.164 2.082,1.981 2.261,4.379 0.176,2.399 0.528,7.234 -0.176,11.098 -0.703,3.867 -3.542,4.054 -4.441,4.183 1.602,0.77 3.16,1.668 3.863,4.957 0.707,3.286 0.192,7.278 0.192,7.278 l 2.844,0 0,-54.27 c 0,0 -0.54,1.371 -0.793,2.844 -0.899,3.734 -3.047,9.211 -6.219,9.367"
         style="fill:#1a68bb;fill-opacity:1;fill-rule:nonzero;stroke:none"
         id="path164" /></g></g></svg>