<?xml version="1.0" encoding="UTF-8" standalone="no"?>
<!-- Created with Inkscape (http://www.inkscape.org/) -->

<svg
   xmlns:dc="http://purl.org/dc/elements/1.1/"
   xmlns:cc="http://creativecommons.org/ns#"
   xmlns:rdf="http://www.w3.org/1999/02/22-rdf-syntax-ns#"
   xmlns:svg="http://www.w3.org/2000/svg"
   xmlns="http://www.w3.org/2000/svg"
   xmlns:sodipodi="http://sodipodi.sourceforge.net/DTD/sodipodi-0.dtd"
   xmlns:inkscape="http://www.inkscape.org/namespaces/inkscape"
   id="svg3308"
   version="1.1"
   inkscape:version="0.48.4 r9939"
   width="105.25294"
   height="105.98975"
   xml:space="preserve"
   sodipodi:docname="UoE_Horizontal Logo_CMYK_v1_160215.eps"><metadata
     id="metadata3314"><rdf:RDF><cc:Work
         rdf:about=""><dc:format>image/svg+xml</dc:format><dc:type
           rdf:resource="http://purl.org/dc/dcmitype/StillImage" /><dc:title></dc:title></cc:Work></rdf:RDF></metadata><defs
     id="defs3312" /><sodipodi:namedview
     pagecolor="#ffffff"
     bordercolor="#666666"
     borderopacity="1"
     objecttolerance="10"
     gridtolerance="10"
     guidetolerance="10"
     inkscape:pageopacity="0"
     inkscape:pageshadow="2"
     inkscape:window-width="1871"
     inkscape:window-height="1056"
     id="namedview3310"
     showgrid="false"
     fit-margin-top="0"
     fit-margin-left="0"
     fit-margin-right="0"
     fit-margin-bottom="0"
     inkscape:zoom="2.1816808"
     inkscape:cx="167.51025"
     inkscape:cy="0.18103365"
     inkscape:window-x="49"
     inkscape:window-y="24"
     inkscape:window-maximized="1"
     inkscape:current-layer="g3316" /><g
     id="g3316"
     inkscape:groupmode="layer"
     inkscape:label="ink_ext_XXXXXX"
     transform="matrix(1.25,0,0,-1.25,-0.47119125,106.19825)"><path
       inkscape:connector-curvature="0"
       id="path3320"
       style="fill:#15213a;fill-opacity:1;fill-rule:nonzero;stroke:none"
       d="m 6.33594,51.1188 c 0.74101,-0.1645 0.97617,-0.0711 1.09414,0.455 L 7.61289,51.5336 7.12578,49.352 6.94219,49.3934 c 0.09922,0.441 0.02773,0.7261 -0.82188,0.916 l -4.69492,1.0515 -0.2,-0.8925 C 1.04023,49.6406 1.19258,49.2121 1.825,49.0141 l -0.04062,-0.1828 -1.407427,0.3156 0.040625,0.1832 c 0.094531,0.0683 0.169922,0.1527 0.246485,0.2933 0.06289,0.1332 0.127734,0.3227 0.186328,0.5793 l 0.720699,3.2239 c 0.11993,0.5375 0.11094,0.798 -0.00703,1.0281 L 1.60703,54.648 3.01484,54.334 2.98867,54.2152 C 2.44648,54.2117 2.03516,54.0898 1.81641,53.1109 L 1.60703,52.177 6.33594,51.1188" /><path
       inkscape:connector-curvature="0"
       id="path3322"
       style="fill:#15213a;fill-opacity:1;fill-rule:nonzero;stroke:none"
       d="m 6.66758,58.1219 1.64258,-0.8016 c 0.6832,-0.3324 0.98359,-0.2707 1.22031,0.2145 l 0.16758,-0.0817 -0.99961,-2.05 -0.16836,0.0828 c 0.21328,0.436 0.16562,0.7153 -0.58672,1.0829 l -3.5332,1.7234 C 3.73789,58.6207 3.44297,58.593 3.19648,58.0875 l -0.16835,0.0828 0.9996,2.0485 0.16797,-0.0829 C 3.97852,59.6914 4.05469,59.3965 4.77734,59.0441 l 1.61329,-0.7875 1.50585,3.0883 -1.61289,0.7864 C 5.59141,62.4699 5.31094,62.4227 5.07422,61.9375 L 4.90586,62.0195 5.8957,64.048 6.06406,63.9668 C 5.82734,63.4816 5.97773,63.2121 6.65078,62.884 L 10.184,61.1605 c 0.6726,-0.3285 0.9777,-0.2812 1.2144,0.204 l 0.1684,-0.0821 -0.9906,-2.0285 -0.1684,0.0816 c 0.218,0.4442 0.1617,0.7059 -0.59178,1.0719 L 8.17461,61.2102 6.66758,58.1219" /><path
       inkscape:connector-curvature="0"
       id="path3324"
       style="fill:#15213a;fill-opacity:1;fill-rule:nonzero;stroke:none"
       d="m 14.1266,68.4949 -0.12,-0.1441 c -0.4988,0.2441 -0.6132,0.2109 -1.0293,-0.2887 L 11.977,66.8609 13.7109,65.416 c 0.2379,-0.198 0.4008,-0.1914 0.6262,0.0805 l 0.7055,0.8453 c 0.5914,0.7113 0.7051,0.9164 0.3109,1.7328 l 0.1199,0.1442 0.7215,-0.9743 -2.9101,-3.4937 -0.1438,0.1203 c 0.3164,0.3801 0.3391,0.648 -0.3039,1.1836 l -3.02812,2.5226 c -0.60156,0.5008 -0.8832,0.5067 -1.22812,0.0922 l -0.14453,0.1196 2.91097,3.4945 0.8121,-0.677 -0.0781,-0.0933 c -0.6235,0.334 -0.8075,0.2004 -1.2512,-0.3328 l -1.16369,-1.3953 2.07379,-1.727 1.1274,1.3535 c 0.2742,0.3293 0.3211,0.5059 -0.0375,0.9192 l 0.1207,0.1441 1.1758,-0.9801" /><path
       inkscape:connector-curvature="0"
       id="path3326"
       style="fill:#15213a;fill-opacity:1;fill-rule:nonzero;stroke:none"
       d="m 25.9457,75.6035 c -0.182,-0.9105 -0.5949,-1.523 -1.3246,-1.934 -1.3332,-0.7507 -2.3996,-0.1132 -2.9344,0.8368 l -1.525,2.7046 c -0.4101,0.7289 -0.6836,0.7661 -1.1148,0.5215 l -0.091,0.1641 1.9847,1.1191 0.0918,-0.164 c -0.4508,-0.2539 -0.5414,-0.5192 -0.1469,-1.22 l 1.5676,-2.782 c 0.4762,-0.8437 1.2867,-1.184 2.2168,-0.6601 0.6332,0.3574 1.011,0.9871 1.0602,1.7976 l -1.8645,3.3102 c -0.3566,0.6336 -0.6254,0.7726 -1.0769,0.5437 l -0.0922,0.1625 1.9375,1.0922 0.0918,-0.1633 c -0.461,-0.259 -0.5039,-0.5621 -0.1313,-1.2242 l 1.9289,-3.425 c 0.4059,-0.7199 0.6926,-0.7586 1.1157,-0.5219 l 0.0914,-0.1633 -1.352,-0.7609 -0.4328,0.7664" /><path
       inkscape:connector-curvature="0"
       id="path3328"
       style="fill:#15213a;fill-opacity:1;fill-rule:nonzero;stroke:none"
       d="m 35.9496,78.0988 -0.1816,-0.0472 -5.6696,4.2082 -0.0214,-0.0043 1.0988,-4.2879 c 0.1578,-0.6196 0.4605,-0.7805 1.0152,-0.6383 l 0.0461,-0.1816 -1.8547,-0.4754 -0.0472,0.182 c 0.5121,0.1312 0.7164,0.3531 0.4898,1.2387 l -0.9156,3.5742 c -0.175,0.6824 -0.4539,1.0199 -1.1961,0.898 l -0.0461,0.1805 1.5683,0.402 5.0368,-3.7789 0.0207,0.0058 -0.9153,3.5727 c -0.2043,0.8004 -0.4703,0.9476 -1.0023,0.8117 l -0.0473,0.1808 1.8453,0.4719 0.0465,-0.1804 C 34.6223,84.0781 34.493,83.7832 34.6766,83.0695 l 1.273,-4.9707" /><path
       inkscape:connector-curvature="0"
       id="path3330"
       style="fill:#15213a;fill-opacity:1;fill-rule:nonzero;stroke:none"
       d="m 41.0938,79.7809 c 0.0378,-0.7704 0.2367,-0.9914 0.7644,-0.9649 l 0.009,-0.1875 -2.2652,-0.1129 -0.0098,0.1875 c 0.5172,0.0254 0.7047,0.234 0.6652,1.0364 l -0.1949,3.9261 c -0.0391,0.7914 -0.2262,0.9914 -0.7645,0.9653 l -0.0097,0.1863 2.266,0.1129 0.0086,-0.1867 C 41.0348,84.7172 40.8602,84.466 40.898,83.7074 l 0.1958,-3.9265" /><path
       inkscape:connector-curvature="0"
       id="path3332"
       style="fill:#15213a;fill-opacity:1;fill-rule:nonzero;stroke:none"
       d="m 47.4672,78.1988 -0.1738,0.0231 -1.2571,5.332 c -0.1937,0.8043 -0.307,1.1184 -0.8937,1.2199 l 0.0246,0.1848 2.2707,-0.3016 -0.0254,-0.1863 c -0.4469,0.0602 -0.6973,-0.1508 -0.5766,-0.668 l 0.9914,-4.2402 1.9692,3.7027 c 0.2672,0.509 0.2144,0.8602 -0.3535,0.9364 l 0.0254,0.1851 1.8222,-0.2429 -0.0265,-0.1961 c -0.4692,0.0625 -0.8664,-0.252 -1.2969,-1.0602 l -2.5,-4.6887" /><path
       inkscape:connector-curvature="0"
       id="path3334"
       style="fill:#15213a;fill-opacity:1;fill-rule:nonzero;stroke:none"
       d="m 57.4184,78.077 -0.1754,0.0644 c 0.0613,0.5516 -0.0094,0.6481 -0.6192,0.8719 l -1.4679,0.5363 -0.7754,-2.1195 c -0.1067,-0.2895 -0.0453,-0.441 0.2859,-0.5621 l 1.0348,-0.3789 c 0.8679,-0.318 1.1008,-0.3559 1.7363,0.2914 l 0.1758,-0.0649 -0.6738,-1.0074 -4.2707,1.5629 0.064,0.175 c 0.4656,-0.1691 0.7246,-0.1004 1.0121,0.6852 L 55.1,81.8328 c 0.2691,0.7348 0.1793,1.0016 -0.3285,1.1871 l 0.064,0.1762 4.2715,-1.5629 -0.3632,-0.9922 -0.1141,0.0414 c 0.1035,0.7004 -0.0844,0.8281 -0.7352,1.066 l -1.7066,0.6246 -0.9266,-2.5335 1.6551,-0.6055 c 0.4027,-0.1473 0.584,-0.1313 0.852,0.3445 l 0.1757,-0.0644 -0.5257,-1.4371" /><path
       inkscape:connector-curvature="0"
       id="path3336"
       style="fill:#15213a;fill-opacity:1;fill-rule:nonzero;stroke:none"
       d="m 62.8535,75.8719 0.4227,-0.2789 c 0.9656,-0.6356 0.4246,-2.0586 0.6195,-3.9016 l 1.0766,-0.7094 0.1019,0.1567 c -0.8301,0.6398 -0.0172,2.5953 -0.5824,3.8781 0.9246,-0.2789 1.5562,0.0023 1.9375,0.5812 0.4605,0.6985 0.3395,1.7559 -0.8465,2.5364 l -2.1601,1.4246 -0.1016,-0.1567 c 0.4219,-0.2789 0.5121,-0.523 0.0566,-1.2128 l -2.173,-3.2997 c -0.4676,-0.7093 -0.7449,-0.7105 -1.15,-0.4429 l -0.1024,-0.1567 1.8946,-1.2484 0.1027,0.1566 c -0.432,0.2844 -0.4703,0.5871 -0.0457,1.2309 l 0.9496,1.4426 z m 1.732,2.6301 0.5516,-0.3625 c 0.8086,-0.5348 1.0047,-1.3766 0.5453,-2.075 -0.3988,-0.6059 -1.1472,-0.9836 -2.039,-0.3954 l -0.645,0.4243 1.5871,2.4086" /><path
       inkscape:connector-curvature="0"
       id="path3338"
       style="fill:#15213a;fill-opacity:1;fill-rule:nonzero;stroke:none"
       d="m 72.9031,70.1543 -0.1328,0.1336 c 0.5977,0.7262 0.3934,1.4527 -0.0547,1.9078 -0.4633,0.4707 -1.0547,0.5523 -1.4707,0.1441 -0.8312,-0.8187 0.077,-2.1824 0.0672,-3.4582 -0.0051,-0.623 -0.2098,-0.9796 -0.5082,-1.273 -0.707,-0.6957 -1.8434,-0.6867 -2.5391,0.0195 -0.4707,0.4789 -0.6293,1.1106 -0.7753,1.2594 -0.0778,0.0781 -0.1872,0.0797 -0.3438,0.0023 l -0.1309,0.1348 1.2165,1.1965 0.1304,-0.134 c -0.8226,-0.8262 -0.4262,-1.7785 -0.0398,-2.1715 0.534,-0.541 1.2023,-0.5929 1.689,-0.1148 0.7762,0.7652 -0.0515,2.3289 -0.0441,3.3262 0.0043,0.5449 0.2098,0.964 0.5625,1.3117 0.691,0.6793 1.6484,0.6476 2.366,-0.0809 0.4719,-0.4785 0.5235,-0.8762 0.6938,-1.0488 0.0691,-0.0703 0.1004,-0.0715 0.2414,0.0058 l 0.123,-0.1253 -1.0504,-1.0352" /><path
       inkscape:connector-curvature="0"
       id="path3340"
       style="fill:#15213a;fill-opacity:1;fill-rule:nonzero;stroke:none"
       d="M 73.4375,63.4047 C 72.8039,62.966 72.7211,62.6801 73.0211,62.2449 l -0.1531,-0.1058 -1.2922,1.864 0.1539,0.1059 c 0.2941,-0.425 0.5699,-0.4742 1.2305,-0.0172 l 3.2316,2.2395 c 0.6512,0.4515 0.723,0.7152 0.4156,1.1597 l 0.1531,0.1059 1.293,-1.8645 -0.1531,-0.1066 c -0.3012,0.4336 -0.6074,0.4496 -1.2324,0.0172 l -3.2305,-2.2383" /><path
       inkscape:connector-curvature="0"
       id="path3342"
       style="fill:#15213a;fill-opacity:1;fill-rule:nonzero;stroke:none"
       d="M 76.5781,57.6797 C 75.8879,57.3629 75.7574,57.1469 75.982,56.6559 l -0.1699,-0.0778 -0.9308,2.0309 0.1703,0.0785 c 0.1879,-0.4113 0.4179,-0.5957 1.2089,-0.2328 l 4.3735,2.0031 -0.3805,0.8313 c -0.3531,0.7718 -0.734,1.0207 -1.3574,0.7957 l -0.0781,0.1695 1.3117,0.6008 0.0777,-0.1692 c -0.034,-0.1125 -0.0426,-0.2254 -0.0183,-0.3836 0.0304,-0.1449 0.0933,-0.3335 0.2027,-0.5742 l 1.3766,-3.0031 c 0.2289,-0.5008 0.3949,-0.702 0.6273,-0.8137 l 0.0828,-0.1797 -1.3121,-0.6023 -0.0504,0.1105 c 0.4301,0.3305 0.6832,0.6774 0.266,1.5875 l -0.3992,0.8711 -4.4047,-2.0187" /><path
       inkscape:connector-curvature="0"
       id="path3344"
       style="fill:#15213a;fill-opacity:1;fill-rule:nonzero;stroke:none"
       d="m 79.0656,50.0105 c -0.7426,-0.1601 -0.948,-0.3617 -0.8347,-0.8878 l -0.1825,-0.0407 -0.482,2.25 0.1828,0.0407 c 0.102,-0.475 0.2578,-0.734 1.141,-0.545 l 1.9387,0.4157 1.7645,1.7511 c 0.5863,0.5758 0.6863,0.7891 0.605,1.2785 l 0.1825,0.0387 0.516,-2.4117 -0.1828,-0.0395 c -0.1453,0.6793 -0.3993,0.7032 -0.7219,0.3754 l -1.6133,-1.6175 1.7609,-0.6485 c 0.5485,-0.198 1.0055,-0.1219 0.8946,0.3953 l 0.1836,0.0391 0.3613,-1.6906 -0.1828,-0.0399 c -0.1336,0.4672 -0.2973,0.6008 -0.9098,0.8313 l -2.4832,0.9195 -1.9379,-0.4141" /><path
       inkscape:connector-curvature="0"
       id="path3346"
       style="fill:#15213a;fill-opacity:1;fill-rule:nonzero;stroke:none"
       d="M 3.97461,34.9414 C 2.175,34.4234 1.17617,32.6008 1.69727,30.7906 c 0.51953,-1.809 2.33789,-2.8324 4.1375,-2.3144 1.76718,0.5086 2.74453,2.3242 2.22812,4.1234 -0.53398,1.852 -2.28945,2.8602 -4.08828,2.3418 z M 4.23203,34.0066 C 5.98867,34.5113 7.42422,33.9402 7.83594,32.5109 8.19453,31.2641 7.41836,29.9398 5.51328,29.3906 4.04336,28.968 2.36406,29.3438 1.92695,30.8688 1.53398,32.234 2.46484,33.4992 4.23203,34.0066" /><path
       inkscape:connector-curvature="0"
       id="path3348"
       style="fill:#15213a;fill-opacity:1;fill-rule:nonzero;stroke:none"
       d="M 6.48789,22.6934 C 5.81797,22.3117 5.71094,22.0348 5.97266,21.575 l -0.16211,-0.0945 -1.12578,1.9718 0.16367,0.0926 c 0.26172,-0.4594 0.5457,-0.5129 1.22539,-0.1238 l 3.41289,1.9465 c 0.68948,0.3933 0.77888,0.659 0.51678,1.1183 l 0.1613,0.0946 2.1454,-3.7606 -0.9758,-0.5551 -0.0703,0.1231 c 0.5922,0.5164 0.539,0.7004 0.1992,1.2949 L 10.6664,25.0789 8.37148,23.7684 9.18477,22.343 C 9.41953,21.932 9.71758,21.9 10.1848,22.102 l 0.0875,-0.1512 -1.54027,-0.8801 -0.08672,0.152 c 0.38125,0.2441 0.50157,0.5652 0.28242,0.9488 L 8.10391,23.6152 6.48789,22.6934" /><path
       inkscape:connector-curvature="0"
       id="path3350"
       style="fill:#15213a;fill-opacity:1;fill-rule:nonzero;stroke:none"
       d="m 18.5875,10.5281 -0.1453,0.118 c 0.2402,0.5016 0.2051,0.6156 -0.2973,1.0254 L 16.9363,12.666 15.5047,10.9203 C 15.309,10.6813 15.318,10.5172 15.5906,10.2938 L 16.4414,9.59609 C 17.1566,9.00977 17.3637,8.8957 18.1762,9.29883 l 0.1453,-0.11836 -0.968,-0.73086 -3.5164,2.88559 0.118,0.1433 c 0.3836,-0.314 0.6508,-0.334 1.1816,0.3129 l 2.5,3.0484 c 0.4953,0.604 0.5,0.8848 0.0824,1.2274 l 0.118,0.1445 3.5168,-2.8832 -0.6699,-0.8168 -0.0942,0.075 c 0.3293,0.6285 0.1934,0.8098 -0.3421,1.25 l -1.4051,1.1531 -1.7106,-2.0859 1.3618,-1.1184 c 0.3328,-0.271 0.5082,-0.316 0.9191,0.0454 l 0.1449,-0.1204 -0.9703,-1.1824" /><path
       inkscape:connector-curvature="0"
       id="path3352"
       style="fill:#15213a;fill-opacity:1;fill-rule:nonzero;stroke:none"
       d="M 22.9742,6.2457 C 22.6473,5.5332 22.3648,5.42227 21.9043,5.63281 L 21.827,5.46328 24.5473,4.20938 c 2.2496,-1.03633 3.7726,-0.125 4.4359,1.31445 0.6867,1.48984 0.3238,3.43906 -1.8652,4.45 l -2.65,1.21877 -0.0793,-0.1688 c 0.4812,-0.2215 0.5492,-0.5203 0.2304,-1.20896 L 22.9742,6.2457 z M 25.7758,10.323 26.866,9.8207 C 28.6758,8.98828 28.7301,7.28945 28.098,5.91875 27.3801,4.35859 26.0773,3.77227 24.6582,4.425 L 24.068,4.69609 c -0.5297,0.24493 -0.6512,0.50743 -0.2414,1.39844 l 1.9492,4.22847" /><path
       inkscape:connector-curvature="0"
       id="path3354"
       style="fill:#15213a;fill-opacity:1;fill-rule:nonzero;stroke:none"
       d="M 34.075,2.26484 C 33.909,1.51133 34.0418,1.24336 34.5578,1.13086 L 34.518,0.948438 32.3027,1.43633 32.343,1.61875 c 0.505,-0.11016 0.7418,0.03906 0.9148,0.82539 l 0.8457,3.8375 c 0.1699,0.77383 0.0426,1.0168 -0.4844,1.13203 L 33.6598,7.59805 35.8742,7.10938 35.8348,6.92656 C 35.318,7.04063 35.084,6.84453 34.9203,6.10234 L 34.075,2.26484" /><path
       inkscape:connector-curvature="0"
       id="path3356"
       style="fill:#15213a;fill-opacity:1;fill-rule:nonzero;stroke:none"
       d="M 45.4844,0.229297 45.298,0.226563 40.7898,5.66328 40.7672,5.66016 40.816,1.23438 c 0.007,-0.638286 0.2625,-0.86563 0.8356,-0.859771 l 0.0023,-0.188281 -1.916,-0.019531 -0.0024,0.185547 c 0.5278,0.005859 0.7801,0.173828 0.77,1.088676 l -0.0407,3.6875 C 40.4574,5.83398 40.266,6.22695 39.5156,6.28555 l -0.0015,0.1875 1.6187,0.01836 3.9953,-4.86797 0.0227,0.00117 -0.0414,3.68828 c -0.009,0.82656 -0.2317,1.03125 -0.7821,1.02539 l -0.0015,0.18828 1.9051,0.02149 0.0015,-0.1875 c -0.6168,-0.0086 -0.8125,-0.26211 -0.8039,-1 l 0.0559,-5.131253" /><path
       inkscape:connector-curvature="0"
       id="path3358"
       style="fill:#15213a;fill-opacity:1;fill-rule:nonzero;stroke:none"
       d="m 52.1508,4.51875 0.5738,0.15781 c 1.0715,0.29375 1.9176,-0.12265 2.1629,-1.0164 0.2461,-0.89102 -0.2246,-1.46563 -0.8406,-1.6336 L 53.548,1.88711 C 53.0707,1.75625 52.866,1.91836 52.6414,2.73594 L 52.1508,4.51875 z M 51.8633,2.4082 C 52.068,1.66367 51.9488,1.39141 51.4395,1.25195 l 0.0492,-0.18242 2.8027,0.77266 c 1.1465,0.31406 1.7957,1.11054 1.5445,2.02265 -0.225,0.81758 -1.0539,1.34454 -2.0414,1.27735 l -0.0054,0.02226 c 0.7621,0.50664 1.025,1.04532 0.8418,1.71641 -0.2137,0.77383 -1.0575,1.3082 -2.5223,0.90273 l -2.2934,-0.62968 0.0496,-0.1793 c 0.5098,0.13867 0.7438,-0.00313 0.9563,-0.77852 L 51.8633,2.4082 z m 0.2226,2.34258 -0.7097,2.58164 0.6051,0.16602 C 52.9688,7.76953 53.5859,7.35781 53.7961,6.59297 54.0059,5.82813 53.6043,5.16953 52.7125,4.92539 L 52.0859,4.75078" /><path
       inkscape:connector-curvature="0"
       id="path3360"
       style="fill:#15213a;fill-opacity:1;fill-rule:nonzero;stroke:none"
       d="M 64.9164,7.5707 C 64.748,6.65742 64.3438,6.03789 63.6219,5.61836 62.3004,4.84531 61.2234,5.46719 60.6738,6.40742 l -1.5664,2.68164 c -0.4211,0.72188 -0.6945,0.75313 -1.1226,0.5043 l -0.0946,0.16094 1.968,1.1492 0.0945,-0.1617 C 59.5066,10.4813 59.4195,10.2141 59.8254,9.52031 l 1.6098,-2.75664 c 0.4886,-0.83711 1.3035,-1.16406 2.2257,-0.62656 0.6282,0.36602 0.9973,1.00312 1.0325,1.81484 l -1.9161,3.28045 c -0.3652,0.6278 -0.6355,0.7629 -1.0835,0.5262 l -0.0954,0.1617 1.9204,1.1203 0.0949,-0.1601 C 63.157,12.6121 63.1176,12.3098 63.5008,11.6551 l 1.9824,-3.39572 c 0.4148,-0.71407 0.7031,-0.75 1.1211,-0.5043 L 66.6988,7.59414 65.3602,6.80977 64.9164,7.5707" /><path
       inkscape:connector-curvature="0"
       id="path3362"
       style="fill:#15213a;fill-opacity:1;fill-rule:nonzero;stroke:none"
       d="m 69.7031,13.909 0.3559,0.3621 c 0.8121,0.8223 2.1031,0.0137 3.9496,-0.1523 l 0.9039,0.916 -0.1328,0.1328 c -0.7899,-0.6918 -2.55,0.489 -3.9184,0.1812 0.4539,0.8539 0.3012,1.5301 -0.1922,2.0172 -0.5961,0.5883 -1.6562,0.6742 -2.6535,-0.3367 l -1.8168,-1.843 0.1332,-0.132 c 0.3559,0.3602 0.6121,0.4012 1.2,-0.1785 L 70.3461,12.1 c 0.6047,-0.5961 0.5519,-0.8676 0.2113,-1.2129 l 0.1332,-0.1316 1.593,1.6156 -0.1336,0.1301 c -0.3629,-0.3672 -0.6664,-0.3457 -1.2152,0.1957 l -1.2317,1.2121 z m -2.2418,2.2129 0.4637,0.4703 c 0.6805,0.6898 1.5445,0.718 2.1406,0.1297 0.5172,-0.5102 0.741,-1.3172 -0.0082,-2.0781 l -0.5422,-0.5497 -2.0539,2.0278" /><path
       inkscape:connector-curvature="0"
       id="path3364"
       style="fill:#15213a;fill-opacity:1;fill-rule:nonzero;stroke:none"
       d="m 80.0684,22.6934 c -0.0993,-0.3532 -0.6368,-1.3418 -0.7856,-1.5856 -1.4437,-2.3699 -3.3535,-2.289 -4.5953,-1.5328 -1.909,1.1609 -2.0992,3.2637 -1.291,4.5887 0.4633,0.7621 0.8949,0.8984 1.1476,1.3133 0.1024,0.1687 0.1016,0.2722 0.0036,0.4089 l 0.1039,0.1707 1.5894,-0.9687 -0.0918,-0.1504 c -1.1117,0.4828 -2.1,-0.166 -2.5465,-0.8996 -0.6757,-1.1094 -0.2172,-2.5352 1.2602,-3.4348 1.5797,-0.9636 3.3187,-0.7336 4.0973,0.5457 0.2347,0.3871 0.4558,0.959 -0.0243,1.2528 l -0.5832,0.3543 c -0.657,0.4 -0.9847,0.3941 -1.2535,-0.0469 l -0.1262,-0.207 -0.1601,0.0976 1.3297,2.1809 0.1586,-0.0969 c -0.3199,-0.5277 -0.1516,-0.8234 0.3179,-1.1082 l 1.4493,-0.882" /><path
       inkscape:connector-curvature="0"
       id="path3366"
       style="fill:#15213a;fill-opacity:1;fill-rule:nonzero;stroke:none"
       d="m 79.8906,29.973 1.7563,-0.5062 c 0.7297,-0.2109 1.0148,-0.0969 1.164,0.4215 l 0.1801,-0.052 -0.6316,-2.1883 -0.1801,0.0508 c 0.134,0.4645 0.0391,0.7328 -0.7645,0.966 l -3.7765,1.0879 c -0.7195,0.2067 -1.0055,0.1305 -1.1621,-0.4089 l -0.1797,0.0515 0.6324,2.1887 0.1801,-0.0508 c -0.1375,-0.4762 -0.0113,-0.7523 0.7605,-0.9746 l 1.7254,-0.4984 0.9524,3.2996 -1.725,0.4988 c -0.741,0.2125 -1.0086,0.1199 -1.1582,-0.3984 l -0.1793,0.0507 0.625,2.17 0.18,-0.0528 c -0.1496,-0.5179 0.045,-0.759 0.7645,-0.9656 l 3.777,-1.0898 c 0.7199,-0.2071 1.0121,-0.1094 1.1613,0.4086 l 0.1804,-0.0508 -0.6269,-2.168 -0.1801,0.0508 c 0.1379,0.4769 0.0371,0.723 -0.7672,0.9543 l -1.7554,0.5082 -0.9528,-3.3028" /><path
       inkscape:connector-curvature="0"
       id="path3368"
       style="fill:#15213a;fill-opacity:1;fill-rule:nonzero;stroke:none"
       d="M 3.66914,41.991 C 3.66758,41.6836 3.41758,41.4359 3.10977,41.4387 c -0.30586,0 -0.55391,0.2519 -0.55157,0.5562 0.00196,0.3094 0.25235,0.5551 0.55821,0.5543 0.30703,-0.0035 0.55429,-0.2519 0.55273,-0.5582" /><path
       inkscape:connector-curvature="0"
       id="path3370"
       style="fill:#15213a;fill-opacity:1;fill-rule:nonzero;stroke:none"
       d="m 82.55,41.9793 c -0.0027,-0.3063 -0.2531,-0.5543 -0.5602,-0.5512 -0.307,8e-4 -0.5531,0.2508 -0.5523,0.5578 0.002,0.3067 0.2523,0.5539 0.5582,0.5528 0.307,-0.0032 0.5555,-0.252 0.5543,-0.5594" /><path
       inkscape:connector-curvature="0"
       id="path3372"
       style="fill:#15213a;fill-opacity:1;fill-rule:nonzero;stroke:none"
       d="m 58.7281,13.35 c 0.4442,0.2313 0.8504,0.5395 1.2778,0.8059 0.364,0.2183 0.7269,0.4418 1.0902,0.6644 0.3262,0.243 0.6238,0.5199 0.9602,0.75 0.35,0.2551 0.698,0.5098 1.0476,0.7621 0.0742,0.0696 0.1469,0.1418 0.2188,0.2117 0.0824,0.043 0.1648,0.0899 0.2449,0.1379 0.2984,0.2262 0.6019,0.4953 0.8793,0.7539 0.2246,0.2071 0.391,0.4434 0.6261,0.6532 0.2325,0.2117 0.4903,0.4027 0.729,0.6136 0.0992,0.0914 0.1535,0.1922 0.2421,0.2821 0.1926,0.1871 0.3934,0.3668 0.568,0.5687 0.1203,0.15 0.2434,0.2996 0.3676,0.4477 0.4348,0.4176 0.8301,0.8773 1.1941,1.3445 0.2957,0.3523 0.5922,0.7086 0.8864,1.0598 0.1953,0.2742 0.3906,0.5511 0.5832,0.8254 0.1019,0.1093 0.2039,0.2187 0.3082,0.3277 0.3156,0.4422 0.6343,0.8852 0.9507,1.3301 0.0938,0.1519 0.15,0.3082 0.2375,0.4636 0.0719,0.1024 0.1422,0.2055 0.2118,0.3024 0.0621,0.1289 0.1203,0.2586 0.1816,0.3883 0.2152,0.3668 0.4164,0.7347 0.6156,1.1062 0.1672,0.2852 0.3364,0.5699 0.502,0.8578 0.1394,0.2887 0.2265,0.5942 0.3558,0.8852 0.1461,0.3051 0.2891,0.6105 0.4336,0.9148 0.4875,1.3145 0.9688,2.6317 1.3594,3.9891 0.0297,0.1598 0.0582,0.3246 0.0867,0.4848 0.1063,0.4968 0.2422,1.0089 0.341,1.5164 0.0301,0.2605 0.0586,0.5226 0.0891,0.7843 0.0715,0.4243 0.157,0.8821 0.2156,1.3133 0.0278,0.3465 0.0547,0.6977 0.0817,1.0461 0.0261,0.1356 0.0515,0.2711 0.0801,0.4086 0.0144,0.291 0.0308,0.5824 0.048,0.8734 0.0156,0.1473 0.0605,0.284 0.068,0.4372 -4e-4,0.2031 -0.0059,0.4078 -0.009,0.6109 0.0914,1.3172 0.1148,2.7484 0.0437,4.0519 -0.0406,0.6801 -0.1988,1.3504 -0.2675,2.0133 -0.0782,0.7035 -0.1309,1.3992 -0.2715,2.0684 -0.3879,1.841 -0.9004,3.6484 -1.5492,5.3676 -0.0926,0.248 -0.2356,0.475 -0.3375,0.7172 -0.2114,0.5113 -0.4489,0.9859 -0.6961,1.473 -0.0809,0.1402 -0.1614,0.2785 -0.2422,0.4191 -0.2012,0.4258 -0.3418,0.8879 -0.5657,1.302 -0.1402,0.2555 -0.3039,0.473 -0.4664,0.7184 -0.1238,0.266 -0.2507,0.5308 -0.3746,0.7984 -0.4656,0.7238 -0.9492,1.4344 -1.4336,2.1437 -0.1843,0.2141 -0.3683,0.4262 -0.5507,0.6387 -0.2043,0.2625 -0.4075,0.5266 -0.6114,0.7902 -0.1949,0.1969 -0.4105,0.3614 -0.5836,0.5805 -0.0988,0.1254 -0.1562,0.2574 -0.2609,0.3844 -0.1523,0.1668 -0.3055,0.3351 -0.4586,0.4996 -0.0906,0.0844 -0.1828,0.1672 -0.2734,0.252 -0.2332,0.264 -0.4504,0.5359 -0.6911,0.7949 -0.2113,0.1965 -0.4203,0.3949 -0.6292,0.5926 -0.204,0.2043 -0.4047,0.4089 -0.609,0.6148 -0.2789,0.2168 -0.5606,0.4332 -0.8418,0.6484 -0.2875,0.2547 -0.5785,0.5055 -0.868,0.7602 -0.1918,0.1445 -0.3988,0.2453 -0.5941,0.3738 -0.2465,0.1809 -0.4973,0.3617 -0.7465,0.5414 -0.1875,0.1324 -0.3469,0.2774 -0.5266,0.4246 -0.1351,0.0809 -0.2691,0.1653 -0.4031,0.2477 -0.1809,0.1277 -0.3602,0.2547 -0.543,0.3836 -0.5945,0.3637 -1.232,0.6402 -1.8496,0.959 -0.225,0.1402 -0.4504,0.2832 -0.6734,0.425 -0.3907,0.1953 -0.7778,0.3914 -1.1653,0.5871 -0.3175,0.1519 -0.6484,0.2625 -0.9742,0.3902 -0.1586,0.0891 -0.3195,0.1762 -0.4777,0.2652 -0.1235,0.0438 -0.2485,0.0864 -0.3707,0.1301 -0.1953,0.0864 -0.3899,0.1746 -0.5856,0.261 -0.6105,0.2226 -1.2523,0.3808 -1.8855,0.5757 -0.2973,0.0899 -0.609,0.2122 -0.9102,0.2997 -0.6609,0.1929 -1.3179,0.2945 -2.0019,0.4476 -0.4367,0.1 -0.8957,0.2262 -1.3418,0.3016 -0.2895,0.0406 -0.5817,0.0785 -0.8684,0.1191 -0.4824,0.1 -1.0187,0.1863 -1.5219,0.2473 -0.1906,0.0043 -0.3863,0.0094 -0.5808,0.016 -0.1328,0.0187 -0.2695,0.0355 -0.4067,0.0543 -0.2621,0.0035 -0.5238,0.0078 -0.7878,0.0125 -0.5899,0.0414 -1.2141,0.0891 -1.8348,0.0934 -0.2406,-0.0704 -0.5785,-0.0278 -0.8461,-0.0266 -0.3203,0 -0.6402,-0.0012 -0.9609,-0.0012 -0.0883,-0.0148 -0.175,-0.0289 -0.2633,-0.0426 -0.2227,-0.0058 -0.4457,-0.0117 -0.6692,-0.0171 -0.1179,-0.0278 -0.2359,-0.0567 -0.3546,-0.0852 -0.1149,-0.0152 -0.2305,-0.0281 -0.3465,-0.0426 -0.1114,0 -0.225,0.0102 -0.3211,-0.0277 -0.066,-0.0102 -0.1348,-0.0188 -0.2024,-0.0278 -0.1437,0 -0.2965,0.0047 -0.4093,-0.0554 -0.3129,0.0012 -0.7778,-0.0387 -1.0204,-0.1699 -0.0671,-0.0086 -0.1363,-0.0176 -0.2035,-0.0282 -0.1984,0.0028 -0.4605,-0.0226 -0.614,-0.1125 -0.5145,0.0035 -0.9399,-0.2152 -1.4063,-0.3257 -0.2476,-0.0586 -0.543,-0.0864 -0.7551,-0.2153 -0.2031,0.0012 -0.423,-0.05 -0.5836,-0.1422 -0.325,0.0016 -0.6062,-0.1871 -0.8839,-0.2945 -0.1637,-0.0633 -0.3692,-0.0668 -0.5157,-0.1645 -0.325,0.0012 -0.6117,-0.1867 -0.8797,-0.3074 -0.1847,-0.0793 -0.3707,-0.1554 -0.5554,-0.234 -1.0012,-0.4203 -1.9789,-0.8992 -2.9406,-1.4 -0.1618,-0.1046 -0.325,-0.2086 -0.4875,-0.3109 -1.1528,-0.5832 -2.2915,-1.2242 -3.3114,-2.0539 -0.3008,-0.2156 -0.6019,-0.4309 -0.9019,-0.6457 -0.1571,-0.1406 -0.316,-0.2836 -0.4723,-0.4242 -0.293,-0.216 -0.5988,-0.3996 -0.8828,-0.6375 -0.5793,-0.491 -1.125,-1.0399 -1.6625,-1.5719 -0.3297,-0.2992 -0.6617,-0.5996 -0.993,-0.8992 C 18.6563,65.6625 18.543,65.532 18.4316,65.4008 18.2809,65.2609 18.1293,65.1215 17.9801,64.9816 17.7418,64.7391 17.5762,64.4477 17.3461,64.2113 17.1469,64.009 16.9477,63.8203 16.7676,63.5957 16.6867,63.484 16.6012,63.3715 16.5203,63.2605 16.1715,62.8695 15.8324,62.4844 15.532,62.0621 15.3258,61.7418 15.1203,61.4203 14.9145,61.0984 14.6172,60.7172 14.2824,60.2242 14.0543,59.8051 13.9855,59.668 13.918,59.5324 13.8508,59.3953 13.6512,59.0617 13.4508,58.7301 13.2504,58.3996 13.0766,58.0527 12.959,57.682 12.7852,57.334 12.7039,57.1996 12.6238,57.0656 12.5438,56.9313 12.3746,56.618 12.232,56.3047 12.0516,55.9953 11.9699,55.7949 11.8871,55.5934 11.8047,55.391 11.7043,55.1848 11.6063,54.9773 11.5066,54.7699 11.4266,54.5316 11.3441,54.2945 11.2641,54.0563 11.166,53.8008 11.068,53.5449 10.9691,53.2883 10.4754,51.6926 10.0609,50.0898 9.72188,48.3996 9.69336,48.0805 9.66484,47.7629 9.63672,47.443 9.59219,47.0738 9.46602,46.6727 9.43516,46.3063 9.41016,46.0219 9.42148,45.698 9.34141,45.4324 9.3207,45.2078 9.30039,44.9844 9.27969,44.7637 9.2293,43.3941 9.26602,42.0934 9.30117,40.7695 c 0.01797,-0.6363 0.14258,-1.2722 0.19844,-1.8968 0.01445,-0.2711 0.02734,-0.5414 0.04102,-0.8149 0.08671,-0.8527 0.23203,-1.7172 0.36484,-2.564 0.0625,-0.2157 0.12113,-0.4313 0.18083,-0.6481 0.1426,-0.6684 0.2922,-1.3152 0.486,-1.957 0.0562,-0.1446 0.1132,-0.291 0.1695,-0.4371 0.0355,-0.1536 0.0738,-0.3055 0.1094,-0.4586 0.2519,-0.7094 0.5043,-1.42 0.7551,-2.1262 0.1253,-0.2664 0.25,-0.5355 0.3734,-0.802 0.0719,-0.1757 0.1094,-0.3738 0.1851,-0.5476 0.1922,-0.4535 0.4735,-0.8606 0.7028,-1.2977 0.1812,-0.3558 0.3969,-0.6965 0.5762,-1.0539 0.0519,-0.1273 0.105,-0.2562 0.1566,-0.3851 0.0625,-0.0789 0.125,-0.1524 0.1875,-0.2301 0.0687,-0.1496 0.1371,-0.2981 0.2062,-0.4481 0.1696,-0.2976 0.375,-0.5855 0.5911,-0.8597 0.1277,-0.1629 0.2336,-0.3473 0.3636,-0.511 0.1746,-0.2207 0.3719,-0.4226 0.5364,-0.6492 0.1261,-0.1883 0.2519,-0.3734 0.38,-0.5597 0.2379,-0.2848 0.4762,-0.5711 0.7164,-0.852 0.1977,-0.2496 0.3954,-0.5004 0.5914,-0.7504 0.2481,-0.2586 0.4942,-0.516 0.7411,-0.7734 0.2023,-0.2356 0.3777,-0.5133 0.6113,-0.7281 0.3332,-0.3055 0.6605,-0.6168 0.9684,-0.927 0.1648,-0.166 0.3289,-0.3328 0.4917,-0.4965 0.27,-0.2351 0.5852,-0.4031 0.8442,-0.6488 0.2496,-0.243 0.5016,-0.4852 0.7551,-0.7281 0.1828,-0.1403 0.3656,-0.2809 0.5472,-0.4204 0.2254,-0.1933 0.4172,-0.4156 0.6614,-0.5882 0.2929,-0.1993 0.5668,-0.4317 0.8726,-0.6082 0.2024,-0.1168 0.4188,-0.1774 0.6133,-0.3071 0.2266,-0.1601 0.4535,-0.3203 0.6805,-0.48 0.2222,-0.1457 0.4765,-0.2606 0.7043,-0.4 0.8593,-0.527 1.7269,-0.9809 2.6308,-1.4129 0.3969,-0.1922 0.7723,-0.4364 1.1973,-0.5805 0.3902,-0.1523 0.7785,-0.3035 1.1683,-0.4527 0.1418,-0.0395 0.2856,-0.0832 0.4262,-0.1223 0.3832,-0.1461 0.7637,-0.2926 1.1457,-0.441 0.1024,-0.0301 0.2047,-0.0613 0.3086,-0.0914 0.3293,-0.1289 0.6567,-0.2801 1.0012,-0.375 0.4156,-0.0821 0.8308,-0.1602 1.2465,-0.2418 0.6187,-0.12893 1.266,-0.32112 1.8972,-0.4176 0.2313,-0.01953 0.4618,-0.04024 0.6961,-0.05586 0.3059,-0.03906 0.6137,-0.11211 0.9328,-0.14063 0.2418,-0.01328 0.4825,-0.03086 0.7247,-0.04648 0.1578,-0.02344 0.3144,-0.04805 0.4699,-0.07344 0.1648,-0.00586 0.3297,-0.01172 0.4945,-0.01641 0.3801,-0.05546 0.7566,-0.11406 1.1356,-0.1707 0.1937,-0.00976 0.3894,-0.01758 0.5828,-0.02539 0.1168,0.01367 0.2343,0.02734 0.3515,0.03906 0.3465,-0.00195 0.759,-0.03906 1.1059,-0.05586 0.2223,-0.00468 0.4297,0.01094 0.6414,0 0.4359,-0.02226 0.8512,0.06368 1.2559,0.12305 0.1832,0.00781 0.3679,0.01367 0.5503,0.01953 0.2489,0.03047 0.5153,0.07305 0.7602,0.09258 0.9027,0.0832 1.7762,0.18477 2.6512,0.35625 0.2926,0.07813 0.5867,0.1543 0.8801,0.23242 0.3675,0.07308 0.7351,0.15118 1.1019,0.22498 0.1918,0.0547 0.3609,0.1504 0.5414,0.2227 0.3,0.0887 0.5981,0.1765 0.8984,0.2664 0.1282,0.0469 0.2551,0.0898 0.3833,0.1367 0.2175,0.0586 0.4132,0.0816 0.6292,0.1481 0.4411,0.1523 0.8805,0.3093 1.3247,0.4636 0.2613,0.1278 0.525,0.2489 0.7871,0.3735 0.2558,0.0988 0.5109,0.2148 0.7558,0.3289 0.0715,0.0422 0.1391,0.0871 0.2098,0.1289 0.2648,0.125 0.5406,0.25 0.7988,0.3836 0.3,0.1715 0.6,0.3394 0.9008,0.5121 0.1539,0.0781 0.3246,0.123 0.4781,0.2031" /><path
       inkscape:connector-curvature="0"
       id="path3374"
       style="fill:#ffffff;fill-opacity:1;fill-rule:nonzero;stroke:none"
       d="m 42.2055,11.9934 c -0.0102,0 -0.02,0 -0.0297,0 0,0.0109 0,0.0199 0,0.0304 -0.0449,0 -0.0668,0.0559 -0.0918,0.0867 -0.1125,0.1797 -0.2258,0.359 -0.3387,0.5387 -0.2355,0.2742 -0.4726,0.5512 -0.7086,0.8293 -0.7074,0.6723 -1.5355,1.2481 -2.4039,1.6238 -0.1789,0.0641 -0.3598,0.1317 -0.5387,0.1961 -0.2003,0.0868 -0.3836,0.202 -0.5914,0.2782 -0.1941,0.0718 -0.4019,0.0957 -0.6093,0.1336 -0.2094,0.0398 -0.4246,0.0984 -0.6403,0.1464 -0.4449,0.0895 -0.8926,0.2235 -1.3433,0.3043 -0.4371,0.0547 -0.8719,0.1075 -1.309,0.1649 -0.3485,0.0176 -0.682,0.0117 -1.0184,0.043 -1.5781,0.1597 -3.1394,0.3132 -4.6648,0.5589 -0.5196,0.0879 -1.0278,0.0899 -1.5375,0.1797 -0.5055,0.0895 -1.0141,0.236 -1.4949,0.3895 -0.2668,0.0836 -0.5403,0.1461 -0.7977,0.2437 -0.2543,0.1133 -0.5074,0.2274 -0.7605,0.3426 -0.175,0.0797 -0.3504,0.159 -0.525,0.2352 -0.1204,0.0777 -0.243,0.157 -0.3668,0.2359 -0.0582,0.032 -0.1172,0.0625 -0.1758,0.0965 -0.4164,0.334 -0.7449,0.7953 -1.0653,1.2023 -0.2464,0.3141 -0.3757,0.6797 -0.4929,1.0586 -0.0559,0.1883 -0.1141,0.3754 -0.1723,0.5629 -0.1848,0.8723 -0.1656,1.7836 -0.1754,2.7367 -0.0137,0.1848 -0.0316,0.3692 -0.0472,0.5563 0.0253,0.7074 0.0695,1.4265 0.0835,2.1269 -0.005,0.1543 -0.0101,0.3086 -0.0168,0.4657 0.004,0.7074 0.0071,1.4168 0.0118,2.1261 0.0027,0.4664 0.039,0.9258 0.0351,1.3688 -0.0195,1.9105 0.0145,3.8433 0.0574,5.7715 -0.0156,0.2711 -0.03,0.5433 -0.0468,0.8175 -0.0028,0.3004 0.0308,0.5856 0.0312,0.8715 -0.0047,0.1364 -0.0086,0.2742 -0.0117,0.4106 0.0359,0.4343 0.073,0.8734 0.1086,1.3093 0.0082,0.3399 -0.0219,0.6723 -0.0219,0.9895 0.002,0.2391 0.0383,0.482 0.0281,0.7301 -0.0085,0.2008 -0.0554,0.3902 -0.0503,0.6121 0.0113,0.1844 0.0222,0.3699 0.0308,0.5535 -0.0039,0.3707 -0.0289,0.7754 -0.0211,1.1656 0.0047,0.2254 0.0367,0.4629 0.0309,0.7 -0.0067,0.259 -0.0574,0.5157 -0.0504,0.7875 0.0308,0.3192 0.0601,0.6403 0.0898,0.9602 0.0082,0.3133 -0.0183,0.6137 -0.0172,0.9055 0.0036,0.6527 0.0321,1.3593 0.0356,2.0386 0.0055,0.1371 0.0125,0.2719 0.0164,0.4078 -0.0141,0.2914 -0.0305,0.5836 -0.0457,0.8746 0.0234,0.2516 0.0457,0.5047 0.0711,0.7579 0.0226,1.2129 0.0191,2.4609 0.0465,3.6445 0.0019,0.4074 0.0019,0.8148 0.0039,1.2226 -0.0117,0.2879 -0.0543,0.5692 -0.0477,0.8739 0.0102,0.1949 0.0199,0.3902 0.0321,0.5828 0.0058,1.0223 -0.018,2.0484 -0.0122,3.0891 0.0028,0.3781 0.0356,0.7175 0.0336,1.08 -0.0058,0.4086 -0.0222,0.8508 -0.0203,1.2817 0.002,0.28 0.0324,0.5527 0.034,0.8449 0.0012,0.2324 -0.0445,0.5586 0.0324,0.7574 0.0016,0.0578 0.0696,0.0485 0.118,0.0543 0.4195,0.059 0.9473,0.1133 1.3973,0.0438 0.5543,-0.0852 1.1132,0.0046 1.6918,0.0011 0.514,-0.0035 1.0285,-0.0043 1.5445,-0.0054 0.3113,0.0172 0.6207,0.0332 0.934,0.0504 0.5804,-0.0036 1.1187,-0.0391 1.6879,-0.034 0.6824,0.005 1.4207,0.016 2.1304,0.0125 0.202,-0.0094 0.4059,-0.02 0.6106,-0.0278 0.2894,0.0161 0.5824,0.0286 0.875,0.0446 0.2422,-0.0055 0.4699,-0.0563 0.7281,-0.0575 0.3266,-0.0023 0.6227,0.029 0.9305,0.0207 0.4793,-0.0089 0.9933,-0.0113 1.489,-0.039 0.2317,-0.0188 0.4645,-0.036 0.6969,-0.0543 0.686,0.0066 1.4004,0.0355 2.0715,0.043 0.4578,-0.0129 0.9145,-0.0247 1.3695,-0.0379 0.3868,0.005 0.7703,0.0793 1.1649,0.0769 0.2769,-0.0015 0.5832,-0.0277 0.8754,-0.0289 0.2625,0.0035 0.5238,0.0094 0.7863,0.0113 0.3008,-0.023 0.6031,-0.0468 0.9043,-0.0722 0.2332,0.0113 0.4668,0.0219 0.6992,0.0332 0.4578,-0.0172 0.9121,-0.0332 1.3695,-0.0508 0.2153,0.0176 0.4286,0.0336 0.6414,0.0508 1.2442,0.032 2.4161,8e-4 3.6719,0.0129 0.2746,0.016 0.5465,0.0343 0.8168,0.0504 0.5606,0.0152 1.1528,-0.0243 1.6903,0.0152 0.1191,0.0102 0.2335,0.023 0.3511,0.032 0.4668,-0.0461 1.0129,0.0035 1.5149,-0.0082 0.2082,-0.0031 0.3804,-0.0539 0.582,-0.0586 0.2234,0.0078 0.4484,0.0129 0.6699,0.0207 0.3594,-0.0129 0.7746,-0.0562 1.1367,-0.0515 0.2524,8e-4 0.4954,0.0496 0.7606,0.0422 0.1848,-0.0161 0.3672,-0.0332 0.5531,-0.0504 0.2567,-0.0047 0.5492,0.0324 0.8152,0.0113 0.1844,-0.0285 0.3684,-0.0551 0.5547,-0.0813 0.1536,0.0051 0.3098,0.0125 0.4664,0.0196 0.1641,-0.011 0.3289,-0.0188 0.4957,-0.0281 0.1645,0.0058 0.3293,0.0164 0.4934,0.0246 0.3129,0.0043 0.6121,-0.0325 0.9035,-0.0118 0.4754,0.0356 0.9418,-0.0347 1.4293,-0.0296 0.2328,0.0144 0.4653,0.0304 0.6977,0.0468 0.1566,-0.009 0.3113,-0.0172 0.4679,-0.025 0.1461,-0.0015 0.3301,0.0172 0.4532,-0.0328 0.0097,-0.0078 0.0215,-0.018 0.0336,-0.0262 0.1035,-0.1531 0.0644,-0.4378 0.0621,-0.6449 -0.0039,-0.6656 -0.0332,-1.3101 -0.0055,-1.9515 0.0152,-0.4063 0.0098,-0.8719 0.0137,-1.2825 -0.0082,-0.1363 -0.0137,-0.2726 -0.0219,-0.4066 0.0098,-0.2926 0.0234,-0.5824 0.0332,-0.8742 -0.0152,-0.2922 -0.0309,-0.5832 -0.0488,-0.877 0.0238,-0.3777 0.0488,-0.7586 0.0726,-1.1363 -0.0179,-0.143 -0.0336,-0.2918 -0.0508,-0.4367 -0.0097,-0.2539 0.0411,-0.4836 0.0391,-0.7297 -0.016,-0.2524 -0.0316,-0.5043 -0.0473,-0.7566 -0.0015,-0.311 -0.0074,-0.6215 -0.0113,-0.9317 -0.0156,-0.2336 -0.0351,-0.4672 -0.0512,-0.6988 0.0274,-0.3801 0.0551,-0.7586 0.0782,-1.1363 -0.0098,-0.1372 -0.0211,-0.2743 -0.0352,-0.4098 -0.0113,-0.3149 -0.0351,-0.6313 -0.0308,-0.9328 0.0054,-0.5391 0.0503,-1.141 0.0562,-1.6602 -0.0133,-0.1176 -0.0269,-0.2336 -0.0391,-0.3512 0.0098,-0.2421 0.0196,-0.4824 0.0293,-0.7253 -0.0136,-0.2813 -0.041,-0.5977 -0.0425,-0.9067 0,-0.2254 0.0484,-0.4211 0.0425,-0.641 -0.0136,-0.116 -0.0293,-0.2336 -0.0464,-0.3504 0.0074,-0.1539 0.0136,-0.3105 0.0171,-0.4637 -0.0132,-0.5851 -0.0664,-1.1515 -0.0586,-1.7511 0.0098,-0.2903 0.0176,-0.5817 0.0293,-0.8743 0.0137,-0.1175 0.0274,-0.2324 0.045,-0.3496 -0.0075,-0.1949 -0.0192,-0.3882 -0.0274,-0.5832 0.0059,-0.1254 0.0141,-0.2515 0.0199,-0.3773 -0.0179,-0.2137 -0.0335,-0.4274 -0.0507,-0.641 0.0015,-0.2899 0.0718,-0.5953 0.0605,-0.9035 -0.0312,-0.8532 -0.0785,-1.6579 -0.0844,-2.5067 -0.0019,-0.3445 0.0532,-0.65 0.0508,-0.9914 -0.0172,-0.1855 -0.0367,-0.3699 -0.0547,-0.5531 -0.0039,-0.3992 -0.0074,-0.7984 -0.0136,-1.1953 -0.0196,-0.2137 -0.0395,-0.4274 -0.0567,-0.641 0.0098,-0.8071 0.0215,-1.6121 0.0336,-2.418 -0.0043,-0.5609 -0.0613,-1.157 -0.0555,-1.7199 0.0141,-0.302 0.0293,-0.6024 0.0414,-0.9059 -0.0058,-0.1172 -0.0136,-0.232 -0.0195,-0.3504 -0.0023,-0.2125 -0.0039,-0.4254 -0.0058,-0.6406 -0.0039,-0.5203 0.0214,-1.0441 0.0195,-1.543 -0.0039,-0.6047 0.0019,-1.2574 -0.0117,-1.8937 -0.0078,-0.1766 -0.0157,-0.3485 -0.0215,-0.5239 0.0117,-0.1082 0.0254,-0.2136 0.039,-0.321 -0.0175,-0.3707 -0.0371,-0.7395 -0.0527,-1.1075 -0.0078,-0.3109 0.0371,-0.641 0.0156,-0.9609 -0.0351,-0.1953 -0.0722,-0.3914 -0.1054,-0.5875 -0.0278,-0.2109 -0.0551,-0.4215 -0.0797,-0.6344 -0.0746,-0.3609 -0.3387,-0.882 -0.5305,-1.1902 -0.166,-0.2664 -0.4437,-0.4106 -0.657,-0.6246 -0.1289,-0.1246 -0.2735,-0.2086 -0.4078,-0.3207 -0.2489,-0.2129 -0.4957,-0.4371 -0.7778,-0.5867 -0.18,-0.0672 -0.3597,-0.1344 -0.5394,-0.2008 -0.3637,-0.1485 -0.7278,-0.3121 -1.1,-0.4539 -0.3418,-0.1285 -0.7047,-0.2243 -1.0457,-0.352 -0.0828,-0.0312 -0.1723,-0.0625 -0.2582,-0.0906 -0.1879,8e-4 -0.4403,-0.0852 -0.5856,-0.1731 -0.1625,0.002 -0.3336,-0.0175 -0.4648,-0.0847 -0.2477,0.0027 -0.4238,-0.0692 -0.625,-0.1434 -0.0629,-0.0195 -0.1274,-0.0383 -0.1906,-0.0558 -0.102,0 -0.2161,-0.0106 -0.2946,-0.0555 -0.1933,8e-4 -0.6429,-0.0887 -0.7875,-0.1707 -0.1711,0 -0.3804,0.0312 -0.5238,-0.0274 -0.1012,0 -0.2152,-0.0117 -0.2937,-0.0566 -0.1563,0.002 -0.3422,0.0195 -0.4665,-0.0555 -0.0761,-0.009 -0.1562,-0.0187 -0.2332,-0.0285 -0.1226,0 -0.2527,-0.0039 -0.3496,-0.0555 -0.1082,0 -0.2332,-0.0128 -0.3203,-0.0566 -0.2035,0.002 -0.5074,0.0332 -0.6715,-0.0566 -0.0769,-0.0078 -0.1554,-0.0157 -0.2324,-0.0254 -0.1984,0.0031 -0.4441,0.073 -0.6133,-0.0274 -0.1164,0.002 -0.255,0.0176 -0.3504,-0.0254 -0.0589,-0.0117 -0.116,-0.0195 -0.1738,-0.0269 -0.1871,0 -0.4254,0.0348 -0.5832,-0.0266 -0.0781,-0.0105 -0.1558,-0.0195 -0.2332,-0.0285 -0.059,-0.0098 -0.1176,-0.0191 -0.1746,-0.0269 -0.059,-0.0122 -0.1184,-0.0215 -0.1738,-0.0293 -0.0887,-0.0098 -0.1766,-0.0176 -0.2649,-0.0293 -0.1215,0.0019 -0.2547,-0.0039 -0.35,-0.0547 -0.0785,-0.0078 -0.1554,-0.0196 -0.2336,-0.0274 -0.1308,0 -0.2804,0.0039 -0.3797,-0.0578 -0.1238,0 -0.2546,-8e-4 -0.3484,-0.0562 -0.0996,0 -0.2172,-0.0117 -0.2914,-0.0539 -0.0926,0 -0.1918,-0.0164 -0.2641,-0.0586 -0.057,-0.0086 -0.1156,-0.0172 -0.1742,-0.0301 -0.1492,0.0019 -0.3476,-0.043 -0.4679,-0.1102 -0.0954,0 -0.1895,-0.0168 -0.2633,-0.0597 -0.3043,0.0019 -0.5676,-0.1364 -0.8254,-0.2371 -0.2,-0.0731 -0.402,-0.1461 -0.6024,-0.2204 -0.3914,0.002 -0.8054,-0.3589 -1.0937,-0.5984 -0.2524,-0.2066 -0.5781,-0.309 -0.8262,-0.5433 -0.6922,-0.6411 -1.109,-1.5036 -1.4523,-2.3379" /><path
       inkscape:connector-curvature="0"
       id="path3376"
       style="fill:#15213a;fill-opacity:1;fill-rule:nonzero;stroke:none"
       d="m 45.4551,16.1336 c 0.1793,0.075 0.3582,0.1512 0.539,0.2273 0.3543,0.1055 0.727,0.1727 1.1016,0.2536 0.6996,0.1511 1.3781,0.3347 2.0789,0.482 0.1738,0.0109 0.3445,0.0226 0.5168,0.0344 0.2715,0.0496 0.5363,0.1168 0.8211,0.1421 0.3684,0.0137 0.7379,0.0254 1.1074,0.0372 0.4438,0.0332 0.8949,0.1289 1.343,0.1613 0.4012,0.0293 0.7984,0.0426 1.1918,0.0933 0.3531,0.0547 0.7031,0.1145 1.0531,0.1719 0.1164,0.0078 0.2324,0.0184 0.3457,0.0262 0.5434,0.0879 1.0664,0.2168 1.5844,0.3375 0.1781,0.043 0.3473,0.0625 0.5172,0.1113 0.4984,0.1473 0.9824,0.3426 1.4676,0.4977 0.4074,0.1328 0.8003,0.2558 1.1824,0.4293 0.3312,0.1511 0.609,0.364 0.9183,0.5574 0.55,0.3461 1.1512,0.7141 1.4938,1.2945 0.1519,0.2574 0.293,0.641 0.3394,0.9465 0.0122,0.1445 0.0219,0.2906 0.0317,0.4371 0.1055,0.6293 0.0898,1.3192 0.082,1.977 0.0117,0.2332 0.0195,0.4672 0.0317,0.7015 -0.0082,0.1246 -0.0141,0.2516 -0.0239,0.3774 0,0.2519 0,0.5047 -0.0015,0.7562 -0.0141,0.0977 -0.0258,0.1961 -0.0395,0.2938 0.0098,0.0867 0.0199,0.1734 0.0297,0.2613 -0.0098,0.0859 -0.0199,0.1746 -0.0316,0.2625 0.0039,0.1719 0.0511,0.3133 0.0511,0.4949 0.0016,0.195 -0.0492,0.3375 -0.0511,0.5258 -0.002,0.2223 0.0546,0.3875 0.0609,0.6098 0.0133,0.7668 0.0059,1.5211 0.0352,2.2761 -0.0083,0.1836 -0.0141,0.3672 -0.0196,0.5504 0.0035,0.6727 0.0074,1.3418 0.0098,2.0102 0.039,1.8266 0.0156,3.773 0.0562,5.5988 -0.0113,0.1918 -0.0195,0.3879 -0.0332,0.5813 -0.0074,0.0597 -0.0156,0.1152 -0.023,0.1738 0.0098,0.1453 0.041,0.3082 0.0351,0.4672 -0.0121,0.1074 -0.0238,0.2148 -0.0351,0.3199 0.0058,0.1516 0.0449,0.3035 0.0426,0.4676 -0.0036,0.3375 -0.084,0.6234 -0.0821,0.9621 0.002,0.232 0.0352,0.4312 0.0508,0.641 -0.0015,0.1067 -0.0055,0.2152 -0.0098,0.3211 0.0157,0.1047 0.0313,0.2156 0.0473,0.3199 -0.0137,0.127 -0.0277,0.2524 -0.0453,0.3801 0.0176,0.1438 0.0316,0.2902 0.0473,0.4352 -0.0043,0.1328 -0.045,0.241 -0.045,0.3812 0.004,0.7953 0.0098,1.5926 0.0137,2.3879 0.0016,0.182 0.0488,0.3238 0.0547,0.4984 0.0059,0.1719 -0.0488,0.3008 -0.0434,0.4629 0.0141,0.0879 0.0297,0.1778 0.0434,0.2641 0.0133,0.2625 0.0254,0.5238 0.041,0.7863 -0.0058,0.3996 -0.0097,0.8367 -0.0254,1.2539 -0.0156,0.1348 -0.0336,0.2703 -0.0508,0.4075 -0.0023,0.3281 0.0567,0.6171 0.0524,0.9328 -0.0133,0.2429 -0.0293,0.4847 -0.0426,0.7289 0.0098,1.8765 -0.0629,3.6789 0.0074,5.5406 0.0059,1.0164 0.0121,2.0367 0.018,3.0566 0.0195,0.5528 -0.0219,1.1551 -0.0277,1.6914 -0.0055,0.5469 0.0058,1.043 0.0097,1.6028 -0.0097,0 -0.0195,0 -0.0308,0 0,0.0609 -0.2742,0.023 -0.3211,0.0015 -0.5414,0.0067 -1.0867,0.0145 -1.6285,0.0215 -0.3528,0.0313 -0.7039,0.0555 -1.0801,0.0504 -0.1047,0 -0.2336,0.0117 -0.3203,-0.0269 -0.1332,-0.0129 -0.2715,-0.027 -0.4071,-0.0407 -0.1945,0.0231 -0.3898,0.0485 -0.5859,0.0739 -0.6797,0.0047 -1.3586,0.0089 -2.0387,0.0132 -0.191,0.0016 -0.6855,0.0625 -0.8152,0.0051 -0.3504,0.0035 -0.6996,0.0078 -1.0488,0.0117 -0.2649,0.0196 -0.6446,0.1313 -0.9051,0.0297 -0.0758,-0.0101 -0.1555,-0.0195 -0.2313,-0.0297 -0.2531,0.0036 -0.5058,0.0071 -0.7589,0.0102 -0.3758,0.0266 -0.7438,0.0875 -1.136,0.0898 -0.2918,-0.0851 -0.7097,0.0563 -0.9918,-0.0543 -0.0769,-0.0089 -0.1551,-0.0183 -0.2312,-0.0277 -0.3008,0.0016 -0.602,0.0035 -0.9043,0.0051 -0.1469,0 -0.3469,0.0273 -0.4672,-0.0277 -0.091,7e-4 -0.2188,0.0101 -0.2934,-0.0266 -0.2504,0.0012 -0.4605,0.0527 -0.6988,0.0609 -0.6004,0.0028 -1.2023,0.0078 -1.8051,0.0114 -0.2183,0.0015 -0.5418,0.0488 -0.7269,-0.0262 -0.0692,-0.0078 -0.1375,-0.0172 -0.2063,-0.0277 -0.0879,-0.0083 -0.1761,-0.0172 -0.2621,-0.0266 -0.3398,0.0016 -0.9027,0.1797 -1.1957,0.0633 -0.0586,-0.0078 -0.1148,-0.0168 -0.1734,-0.0262 -0.1289,0 -0.2797,-0.0023 -0.3809,-0.0566 -0.8687,0.0035 -1.7351,0.0101 -2.5644,0.0277 -0.22,0.0059 -0.4528,-0.0059 -0.67,-0.0051 -0.1035,0 -0.2578,0.0434 -0.3496,-0.0031 -0.2152,0.0031 -0.4265,0.0066 -0.6418,0.0094 -0.2965,0.0207 -0.9535,0.1394 -1.2234,0.03 -0.1949,0.0036 -0.3883,0.0071 -0.5828,0.0079 -0.1289,0.0117 -0.286,0.0472 -0.4106,-8e-4 -0.1718,0 -0.4027,0.032 -0.5511,-0.027 -0.3477,0.0024 -0.6543,0.0625 -1.0207,0.0649 -0.1157,0 -0.2516,0.0129 -0.3493,-0.0289 -0.2156,0.0019 -0.5179,0.0484 -0.6996,-0.0243 -0.3312,8e-4 -0.6605,0.0024 -0.9922,0.0043 -0.1543,0.0016 -0.3671,0.0313 -0.4933,-0.0254 -0.4176,-0.0035 -0.836,-0.0043 -1.2531,-0.007 -0.2649,0.0195 -0.7774,0.118 -1.0215,0.0195 -0.2625,0.0016 -0.716,0.0915 -0.9328,0.0075 -0.5512,0.0011 -1.0586,0.0332 -1.6032,0.0703 -0.1918,0.0144 -0.4871,0.0793 -0.6707,-0.0024 -0.1078,0.0024 -0.2285,0.0153 -0.3207,-0.0277 -0.2082,0.0023 -0.4925,0.0461 -0.6683,-0.0238 -0.1844,8e-4 -0.4676,0.0468 -0.6145,-0.0246 -0.689,0.0023 -1.4199,0.0371 -2.1543,0.0406 -0.2144,0 -0.5199,0.0473 -0.7004,-0.0254 -0.2656,8e-4 -0.8461,0.0562 -1.0504,-0.023 -0.1535,0 -0.4238,0.0433 -0.525,-0.0543 -0.164,-0.1555 -0.0742,-0.92 -0.0683,-1.1672 -0.0067,-0.1938 -0.0145,-0.3883 -0.0238,-0.5832 0.0066,-0.177 0.032,-0.3614 0.0121,-0.5528 0,-0.2726 7e-4,-0.5433 0.0019,-0.816 -0.0273,-0.7441 -0.0351,-1.4555 -0.0394,-2.218 -0.0012,-0.2046 -0.0516,-0.3589 -0.0586,-0.5511 -0.0086,-0.2024 0.0355,-0.3985 0.0336,-0.5817 -0.0243,-0.1851 -0.0461,-0.3707 -0.0692,-0.5547 0.0102,-0.3882 0.0172,-0.7761 0.0293,-1.1628 -0.0273,-0.6622 -0.0582,-1.3715 -0.0504,-2.0723 0.0106,-0.2719 0.0203,-0.5438 0.0301,-0.8137 0.0106,-0.0894 0.0223,-0.1758 0.0328,-0.2633 -0.0222,-0.1656 -0.0414,-0.3316 -0.0637,-0.4953 0.0125,-1.1883 -0.0199,-2.3219 -0.0269,-3.5273 -0.0027,-0.5231 0.0254,-1.0055 0.0141,-1.5156 -0.0184,-0.2512 -0.0364,-0.5043 -0.0555,-0.759 0.0066,-0.3785 0.0144,-0.7578 0.0223,-1.1364 -0.0047,-0.7515 -0.0368,-1.5347 -0.0297,-2.3023 0.0136,-0.2719 0.0238,-0.5426 0.0363,-0.816 -0.0172,-0.3492 -0.0363,-0.6985 -0.0563,-1.0488 -0.0066,-1.3786 0.0168,-2.8102 0.0282,-4.1973 0.0054,-0.3445 -0.0575,-0.6332 -0.0582,-0.9895 -0.0032,-0.3699 -0.0051,-0.7386 -0.0051,-1.1066 0.0078,-0.168 0.0148,-0.3328 0.0215,-0.4965 -0.0262,-1.2547 -0.0688,-2.459 -0.0758,-3.7305 -0.0035,-0.5765 -0.0656,-1.0789 -0.068,-1.6324 0,-0.2418 8e-4,-0.4847 0.0024,-0.7265 0.0113,-0.0969 0.0261,-0.1942 0.039,-0.2911 -0.0156,-0.0984 -0.0316,-0.1961 -0.0449,-0.2914 -0.0152,-0.28 -0.0316,-0.5769 -0.0336,-0.8453 -0.0015,-0.3422 0.0059,-0.7199 0.0207,-1.0789 0.0067,-0.1621 0.052,-0.2969 0.0512,-0.4676 -0.0016,-0.1726 -0.0535,-0.3011 -0.0543,-0.4652 -0.002,-0.1992 0.0516,-0.3465 0.0512,-0.5543 -0.0098,-1.5066 0.0074,-2.9574 0.6906,-4.1039 0.4715,-0.7832 1.3367,-1.277 2.1242,-1.6156 0.5461,-0.2364 1.1055,-0.5067 1.6992,-0.6469 0.4395,-0.1016 0.8727,-0.157 1.3332,-0.2371 0.35,-0.0606 0.7141,-0.1504 1.0813,-0.1895 0.3488,-0.0273 0.6976,-0.0546 1.0469,-0.08 0.75,-0.0926 1.4832,-0.2243 2.2457,-0.3168 0.357,-0.0176 0.7168,-0.0371 1.0753,-0.0528 0.1555,-0.0332 0.3106,-0.0675 0.4668,-0.1015 0.2813,-0.0059 0.5653,-0.0078 0.8446,-0.0157 0.3008,-0.0273 0.6019,-0.0546 0.9035,-0.0859 0.1551,-0.0066 0.3086,-0.0125 0.4652,-0.0156 0.136,-0.036 0.2723,-0.0672 0.4094,-0.0985 0.3863,-0.0586 0.7465,-0.1003 1.1332,-0.1757 0.1191,-0.0387 0.2383,-0.0782 0.3582,-0.1207 0.2633,-0.0762 0.5039,-0.1399 0.7563,-0.2383 0.3656,-0.1336 0.7339,-0.2664 1.1007,-0.3973 0.2676,-0.1355 0.5317,-0.2672 0.8012,-0.4027 0.141,-0.0957 0.2859,-0.1914 0.4262,-0.2867 0.2933,-0.1692 0.5824,-0.3133 0.8496,-0.5329 0.3293,-0.2675 0.5547,-0.5933 0.8437,-0.9035 0.0934,-0.1047 0.1426,-0.2422 0.2688,-0.3125 0,-0.0484 0.0164,-0.0312 0.0598,-0.0312 0,0.0508 0.1468,0.1437 0.1859,0.1914 0.0621,0.0945 0.1211,0.1883 0.1816,0.2828 0.6371,0.9309 1.5844,1.5973 2.5453,2.1105 0.1485,0.05 0.2946,0.1055 0.4446,0.1563" /><path
       inkscape:connector-curvature="0"
       id="path3378"
       style="fill:#ffffff;fill-opacity:1;fill-rule:nonzero;stroke:none"
       d="m 45.6246,60.5297 c 0,-0.0082 0,-0.0188 0,-0.0277 -0.0293,0 -0.0598,0 -0.0883,0 -8e-4,0.0953 -0.0031,0.1921 -0.0054,0.2875 0.0418,0.2914 0.2816,0.4242 0.4464,0.6418 0.3094,-0.27 -0.1679,-0.7028 -0.3527,-0.9016" /><path
       inkscape:connector-curvature="0"
       id="path3380"
       style="fill:#ffffff;fill-opacity:1;fill-rule:nonzero;stroke:none"
       d="m 47.1367,62.959 c 0.1231,0.1312 0.191,0.2914 0.2981,0.4355 0.0914,0.0907 0.184,0.1801 0.2777,0.2735 0.209,-0.0231 0.4051,-0.0535 0.6387,-0.0645 0,-0.0289 0,-0.0574 0,-0.0875 -0.3094,0.0035 -1.1383,-1.0258 -1.3305,-1.2855 -0.0898,-0.1227 -0.1977,-0.3641 -0.3375,-0.4395 -0.0859,-0.0422 -0.1859,-0.0066 -0.2551,0.0363 -0.1988,0.1231 -0.0508,0.3407 0.0067,0.4836 0.0367,0.0895 0.0453,0.1965 0.1226,0.2633 0.0809,0.0395 0.1571,0.0785 0.2379,0.1199 0.1149,0.0864 0.227,0.1754 0.3414,0.2649" /><path
       inkscape:connector-curvature="0"
       id="path3382"
       style="fill:#ffffff;fill-opacity:1;fill-rule:nonzero;stroke:none"
       d="m 45.1582,62.2566 c 0.0488,0.1497 0.0477,0.3133 0.1219,0.4504 0.091,0.1785 0.3172,0.2235 0.4547,0.3512 0.1242,0.1137 0.1511,0.2703 0.2492,0.3957 0.1031,0.1336 0.2453,0.1578 0.3863,0.2199 0.1152,0 0.2328,-8e-4 0.3488,-8e-4 0,-0.1453 -0.1902,-0.2937 -0.2609,-0.4097 -0.0957,-0.1582 -0.191,-0.325 -0.2894,-0.4793 -0.1118,-0.1524 -0.2266,-0.3063 -0.3415,-0.4594 -0.0769,-0.1195 -0.1039,-0.2558 -0.2,-0.3641 -0.0703,-0.055 -0.1406,-0.1117 -0.2132,-0.1656 -0.0633,-0.0726 -0.1278,-0.1426 -0.1914,-0.2121 -0.0653,-0.0617 -0.1301,-0.123 -0.1954,-0.184 -0.1191,-0.1437 -0.1191,-0.3547 -0.2781,-0.4804 -0.139,-0.1079 -0.3914,-0.1813 -0.5812,-0.1172 -0.0184,0 -0.0399,0 -0.0586,0 8e-4,0.0875 0.3832,0.6808 0.4703,0.7562 0.0797,0.0696 0.1973,0.0739 0.2609,0.166 0.0578,0.0864 0.0489,0.1879 0.0989,0.2766 0.0589,0.1043 0.1765,0.1379 0.2187,0.2566" /><path
       inkscape:connector-curvature="0"
       id="path3384"
       style="fill:#ffffff;fill-opacity:1;fill-rule:nonzero;stroke:none"
       d="m 42.9488,62.6676 c 0.0356,0.1441 0.1731,0.2394 0.2149,0.3832 0.0504,0.1691 -0.0114,0.3125 0.109,0.4496 0.1234,0.1414 0.8726,0.0273 1.1164,0.1562 0.1562,-7e-4 0.3086,-7e-4 0.464,-0.0035 0,-0.0191 0,-0.0386 0,-0.059 -0.0449,0 -0.0449,-0.0226 -0.0648,-0.0515 -0.2274,-0.3211 -0.3445,-0.6934 -0.5039,-1.0465 -0.0735,-0.1277 -0.1489,-0.2555 -0.2199,-0.3859 -0.0586,-0.1391 -0.118,-0.2809 -0.1758,-0.42 -0.1508,-0.2808 -0.5278,-0.7625 -0.8567,-0.8246 0,0.0094 0,0.0196 0,0.0289 -0.0507,8e-4 -0.034,0.2668 -0.041,0.3192 -0.0234,0.1285 -0.0734,0.2371 -0.0566,0.382 0.0136,0.1566 0.0976,0.2613 0.0945,0.4352 -0.0066,0.214 -0.1316,0.4214 -0.0801,0.6367" /><path
       inkscape:connector-curvature="0"
       id="path3386"
       style="fill:#ffffff;fill-opacity:1;fill-rule:nonzero;stroke:none"
       d="m 40.6332,63.6441 c 0.1074,0.1153 0.5289,0.0391 0.6957,0.0875 0.184,-0.0621 0.6512,-0.0554 0.8738,-0.0636 0.0043,-0.1278 0.0102,-0.2532 0.0157,-0.3821 0.0222,-0.0957 0.0449,-0.1921 0.0652,-0.2886 -0.018,-0.1067 -0.0359,-0.2133 -0.0531,-0.3192 -0.011,-0.464 -0.07,-0.9211 -0.0938,-1.3703 0.0156,-0.282 0.0313,-0.564 0.0469,-0.8449 -0.0078,0 -0.0195,0 -0.0281,0 0,0.009 0,0.0184 0,0.0289 -0.3711,0.0023 -0.7969,1.1352 -0.9457,1.3941 -0.084,0.145 -0.2114,0.2371 -0.3106,0.3743 -0.209,0.2921 -0.5863,1.0445 -0.266,1.3839" /><path
       inkscape:connector-curvature="0"
       id="path3388"
       style="fill:#ffffff;fill-opacity:1;fill-rule:nonzero;stroke:none"
       d="m 38.2742,63.4215 c 0.0012,0.0074 0.0031,0.0129 0.0055,0.0195 0.0605,0.1778 0.5199,0.1813 0.6855,0.2758 0.1723,-0.0016 0.395,0.0285 0.536,-0.0395 0.4144,-0.2035 0.5535,-0.8078 0.7199,-1.1894 0.1066,-0.2465 0.2519,-0.4859 0.3703,-0.7324 0.0793,-0.1313 0.1551,-0.261 0.232,-0.391 0.0532,-0.1313 0.0719,-0.2754 0.0766,-0.4286 0.002,-0.1082 0.0207,-0.3132 -0.0809,-0.3664 -0.0824,-0.0449 -0.2074,-0.0238 -0.2875,0.0094 -0.1515,0.0574 -2.2472,2.6598 -2.2586,2.7957 0,0.0078 0,0.0149 0,0.0238 0,0.0071 0.0012,0.0164 0.0012,0.0231" /><path
       inkscape:connector-curvature="0"
       id="path3390"
       style="fill:#ffffff;fill-opacity:1;fill-rule:nonzero;stroke:none"
       d="m 37.132,63.6969 c 0.2168,-0.036 0.3457,-0.0985 0.5039,-0.2559 0.2313,-0.2226 0.4282,-0.489 0.6141,-0.75 0.0945,-0.1328 0.1488,-0.2812 0.2621,-0.4113 0.1449,-0.1551 0.2914,-0.3109 0.4359,-0.4641 0.1297,-0.1644 0.2579,-0.3258 0.3868,-0.4902 0.0468,-0.0703 0.091,-0.1395 0.1386,-0.2098 0.0922,-0.082 0.1875,-0.1636 0.2801,-0.2441 0.1957,-0.1875 0.3738,-0.4215 0.4746,-0.6602 -0.0461,0 -0.0445,-0.05 -0.0558,-0.0859 -0.1594,0 -0.3543,0.0574 -0.468,0.1473 -0.1871,0.1902 -0.3742,0.3824 -0.5629,0.5738 -0.1199,0.1191 -0.2605,0.1676 -0.3641,0.3047 -0.2003,0.2683 -0.3515,0.5883 -0.598,0.8293 -0.1414,0.139 -0.3449,0.1652 -0.4883,0.3015 -0.0039,0.0043 -0.009,0.0102 -0.0129,0.0137 -0.1515,0.1578 -0.2062,0.3707 -0.3351,0.541 -0.1469,0.1938 -0.3614,0.3258 -0.5004,0.5172 -0.0051,0.0125 -0.0133,0.0262 -0.0196,0.0379 -0.0023,0.0082 -0.0039,0.0152 -0.0062,0.0219 -0.0254,0.166 0.2074,0.2312 0.3152,0.2832" /><path
       inkscape:connector-curvature="0"
       id="path3392"
       style="fill:#ffffff;fill-opacity:1;fill-rule:nonzero;stroke:none"
       d="m 43.6551,57.6277 c 0.084,-0.0109 0.1668,-0.0203 0.2492,-0.0304 0.2508,-0.0914 0.4691,-0.4614 0.3754,-0.727 -0.052,-0.1426 -0.2113,-0.2683 -0.3328,-0.3617 -0.084,-0.0652 -0.2074,-0.1645 -0.3281,-0.1551 -0.1692,0.0172 -0.0981,0.3762 -0.0559,0.4731 0.0598,0.1332 0.2101,0.1695 0.2199,0.3347 0.0152,0.195 -0.1289,0.2825 -0.1277,0.4664" /><path
       inkscape:connector-curvature="0"
       id="path3394"
       style="fill:#ffffff;fill-opacity:1;fill-rule:nonzero;stroke:none"
       d="m 44.0645,58.8238 c -0.0981,-0.0593 -0.2133,-0.2183 -0.3422,-0.2031 -0.1789,0.0219 -0.2524,0.2539 -0.37,0.3625 -0.1285,0.1242 -0.3984,0.1852 -0.3613,0.4215 0.0125,0.0957 0.0981,0.1465 0.1793,0.1769 0,0.0082 0,0.02 0,0.0278 0.1965,-0.0367 0.3313,-0.1356 0.507,-0.2106 0.202,-0.084 0.4075,-0.1312 0.6176,-0.2109 0.0442,-0.016 0.0637,-0.0668 0.0469,-0.1149 -0.0418,-0.1246 -0.177,-0.1867 -0.2773,-0.2492" /><path
       inkscape:connector-curvature="0"
       id="path3396"
       style="fill:#ffffff;fill-opacity:1;fill-rule:nonzero;stroke:none"
       d="m 43.6848,55.2156 c -0.0391,-0.2129 -0.5239,-0.3015 -0.6907,-0.1976 -0.2476,0.1531 0.2258,0.4601 0.3282,0.541 0.1246,-0.0332 0.3941,-0.1738 0.3625,-0.3434" /><path
       inkscape:connector-curvature="0"
       id="path3398"
       style="fill:#ffffff;fill-opacity:1;fill-rule:nonzero;stroke:none"
       d="m 42.4152,55.4012 c -0.0816,-0.0176 -0.1257,0.0586 -0.1804,0.0941 -0.0668,0.043 -0.1453,0.0559 -0.2039,0.1211 -0.1496,0.1649 -0.1055,0.3395 -0.1141,0.5629 -0.007,0.1152 -0.0273,0.2582 0.0156,0.3641 0.0367,0.0945 0.1278,0.1371 0.202,0.1886 0.0953,-0.0043 0.1722,-0.0101 0.2449,-0.055 0.084,-0.0532 0.6723,-0.6219 0.684,-0.684 0.0387,-0.22 -0.4707,-0.5551 -0.6481,-0.5918" /><path
       inkscape:connector-curvature="0"
       id="path3400"
       style="fill:#ffffff;fill-opacity:1;fill-rule:nonzero;stroke:none"
       d="m 45.8395,57.2664 c -8e-4,-0.2109 -0.109,-0.4398 -0.295,-0.5242 -0.0011,-0.0445 -0.1023,0.0187 -0.1468,0.0312 7e-4,0.2118 0.2757,0.3653 0.4148,0.493 0.0074,0 0.0172,0 0.027,0" /><path
       inkscape:connector-curvature="0"
       id="path3402"
       style="fill:#ffffff;fill-opacity:1;fill-rule:nonzero;stroke:none"
       d="m 45.2914,57.6418 c -0.0723,-0.052 -0.1402,-0.1141 -0.2379,-0.1133 -0.1012,0.0028 -0.1437,0.0672 -0.1742,0.1512 -0.0242,0.0738 -0.0152,1.0156 0.0102,1.0976 0.0316,0.1008 0.1875,0.1872 0.2589,0.2692 0.2207,-0.068 0.2082,-0.2016 0.284,-0.3996 0.1375,-0.3649 0.234,-0.7266 -0.141,-1.0051" /><path
       inkscape:connector-curvature="0"
       id="path3404"
       style="fill:#ffffff;fill-opacity:1;fill-rule:nonzero;stroke:none"
       d="m 44.9297,55.9586 c 0.0269,0 0.0172,-0.0078 -0.0016,-0.0289 0,-0.1336 -0.3777,-0.3707 -0.4957,-0.2559 -0.1656,0.1602 0.0395,0.3285 0.1461,0.4332 0.1551,-0.0117 0.2688,-0.0199 0.3512,-0.1484" /><path
       inkscape:connector-curvature="0"
       id="path3406"
       style="fill:#ffffff;fill-opacity:1;fill-rule:nonzero;stroke:none"
       d="m 42.2633,59.034 c 0.1043,-0.0106 0.2047,-0.0231 0.3078,-0.0332 0.1816,-0.0602 0.7617,-0.5289 0.6996,-0.7594 -0.0539,-0.2047 -0.2477,-0.3242 -0.3957,-0.473 -0.1539,-0.1496 -0.3391,-0.327 -0.5602,-0.3532 -0.2183,-0.0269 -0.5304,0.9461 -0.4898,1.1192 0.0203,0.0769 0.3625,0.4265 0.4367,0.4699 0,0.0102 0,0.0191 0.0016,0.0297" /><path
       inkscape:connector-curvature="0"
       id="path3408"
       style="fill:#ffffff;fill-opacity:1;fill-rule:nonzero;stroke:none"
       d="m 41.5855,56.6703 c -0.1136,-0.0973 -0.2621,-0.2676 -0.4187,-0.2777 -0.1207,-0.0094 -0.1797,0.0769 -0.2578,0.1437 -0.1918,0.1672 -0.3305,0.509 -0.2652,0.7809 0.0449,0.0828 0.0859,0.1644 0.1308,0.2473 0.0797,0.2351 0.0465,0.2765 0.2297,0.457 0.2504,-0.1172 0.9711,-0.6492 0.8977,-0.9887 -0.0309,-0.1418 -0.2141,-0.2719 -0.3165,-0.3625" /><path
       inkscape:connector-curvature="0"
       id="path3410"
       style="fill:#ffffff;fill-opacity:1;fill-rule:nonzero;stroke:none"
       d="m 41.7168,55.073 c -0.0098,0 -0.018,0 -0.0289,0 0,-0.0507 -0.1066,-0.0195 -0.1434,-0.0101 -0.4402,0.093 -0.9152,0.2055 -0.5519,0.7437 0.0703,-0.0105 0.1312,-0.0117 0.1836,-0.0554 0.1023,-0.0774 0.1332,-0.1914 0.2078,-0.2856 0.1117,-0.1429 0.2805,-0.214 0.3328,-0.3926" /><path
       inkscape:connector-curvature="0"
       id="path3412"
       style="fill:#ffffff;fill-opacity:1;fill-rule:nonzero;stroke:none"
       d="m 39.6988,58.7852 c 0.0012,0 0.2114,0.2546 0.2914,0.291 0,0.0093 0,0.0195 0,0.0289 0.3664,-0.2379 0.6649,-0.6645 0.2856,-1.0516 -0.0758,-0.0754 -0.1977,-0.1793 -0.3008,-0.1953 -0.341,-0.0508 -0.1977,0.3672 -0.202,0.5469 -0.0027,0.1359 -0.0433,0.2605 -0.0742,0.3801" /><path
       inkscape:connector-curvature="0"
       id="path3414"
       style="fill:#ffffff;fill-opacity:1;fill-rule:nonzero;stroke:none"
       d="m 40.3715,59.3355 c 0,0.0286 0,0.0586 0,0.0864 0.0582,0.016 0.1172,0.0336 0.1762,0.0472 0.3652,0.0532 0.5988,0.1082 0.9027,0.2692 0.0945,-0.0266 0.2445,-0.0266 0.3031,-0.1203 0.1641,-0.2559 -0.6043,-0.7789 -0.8289,-0.7559 -0.2496,0.0289 -0.3797,0.3258 -0.5531,0.4734" /><path
       inkscape:connector-curvature="0"
       id="path3416"
       style="fill:#ffffff;fill-opacity:1;fill-rule:nonzero;stroke:none"
       d="m 39.9199,56.9184 c 0.0547,-0.0145 0.1094,-0.0332 0.1641,-0.0469 0.1398,-0.0844 0.6488,-0.5703 0.6637,-0.7207 0.0168,-0.1637 -0.4137,-0.4653 -0.5508,-0.4953 -0.1168,-0.0231 -0.1481,0.0945 -0.1832,0.1785 -0.1352,0.334 -0.2328,0.7 -0.0938,1.0844" /><path
       inkscape:connector-curvature="0"
       id="path3418"
       style="fill:#ffffff;fill-opacity:1;fill-rule:nonzero;stroke:none"
       d="m 39.3254,57.2262 c -0.2836,-0.0699 -0.2231,0.4789 -0.2149,0.6597 0.2079,-0.0711 0.6333,-0.5539 0.2149,-0.6597" /><path
       inkscape:connector-curvature="0"
       id="path3420"
       style="fill:#ffffff;fill-opacity:1;fill-rule:nonzero;stroke:none"
       d="m 42.9305,26.9141 c 0,0.082 0.6324,1.0031 0.7258,1.1144 0.048,0.0586 0.1191,0.1055 0.1839,0.1328 0,0.0078 0,0.0196 0,0.0313 0.1453,-0.0012 0.2922,-0.0039 0.4395,-0.0039 -0.0031,-0.1797 -0.6934,-1.1965 -0.8723,-1.2727 -0.1269,-0.0574 -0.3,-0.0293 -0.4496,-0.0332 0,0.0102 0,0.0195 0,0.0313 -0.009,0 -0.0195,0 -0.0273,0" /><path
       inkscape:connector-curvature="0"
       id="path3422"
       style="fill:#ffffff;fill-opacity:1;fill-rule:nonzero;stroke:none"
       d="m 38.4859,27 c -0.1613,-0.0684 -0.4078,-0.0242 -0.598,-0.0293 0.0023,0.2625 1.0699,1.0305 1.2883,1.2461 0.1457,0 0.2918,0 0.4383,0 C 39.6137,28.0012 38.6969,27.0906 38.4859,27" /><path
       inkscape:connector-curvature="0"
       id="path3424"
       style="fill:#ffffff;fill-opacity:1;fill-rule:nonzero;stroke:none"
       d="m 46.4379,21.248 c -0.1863,-0.0816 -0.441,0.0801 -0.5445,0.2161 -0.1121,0.1511 -0.1512,0.3277 -0.2102,0.5035 -0.093,0.2777 -0.1836,0.5668 -0.2926,0.841 -0.0715,0.1844 -0.2113,0.4312 -0.1851,0.6488 0.0172,0.1375 0.1465,0.191 0.241,0.2614 0.0844,-0.0204 0.1437,-0.0458 0.1937,-0.1211 0.0555,-0.0856 0.075,-0.1813 0.109,-0.2809 0.0922,-0.2711 0.1817,-0.5355 0.2594,-0.8168 0.0902,-0.3172 0.2266,-0.6418 0.3617,-0.9387 0.0215,-0.0508 0.1656,-0.2691 0.0676,-0.3133" /><path
       inkscape:connector-curvature="0"
       id="path3426"
       style="fill:#ffffff;fill-opacity:1;fill-rule:nonzero;stroke:none"
       d="m 45.4586,28.2277 c 0.1394,-0.1953 0.9723,-1.1175 0.9246,-1.2922 -0.0137,-0.0425 -0.0656,-0.0488 -0.1051,-0.0574 -0.2515,-0.0027 -0.5027,-0.0066 -0.7551,-0.009 -0.446,0.0024 -0.8933,0.0063 -1.3394,0.0079 0,0.0097 0,0.0175 0.0012,0.0293 -0.0114,0 -0.0223,0 -0.0309,0 0,0.0976 0.0785,0.1855 0.1188,0.2625 0.1402,0.2617 0.6878,1.0042 0.6515,1.2746 -0.0101,0.0894 -0.0769,0.1578 -0.1582,0.1851 -0.3519,0.1211 -0.7738,0.0176 -1.1558,0.0313 -0.2028,0.0105 -0.6661,0.1113 -0.8446,0.0312 -0.3824,0.002 -1.716,0.1903 -1.8722,-0.1465 -0.0391,-0.0808 0.0144,-0.1734 0.0476,-0.2429 0.1555,-0.3063 0.3953,-0.5891 0.602,-0.8692 0.1129,-0.1726 0.2254,-0.3445 0.3379,-0.5125 -0.0012,-0.0113 -0.0012,-0.0191 -0.0012,-0.0293 -0.0281,-0.0125 -0.059,-0.0191 -0.0875,-0.032 -0.8199,0.0059 -1.634,0.0391 -2.4473,0.0437 0,0.0196 0,0.0395 0,0.0586 0.0274,0 1.1926,1.4071 1.3203,1.5672 0,0.0379 -0.0086,0.0379 -0.0297,0.0594 -0.1441,0.0156 -0.2925,0.0383 -0.4367,0.0547 -0.2429,0.0117 -0.4847,0.0234 -0.7285,0.0371 -0.6965,0.0168 -1.4316,-0.0254 -2.0973,0.041 8e-4,0.082 0.9942,1.0402 1.1274,1.1777 0.8445,0.8868 1.7238,1.7399 2.6059,2.6071 0.3042,0.3133 0.6058,0.6226 0.9089,0.9308 0.0981,0.0946 0.1875,0.1981 0.311,0.2399 0,0.0176 0,0.0402 0.0015,0.0597 0.1957,-0.1003 0.3672,-0.2996 0.5278,-0.4636 0.2633,-0.2703 0.5269,-0.5434 0.7875,-0.8137 0.1675,-0.1543 0.3324,-0.3062 0.4996,-0.4625 0.7492,-0.7816 1.5472,-1.5191 2.3121,-2.2937 0.3144,-0.3172 0.7262,-0.6411 0.9719,-1.009 -0.0571,-0.0078 -0.1161,-0.0176 -0.1746,-0.0274 -0.2403,0 -0.4848,0.0047 -0.7286,0.0059 -0.0906,0.0019 -0.2058,0.0293 -0.2886,0 -0.3332,0.0019 -0.7262,0.0449 -0.9934,-0.0801 -0.0023,-0.1277 0.1488,-0.2652 0.2172,-0.3637" /><path
       inkscape:connector-curvature="0"
       id="path3428"
       style="fill:#ffffff;fill-opacity:1;fill-rule:nonzero;stroke:none"
       d="m 37.207,24.9219 c 0.118,0.2027 2.3649,0.0293 2.7383,0.0273 0.5801,-0.0039 1.0953,0.0781 1.6625,0.077 0.7578,-0.0047 1.5613,-0.0614 2.3317,-0.0645 0.3906,-0.0027 0.821,0.011 1.2246,0.0227 0.9183,0.0254 1.8718,-0.0176 2.7672,-0.0227 0.0011,0.009 0.0011,0.0196 0.0011,0.0285 0.0477,0 0.052,0.2575 0.052,0.3207 0.0027,0.5829 0.014,1.1914 0.0183,1.8063 0.002,0.4215 -0.0117,0.848 0.0625,1.2234 0.4762,-0.2496 0.4188,-0.8468 0.434,-1.3726 0.0071,-0.3231 0.0293,-0.6989 0.0188,-1.0469 -0.0188,-0.1887 -0.0364,-0.3707 -0.0535,-0.5555 -0.0157,-0.2777 0.0656,-0.591 -0.0391,-0.8437 0,-0.0196 0,-0.0391 0,-0.0586 -0.009,0 -0.0195,0 -0.0293,0 0,0.0535 -0.1805,0.0301 -0.2328,0.0301 -0.4613,0.0031 -0.8957,-0.0235 -1.3707,-0.0196 -0.2059,0 -0.4946,0.043 -0.6703,-0.0273 -0.1743,0 -0.4043,0.0363 -0.5543,-0.025 -0.5348,0.0019 -1.043,0.0058 -1.5739,0.0418 -0.2347,0.0164 -0.5574,0.1238 -0.7859,0.0301 -0.3906,0 -0.7754,0.0312 -1.1652,0.0207 -0.0864,-0.0051 -0.193,0.0222 -0.2633,-0.0118 -0.2195,0 -0.7098,0.0848 -0.8746,0.0028 -0.1293,0 -0.2738,0.0168 -0.3797,-0.0274 -0.3684,0.0051 -0.7387,0.0078 -1.1066,0.0118 -0.22,0.0128 -0.4665,0.0195 -0.6997,0.0324 -0.0777,0 -0.1562,-0.0031 -0.2343,-0.0031 -0.086,-0.0098 -0.1727,-0.0165 -0.2621,-0.0293 -0.4313,0.0039 -0.7762,-0.0993 -0.9844,0.2703 -0.0188,0.0343 -0.0578,0.1172 -0.0313,0.1621" /><path
       inkscape:connector-curvature="0"
       id="path3430"
       style="fill:#ffffff;fill-opacity:1;fill-rule:nonzero;stroke:none"
       d="m 48.3199,17.643 c -0.0863,-0.1211 -0.3484,-0.1543 -0.4894,-0.1715 0.0039,0.7265 -0.0371,1.5055 -0.0086,2.2476 0.0082,0.2122 -0.0297,0.4598 0.014,0.661 0.0141,0.0699 0.052,0.1023 0.0996,0.1512 0.1497,-0.0032 0.2899,0 0.4075,-0.0618 0.0433,0 0.0515,-0.3121 0.0418,-0.3765 -0.0227,-0.159 0.0129,-0.3192 0.0129,-0.4977 -0.0016,-0.2605 -0.0438,-0.4937 -0.0301,-0.7562 0.0172,-0.2692 0.0969,-0.9911 -0.0477,-1.1961" /><path
       inkscape:connector-curvature="0"
       id="path3432"
       style="fill:#ffffff;fill-opacity:1;fill-rule:nonzero;stroke:none"
       d="m 57.0766,18.5863 c -0.0973,0 -0.2161,-0.0144 -0.2914,-0.0593 -0.145,0.0019 -0.4391,-0.0743 -0.5547,-0.1415 -0.2653,0 -0.4922,-0.1093 -0.7328,-0.155 -0.1633,-0.0325 -0.3391,-0.0633 -0.4934,-0.091 -0.1152,-0.0157 -0.2504,-0.0118 -0.3504,-0.0661 -0.0664,-0.0078 -0.1348,-0.0175 -0.2035,-0.0273 -0.0676,-0.0078 -0.1363,-0.0195 -0.2051,-0.0273 -0.1738,0.0019 -0.3902,0.0273 -0.5234,-0.0555 -0.0688,-0.009 -0.136,-0.0199 -0.2059,-0.0266 -0.2824,0 -0.6254,0.043 -0.8445,-0.0859 -0.1055,0 -0.2309,0.0109 -0.3203,-0.0254 -0.1344,0 -0.2352,0.0305 -0.3489,0.0605 -0.0015,-0.0605 -0.3503,-0.1101 -0.4089,-0.1453 -0.1957,0.0028 -0.4442,0.0371 -0.6121,-0.0226 -0.0676,-0.0125 -0.136,-0.0196 -0.2032,-0.0301 -0.1957,0.0019 -0.4289,0.0223 -0.5851,-0.0555 -0.1293,0.0028 -0.275,-0.0051 -0.3789,-0.0558 -0.1899,0 -0.6731,-0.0489 -0.7868,0.0429 -0.1886,0.1493 -0.0839,2.0032 -0.0765,2.3504 -0.0055,0.1778 -0.0156,0.3516 -0.0211,0.527 -0.0074,0.1844 0.0547,0.8043 -0.2617,0.7008 -0.1797,0 -0.5633,0.0425 -0.6973,-0.0254 -0.1926,0.0019 -0.7031,-0.0371 -0.8152,0.0664 -0.1996,0.189 -0.3098,0.882 -0.4125,1.1597 -0.1582,0.4063 -0.4145,0.8149 -0.4692,1.2629 -0.0066,0.0457 -0.0191,0.1246 0.0125,0.1598 0.0832,0.0996 0.47,0.082 0.6184,0.082 0.3433,-0.0027 1.9055,-0.0078 2.0328,0.211 0.0793,0.1453 0.0477,0.6007 0.0344,0.7824 0.0105,0.2808 0.023,0.564 0.0344,0.8469 0.0152,0.4339 -0.084,0.9406 0.0464,1.3386 0.9934,-1.0715 2.1192,-2.0527 3.1418,-3.1203 0.0965,-0.1211 0.1899,-0.2379 0.2856,-0.3582 0.2551,-0.2555 0.5402,-0.4847 0.8035,-0.7426 0.7059,-0.6933 1.3605,-1.4449 2.0508,-2.1406 0.5289,-0.5348 1.082,-1.0594 1.6117,-1.5953 0.0992,-0.0977 0.2687,-0.2105 0.3152,-0.3441 0.0391,-0.1016 -0.132,-0.1543 -0.1847,-0.1946" /><path
       inkscape:connector-curvature="0"
       id="path3434"
       style="fill:#ffffff;fill-opacity:1;fill-rule:nonzero;stroke:none"
       d="m 55.152,46.266 c 0.1597,0.1891 0.3203,0.3785 0.4828,0.5684 0.1882,0.1972 0.4062,0.3504 0.5988,0.5332 0.2555,0.2613 0.5082,0.523 0.7637,0.7832 0.2879,0.2738 0.5761,0.5504 0.8632,0.8277 0.5637,0.584 1.1243,1.1664 1.6875,1.7516 0.8645,0.8262 1.7454,1.6414 2.5411,2.5293 0.2035,0.2304 0.5066,0.4203 0.6652,0.6758 0.1422,-0.1965 0.0402,-0.7161 0.0562,-0.9899 0.0372,-0.6437 0.0063,-1.3426 0.0133,-2.0117 0.0157,-0.3398 0.0297,-0.6793 0.0453,-1.018 -0.0199,-0.3511 -0.0347,-0.7008 -0.055,-1.0496 0.0156,-0.2043 0.0297,-0.4105 0.0472,-0.6129 -0.0054,-0.0988 -0.0121,-0.1929 -0.0152,-0.2914 0.0113,-0.1176 0.023,-0.2336 0.0328,-0.3519 -0.0113,-0.0969 -0.0254,-0.1914 -0.0406,-0.2895 -0.0449,-0.5375 -0.0496,-1.0777 -0.041,-1.634 0.0254,-0.2793 0.0504,-0.5629 0.0757,-0.8449 -0.0156,-0.1555 -0.0335,-0.3082 -0.0527,-0.4648 -0.0019,-0.3493 -0.0062,-0.7 -0.0098,-1.0504 -0.0078,-0.1176 -0.0132,-0.2313 -0.0195,-0.3489 0.0063,-0.2242 0.061,-0.4546 0.0567,-0.6703 -0.0082,-0.3082 -0.0825,-0.634 -0.0786,-0.9621 0.0282,-0.3988 0.0536,-0.7969 0.0801,-1.1953 -0.0172,-0.2437 -0.0363,-0.4848 -0.0558,-0.7277 0.0132,-0.0899 0.0207,-0.1766 0.0332,-0.2664 0.0054,-0.2606 -0.02,-0.527 -0.0293,-0.7813 0.0117,-0.1855 0.0265,-0.3719 0.0386,-0.5574 0,-0.1422 -0.0371,-0.275 -0.0472,-0.4066 -0.0196,-0.2793 -0.0016,-0.5602 0.0316,-0.8188 0.0512,-0.4027 0.0356,-0.9301 -0.0062,-1.3379 -0.0129,-0.0965 -0.0293,-0.1941 -0.045,-0.2926 -0.0132,-0.2449 0.0493,-0.4617 0.045,-0.6996 -0.0168,-0.1367 -0.0352,-0.2691 -0.0524,-0.4066 0.0063,-0.1445 0.0133,-0.2899 0.0196,-0.4363 -0.0079,-0.1954 -0.0196,-0.3891 -0.029,-0.5844 -0.0023,-0.1836 0.1129,-1.2317 -0.0613,-1.2317 -0.1137,0.0012 -1.0426,1.0168 -1.1988,1.1719 -1.1606,1.1758 -2.3391,2.3703 -3.4918,3.5379 -0.1844,0.1856 -0.3402,0.4043 -0.5203,0.5797 -0.1641,0.157 -0.3285,0.3172 -0.4949,0.4734 -0.0817,0.0985 -0.1692,0.2 -0.2524,0.2977 -1.1172,1.0984 -2.248,2.2129 -3.3664,3.3086 -0.2,0.1961 -1.6531,1.6512 -1.6578,1.748 0.0062,0.0266 0.0098,0.0532 0.0125,0.0793 0.1129,0.2754 0.5695,0.5817 0.7969,0.7981 0.2472,0.2371 0.4293,0.5008 0.6621,0.7359 0.2082,0.2152 0.4371,0.4223 0.648,0.634 0.0785,0.066 0.1574,0.1328 0.2371,0.2008 0.1821,0.1863 0.3625,0.375 0.5446,0.5621 0.1812,0.1793 0.3601,0.3562 0.5422,0.5363" /><path
       inkscape:connector-curvature="0"
       id="path3436"
       style="fill:#ffffff;fill-opacity:1;fill-rule:nonzero;stroke:none"
       d="m 48.4508,62.5031 c 0.0949,0.0703 0.1972,0.0918 0.2824,0.1844 0.0594,0.0898 0.118,0.1781 0.177,0.2668 0.1566,0.2293 0.3191,0.4227 0.5101,0.623 0.068,0.0618 0.1379,0.1254 0.2067,0.1875 0.1261,0.068 0.3457,0.036 0.5027,0.0344 0.3332,-0.0019 0.6621,0.0141 0.9621,0.0453 0.1484,0.016 0.2836,0.0071 0.409,0.0629 0.2238,-0.0043 0.4453,-0.0078 0.6691,-0.0125 0.2516,-0.0289 0.5188,-0.0898 0.7871,-0.0906 0.2375,-0.0027 0.4418,0.0859 0.6707,0.0805 0.0778,-0.0153 0.1563,-0.0254 0.2344,-0.0391 0.2789,-0.0324 0.6317,-0.0324 0.8742,0.0422 0,-0.0078 0,-0.0184 0,-0.0274 0.0098,0 0.0176,0 0.0301,0 0,-0.0394 0.0078,-0.03 -0.0301,-0.03 C 54.7316,63.8145 54.725,63.8008 54.7215,63.7832 54.4383,63.4078 54.0242,63.1211 53.6949,62.8035 53.0711,62.1934 52.4484,61.5793 51.827,60.9684 51.6863,60.8242 51.5219,60.7137 51.3832,60.5695 50.8223,59.9973 50.3172,59.377 49.743,58.8273 49.5355,58.6262 49.3262,58.4246 49.1215,58.2254 49.0039,58.1266 48.8902,58.0289 48.7766,57.9285 48.6465,57.775 48.518,57.6219 48.3902,57.4703 48.043,57.1027 47.675,56.7473 47.3031,56.3992 c -0.1746,-0.2039 -0.348,-0.4086 -0.5211,-0.6144 -0.3863,-0.3735 -0.7711,-0.745 -1.1547,-1.1192 -0.657,-0.6441 -1.3039,-1.3082 -1.9636,-1.9437 -0.2192,-0.2074 -0.4106,-0.4653 -0.6512,-0.6278 0,-0.0113 0,-0.0195 0,-0.0308 -0.0102,0 -0.0199,0 -0.0297,0 0,0.0094 0,0.0195 0,0.0308 -0.0094,0 -0.0191,0 -0.0308,0 0.0097,0.0864 0.0183,0.1743 0.0273,0.2614 0.0039,0.2015 -0.0344,0.4054 -0.0137,0.6129 0.0242,0.1066 0.0508,0.2125 0.0735,0.3211 0.0136,0.2003 -0.0578,0.3664 0.0363,0.5386 0.0586,0.1086 0.1934,0.152 0.2793,0.2348 0.1683,0.1676 0.2656,0.3801 0.4699,0.5148 0.2125,0.1418 0.4793,0.1832 0.709,0.2938 0.1453,0.075 0.2621,0.1988 0.4,0.2844 0.3109,0.2023 0.6699,0.3765 0.9031,0.6976 0.0625,0.1278 0.127,0.2535 0.1906,0.3809 0.0774,0.1109 0.1563,0.2226 0.2329,0.3332 0.0605,0.1519 0.0527,0.3234 0.0964,0.4847 0.0602,0.2188 0.17,0.418 0.1762,0.6762 -0.0277,0.2227 -0.0551,0.4453 -0.0824,0.6695 -0.0305,0.2879 -0.1918,0.5469 -0.3633,0.7645 -0.0734,0.0914 -0.1625,0.1813 -0.2074,0.2895 -0.0567,0 0,0.0746 0.0156,0.107 0.0481,0.0656 0.0938,0.1308 0.1395,0.1953 0.2004,0.302 0.4058,0.6281 0.7054,0.8488 0.1512,0.1129 0.1715,0.2742 0.2879,0.4125 0.1379,0.161 0.343,0.2473 0.486,0.4164 0.0734,0.0981 0.148,0.1981 0.2218,0.2938 0.0606,0.1129 0.0887,0.2305 0.1809,0.3269 0.0937,0.0989 0.1988,0.1453 0.2988,0.2282 0.0785,0.0738 0.1567,0.1484 0.2352,0.2222" /><path
       inkscape:connector-curvature="0"
       id="path3438"
       style="fill:#ffffff;fill-opacity:1;fill-rule:nonzero;stroke:none"
       d="m 31.5645,63.7855 c 0.2867,-0.0023 0.6445,-0.0437 0.9035,0.0262 0.2082,-0.0422 0.4437,-0.0297 0.6691,-0.034 0.1774,-0.0117 0.3504,-0.0218 0.5266,-0.0312 0.2426,0 0.4836,0 0.7258,0.0012 0.1089,-0.0207 0.2152,-0.0383 0.3207,-0.0579 0.2222,-7e-4 0.4843,0.1489 0.7015,0.075 0.2574,-0.0886 0.4797,-0.3773 0.6762,-0.5769 0.3141,-0.3098 0.6254,-0.618 0.9363,-0.9277 0.2067,-0.2235 0.4028,-0.4793 0.6129,-0.6993 0.2606,-0.2691 0.5465,-0.4625 0.8086,-0.7367 0.1566,-0.1625 0.2504,-0.3429 0.4027,-0.5019 0.0856,-0.0676 0.1746,-0.1371 0.2625,-0.2039 0.168,-0.1407 0.3231,-0.3278 0.4168,-0.5157 -0.0929,0 -0.2297,-0.2007 -0.2922,-0.264 -0.241,-0.2532 -0.4304,-0.5086 -0.5101,-0.8426 -0.0207,-0.1348 -0.0406,-0.2684 -0.0609,-0.4027 -0.0442,-0.2157 -0.1,-0.4266 -0.0747,-0.6696 0.0387,-0.1558 0.0754,-0.3105 0.1149,-0.466 0.0676,-0.1598 0.1328,-0.3199 0.2,-0.4805 0.0824,-0.1769 0.1215,-0.3632 0.2422,-0.5293 0.0906,-0.1199 0.2453,-0.1648 0.3586,-0.2496 0.1133,-0.082 0.1593,-0.2203 0.2734,-0.3054 0.109,-0.0528 0.2168,-0.1024 0.3246,-0.152 0.1516,-0.1012 0.3,-0.2012 0.4496,-0.3004 0.1992,-0.1265 0.4426,-0.2133 0.6176,-0.3801 0.1152,-0.1574 0.2285,-0.314 0.343,-0.4722 0.1039,-0.1278 0.273,-0.2176 0.3484,-0.3684 0.0496,-0.1031 0.0887,-0.2453 0.0945,-0.3679 0.0059,-0.1145 -0.0238,-0.2422 0.0032,-0.3516 0.0609,-0.2578 0.1648,-0.6254 0.1195,-0.9016 -0.2348,0.0012 -0.7227,0.591 -0.8988,0.7637 -0.3614,0.3387 -0.7254,0.6758 -1.0848,1.0141 -0.2641,0.2797 -0.5262,0.5605 -0.7898,0.8418 -0.5204,0.5421 -1.0825,1.0476 -1.5954,1.582 -0.2738,0.2867 -0.555,0.5687 -0.8324,0.8578 -0.1136,0.1344 -0.2336,0.2707 -0.3496,0.4051 -0.9531,0.9328 -1.8969,1.8586 -2.8433,2.7851 -0.2508,0.2735 -0.5032,0.5461 -0.7563,0.818 -0.5434,0.5504 -1.0465,1.0945 -1.6148,1.6188 -0.2789,0.2601 -0.8743,0.6148 -0.9746,0.9796 0.4027,-0.0023 0.8117,0.0231 1.225,0.0207" /><path
       inkscape:connector-curvature="0"
       id="path3440"
       style="fill:#ffffff;fill-opacity:1;fill-rule:nonzero;stroke:none"
       d="m 25.4172,35.0652 c -0.4266,-0.398 -0.7727,-0.8593 -1.1887,-1.2578 -0.6148,-0.6019 -1.2297,-1.2008 -1.8418,-1.8027 -0.2039,-0.209 -0.4984,-0.4266 -0.6508,-0.6606 -0.0082,0 -0.0179,0 -0.0296,0 -8e-4,-0.0578 -0.0668,0.1051 -0.0739,0.1493 -0.0019,0.2105 -0.0062,0.4261 -0.0086,0.639 0.0117,0.641 0.0254,1.2832 0.0407,1.9223 0.0027,0.5316 0.0097,1.0391 0.0043,1.5433 -0.0055,0.1766 -0.0141,0.3524 -0.0211,0.5258 0.0109,0.4793 0.039,1.009 0.0336,1.5157 -0.0067,0.2144 -0.0141,0.4269 -0.0223,0.6418 0.0058,0.3093 0.0308,0.6332 0.0316,0.9613 -0.0078,0.1961 -0.0136,0.3883 -0.0234,0.5832 0.0039,0.5543 0.0043,1.1066 0.0074,1.6609 -0.0062,0.1656 -0.0141,0.3309 -0.023,0.4946 0.0195,0.2046 0.039,0.4113 0.0566,0.6128 0.0152,0.4606 -0.0312,0.8946 -0.0141,1.3414 0.0164,0.3387 0.0344,0.6793 0.05,1.0188 -0.0082,0.7312 -0.0418,1.4559 -0.023,2.1863 0.0223,0.3489 0.0426,0.7004 0.066,1.0492 -0.0121,0.1852 -0.0262,0.3696 -0.0418,0.5543 -0.0062,0.7422 0.0195,1.5 0.0117,2.2137 -0.0082,0.1567 -0.0156,0.3121 -0.0234,0.4676 0.0117,0.1832 0.0234,0.3687 0.0359,0.5527 0.0028,0.2164 -0.0406,0.4215 -0.0261,0.6434 0.0152,0.1258 0.032,0.2504 0.0468,0.3765 -0.005,0.3469 -0.0168,0.7028 -0.0148,1.0504 0.298,-0.1097 0.5363,-0.439 0.7644,-0.6621 0.5055,-0.4898 1.0071,-0.98 1.5086,-1.4683 0.1739,-0.1864 0.3469,-0.3707 0.52,-0.5547 0.3789,-0.3582 0.7574,-0.7231 1.0988,-1.1156 0.1152,-0.1336 0.223,-0.2707 0.3582,-0.3997 0.2476,-0.2351 0.5141,-0.4511 0.7551,-0.705 0.105,-0.1102 0.157,-0.2313 0.2707,-0.3379 0.582,-0.5528 1.1972,-1.0699 1.7851,-1.6285 0.5602,-0.577 1.1192,-1.1547 1.6762,-1.7332 0.3547,-0.336 2.5926,-2.4364 2.4598,-2.7598 C 32.9316,42.6227 32.8926,42.5617 32.8488,42.5 32.5867,42.0504 31.9734,41.5449 31.5719,41.1813 31.4316,41.057 31.3457,40.8887 31.2117,40.752 c -0.3304,-0.3368 -0.6582,-0.6559 -0.989,-0.9895 -0.4575,-0.4539 -0.9231,-0.9055 -1.3844,-1.3574 -0.3031,-0.3082 -0.6055,-0.6176 -0.907,-0.927 -0.0778,-0.0894 -0.1536,-0.1773 -0.2305,-0.264 -0.7633,-0.7086 -1.5215,-1.4422 -2.2836,-2.1489" /><path
       inkscape:connector-curvature="0"
       id="path3442"
       style="fill:#ffffff;fill-opacity:1;fill-rule:nonzero;stroke:none"
       d="m 37.7969,21.1703 c -0.252,0 -1.0914,0.0574 -1.2399,-0.043 -0.057,-0.039 -0.0629,-0.114 -0.0668,-0.1816 -0.0058,-0.7785 -0.0125,-1.557 -0.0183,-2.3328 0.0043,-0.3367 0.0437,-0.8274 -0.0266,-1.1613 -0.0168,-0.0828 -0.0633,-0.1551 -0.1273,-0.2067 0,-0.0105 0,-0.0195 0,-0.032 -0.2395,0.0039 -0.4512,0.1051 -0.6731,0.1414 -0.2121,0.0312 -0.4332,-0.0195 -0.6379,-0.0195 -0.155,0.0222 -0.3109,0.0429 -0.4675,0.0625 -0.3,0.0269 -0.6028,0.0554 -0.9036,0.0855 -0.1171,0.0117 -0.3023,0.0274 -0.4062,-0.0183 -0.6965,0.0046 -1.343,0.1433 -2.0113,0.2078 -0.3098,0.0332 -0.6106,0.0293 -0.8981,0.08 -0.2441,0.0418 -0.4887,0.0809 -0.7316,0.1207 -0.1051,0.0247 -0.2149,0.05 -0.3223,0.0723 -0.1531,0.009 -0.3066,0.0149 -0.4621,0.0246 -0.35,0.0625 -0.7016,0.1246 -1.0531,0.1883 -0.2688,0.0359 -0.6098,0.0398 -0.8407,0.157 -0.0093,0 -0.0191,0 -0.0308,0 0,0.0196 0,0.0391 0,0.0586 0.0445,0 0.0215,-0.0109 0.0422,0.0223 0.1566,0.2488 0.4566,0.5133 0.6797,0.7172 0.2043,0.2039 0.407,0.407 0.6101,0.6137 0.3117,0.3085 0.6488,0.5875 0.9664,0.9 0.1567,0.1531 0.3133,0.307 0.4696,0.4585 0.1289,0.143 0.2586,0.2887 0.3871,0.4313 0.8015,0.7676 1.6207,1.5152 2.405,2.316 0.4832,0.493 0.9301,1.0117 1.4258,1.4883 0.6895,0.6625 1.3699,1.3102 2.0246,2 0.1899,0.1953 0.3828,0.3922 0.5746,0.5902 0.1247,-0.1765 0.0489,-0.8488 0.0293,-1.0789 -0.032,-0.3699 -0.039,-0.7437 -0.0418,-1.1367 -0.0011,-0.248 -0.0324,-0.5066 0.0461,-0.7203 0.0719,-0.2078 0.2188,-0.3883 0.3442,-0.5719 0.0679,-0.1082 0.1043,-0.2457 0.2289,-0.316 0.1773,-0.0977 0.7394,-0.1219 0.973,-0.1121 0.4118,0.0156 0.8395,0.0449 1.2848,0.043 -0.002,-0.2829 -0.1824,-0.6313 -0.2785,-0.8821 -0.1754,-0.4429 -0.3512,-0.8832 -0.5164,-1.3308 -0.0641,-0.166 -0.1199,-0.3903 -0.2391,-0.5297 -0.0883,-0.0949 -0.2098,-0.0317 -0.3226,-0.0762 -0.0598,-0.0109 -0.1172,-0.0187 -0.1758,-0.0293" /><path
       inkscape:connector-curvature="0"
       id="path3444"
       style="fill:#ffffff;fill-opacity:1;fill-rule:nonzero;stroke:none"
       d="m 39.7801,15.9813 c -0.3028,0.0312 -0.5817,0.2468 -0.8531,0.3589 -0.2157,0.0911 -0.4633,0.1301 -0.6602,0.252 -0.009,0 -0.0203,0 -0.0285,0 0,0.0117 0,0.0183 0,0.0281 0.0097,0 0.0195,0 0.0293,0 0,0.0422 -0.0098,0.0293 0.0285,0.0293 0.4266,-8e-4 2.4406,-0.0769 2.6234,0.1024 0.0914,0.0898 0.0887,0.4609 0.0903,0.6109 0.0043,0.9406 -0.1055,2.2043 0.7593,2.6851 0.1254,0.0715 0.2582,0.086 0.3942,0.1375 0.2394,0 0.8297,-0.0886 0.8004,-0.4085 -0.0059,-0.0774 -0.0957,-0.0774 -0.1645,-0.0868 -0.5707,-0.0675 -0.682,-0.3789 -0.9179,-0.8226 -0.1922,-0.3602 -0.1614,-0.9778 -0.1715,-1.4512 -0.011,-0.4625 -0.0336,-0.9016 -0.0364,-1.3687 -0.0097,0 -0.0195,0 -0.0285,0 0,-0.0528 -0.2851,0 -0.3508,-0.0274 -0.1586,0.002 -0.2961,-0.043 -0.4371,-0.0508 -0.3609,0.0039 -0.7195,0.0078 -1.0769,0.0118" /><path
       inkscape:connector-curvature="0"
       id="path3446"
       style="fill:#ffffff;fill-opacity:1;fill-rule:nonzero;stroke:none"
       d="m 43.0555,15.3832 c -0.0996,-0.1238 -0.2032,-0.2422 -0.3051,-0.368 -0.2535,-0.2574 -0.5156,-0.4957 -0.6805,-0.8058 -0.0082,0 -0.0172,0 -0.0269,0 -0.1789,0.2 -0.3602,0.3972 -0.5399,0.5961 -0.1758,0.1574 -0.5312,0.3609 -0.7371,0.4625 0,0.009 0,0.0168 0,0.0285 -0.0097,0 -0.0195,0 -0.0277,0 0,0.0078 0,0.0183 0,0.0269 0.0082,0 0.018,0 0.0277,0 0.0012,0.0508 0.0473,0.0344 0.0863,0.0403 0.1075,0.0234 0.2161,0.0468 0.3223,0.0664 0.3422,0.0117 0.6813,0.0234 1.0207,0.0312 0.0156,0.0586 0.0313,0.1168 0.0469,0.1754 0.0148,0.1465 0.0262,0.2918 0.0391,0.4383 -0.0137,0.1336 -0.0293,0.2703 -0.043,0.4059 0.0078,0.1375 0.0137,0.2722 0.0187,0.4089 -0.0027,0.2915 -0.0382,0.6079 -0.0148,0.9043 0.0351,0.1661 0.0703,0.3317 0.1058,0.4957 0.0372,0.202 0.0918,0.4481 0.2297,0.5973 0.1395,0.1559 0.3336,0.1402 0.5129,0.2145 0.0574,-0.0274 0.1235,-0.0586 0.1457,-0.1278 0.0614,-0.1929 0.0153,-0.4508 0.0129,-0.6613 0.0082,-0.5035 0.0125,-1.0082 0.0156,-1.5145 0.0196,-0.1191 0.0973,-0.2222 0.1465,-0.3277 0.0727,-0.164 0.1426,-0.3262 0.2145,-0.491 0.0281,0 0.0297,0.002 0.0195,-0.0223 -0.1285,-0.241 -0.3902,-0.4058 -0.5898,-0.5738" /><path
       inkscape:connector-curvature="0"
       id="path3448"
       style="fill:#ffffff;fill-opacity:1;fill-rule:nonzero;stroke:none"
       d="m 44.2016,16.1773 c -0.1371,0.1153 -0.2352,0.3786 -0.2504,0.5582 0.1453,-0.0019 0.3105,-0.0136 0.439,0.0254 0.336,-0.0011 0.6684,-0.0222 0.9891,-0.0343 0,-0.0184 0,-0.0387 0,-0.0582 -0.109,7e-4 -0.2426,-0.0848 -0.3316,-0.1258 -0.2676,-0.1211 -0.5383,-0.241 -0.8075,-0.3621 0,-0.0364 -0.0156,-0.0227 -0.0386,-0.0032" /><path
       inkscape:connector-curvature="0"
       id="path3450"
       style="fill:#ffffff;fill-opacity:1;fill-rule:nonzero;stroke:none"
       d="m 34.1168,40.1059 c 0.0051,0.2644 0.0566,0.5394 0.0586,0.8148 -0.0184,0.3023 -0.0352,0.6012 -0.0508,0.9047 -0.0066,0.4992 0.0531,0.9758 0.0629,1.4559 -0.016,0.2937 -0.0305,0.5851 -0.0445,0.8761 0.007,0.2227 0.0168,0.4469 0.0238,0.668 -0.0168,0.2246 -0.034,0.4504 -0.05,0.6723 0.002,0.364 0.1074,0.6804 0.116,1.048 -0.014,0.2039 -0.0297,0.409 -0.0476,0.6145 0.0082,0.1152 0.0136,0.232 0.0218,0.3488 0.0157,0.4336 0.068,0.8433 0.0703,1.2816 0.0016,0.2973 -0.0472,0.752 0.0313,1.0125 0.0769,0.2715 0.875,1.1766 1.1492,1.2824 0,0.0094 0,0.0196 0,0.029 0.0594,-0.2247 0.0258,-0.525 0.0016,-0.7567 -0.0281,-0.2805 -0.0473,-0.5742 -0.0375,-0.8738 0.0164,-0.1934 0.0324,-0.3879 0.0504,-0.584 0.0011,-0.3684 0.0039,-0.7391 0.005,-1.1062 -0.0125,-0.1672 -0.0265,-0.3313 -0.0386,-0.4965 0.0082,-0.1953 0.0148,-0.3891 0.0218,-0.5825 -0.0109,-0.5171 -0.039,-1.1054 -0.025,-1.6335 0.0153,-0.575 -0.0632,-1.1829 -0.0476,-1.7465 0.0176,-0.2133 0.034,-0.4285 0.0504,-0.6426 0.0027,-0.4375 0.0058,-0.8746 0.0086,-1.3121 -0.0141,-0.2047 -0.0317,-0.4067 -0.0473,-0.6125 -8e-4,-0.3399 -0.0039,-0.6793 -0.0051,-1.018 -0.0023,-0.4098 0.0535,-1.1348 -0.064,-1.4769 -0.0375,-0.1094 -0.1715,-0.1797 -0.234,-0.2743 -0.0938,-0.1289 -0.1899,-0.2597 -0.284,-0.3914 -0.0937,-0.0898 -0.1891,-0.1793 -0.282,-0.2691 -0.0965,-0.1836 -0.1946,-0.3707 -0.2891,-0.5555 -0.0113,0 -0.0187,0 -0.0285,0 0,-0.0086 0,-0.0191 0,-0.0281 -0.0098,0 -0.0219,0 -0.0309,0 0.0032,0.5492 -0.0808,1.1406 -0.0875,1.6898 -0.005,0.325 0.0512,0.6774 0.0684,0.9895 0.0125,0.2398 -0.0492,0.4449 -0.0461,0.6723" /><path
       inkscape:connector-curvature="0"
       id="path3452"
       style="fill:#ffffff;fill-opacity:1;fill-rule:nonzero;stroke:none"
       d="m 34.6668,36.4918 c 0.1426,0.3465 0.2594,0.4508 0.541,0.691 0.1527,0.1356 0.284,0.3031 0.4535,0.4117 0.7461,0.4848 1.9168,0.4801 2.8391,0.2887 0.1773,-0.0508 0.3535,-0.0996 0.5301,-0.1504 0.5871,-0.1121 1.1179,-0.1793 1.6164,-0.473 0.3265,-0.1914 0.5941,-0.4586 0.8945,-0.7035 0.0774,-0.0508 0.1574,-0.1016 0.2344,-0.1485 0.1379,-0.1051 0.2828,-0.3289 0.4746,-0.325 0.273,0.002 0.4457,0.3543 0.6488,0.4988 0.2254,0.1649 0.4492,0.3414 0.7016,0.4633 0.6863,0.3321 1.3719,0.6762 2.1301,0.8637 0.2742,0.0625 0.5457,0.1269 0.8191,0.191 0.1566,0.0285 0.3258,0.0109 0.4664,0.0676 0.2316,-0.0039 0.4625,-0.009 0.6961,-0.0137 0.3863,-0.0605 0.7898,-0.2508 1.091,-0.4789 0.134,-0.1492 0.2656,-0.2949 0.4,-0.4461 0.2137,-0.2305 0.4457,-0.4742 0.484,-0.7933 -0.0098,0 -0.0195,0 -0.0312,0 -0.0012,-0.0555 -0.2309,-0.0301 -0.2911,-0.0301 -0.6109,0.0047 -1.2222,0.0066 -1.8355,0.0105 -0.2231,0.0024 -0.5242,0.043 -0.6996,-0.0523 -0.2035,0.0015 -0.486,0.1246 -0.6707,0.0332 -0.0656,-0.0102 -0.1348,-0.0199 -0.2031,-0.0285 -0.2297,0 -0.5114,0.0363 -0.7016,-0.0539 -0.0996,0 -0.2117,-0.0192 -0.2899,-0.0582 -0.1972,7e-4 -0.6109,0.0504 -0.7593,-0.0246 -0.0871,-0.0086 -0.1742,-0.0176 -0.2621,-0.0262 -0.0864,-0.0129 -0.1743,-0.0196 -0.2621,-0.0274 -0.1391,0 -0.3227,-0.0195 -0.4075,-0.1152 -0.05,0 -0.0109,-0.1551 -0.009,-0.2066 0.0122,-0.5153 -0.3699,-0.9848 -0.9039,-0.9809 -0.4308,0.0031 -0.7675,0.3133 -0.8515,0.7055 -0.0278,0.1347 0.0074,0.325 -0.0785,0.4324 -0.0371,0.0449 -0.1075,0.075 -0.1704,0.0605 -0.2042,0.0094 -0.4062,0.0223 -0.6117,0.034 -0.0468,-0.0117 -0.0972,-0.0195 -0.1465,-0.0304 -0.4769,0.0019 -0.9023,0.0636 -1.3976,0.0644 -0.1258,0.002 -0.3074,0.0258 -0.4078,-0.0254 -0.3512,0.002 -0.6856,0.0332 -1.0489,0.0332 -0.1722,0.0031 -0.3902,0.0196 -0.5246,-0.0535 -0.5117,0.0027 -1.0355,0.0449 -1.5464,0.0383 -0.1805,0 -0.4317,0.0437 -0.5825,-0.0266 -0.1566,0.0012 -0.3105,0.0028 -0.4355,0.0614 0,0.121 0.0664,0.2238 0.1078,0.323" /><path
       inkscape:connector-curvature="0"
       id="path3454"
       style="fill:#ffffff;fill-opacity:1;fill-rule:nonzero;stroke:none"
       d="m 50.0207,44.243 c -0.0195,0 -0.0371,0 -0.0562,0 -0.0938,0.2312 -0.059,0.4539 -0.0575,0.7289 0.0028,0.3488 -0.0742,0.7 0.0942,0.9922 0.0922,-0.0196 0.1633,-0.0457 0.2027,-0.1321 0.0863,-0.198 0.0738,-1.5914 -0.1832,-1.589 z m -0.4449,3.5867 c 0,-0.0094 0,-0.0199 -4e-4,-0.0277 -0.227,0.0449 -0.2664,0.2218 -0.1422,0.4074 0.1199,-0.0578 0.2555,-0.3797 0.1426,-0.3797 z m -0.075,-4.2582 C 49.4883,43.543 49.3172,43.3 49.3176,43.4609 c -0.0395,0.0864 -0.0293,0.2192 -0.0297,0.3215 -0.0082,0.266 -0.0035,0.5672 -0.0098,0.8442 -0.0015,0.3672 -0.0043,0.739 -0.0062,1.1062 0.0019,0.2981 -0.0258,0.6102 0.0918,0.8461 0.0879,-0.0434 0.1554,-0.1172 0.1816,-0.2105 0.086,-0.3223 0.0176,-0.6899 0.0156,-1.0454 -0.0015,-0.4816 0.1219,-1.3289 -0.0601,-1.7515 z m 1.0351,4.4887 c -0.0031,0.2734 -0.0543,0.5519 -0.0757,0.816 -0.0075,0.1449 -0.0153,0.2914 -0.0235,0.4386 -0.0058,0.0551 0.016,0.318 -0.034,0.32 0,0.0082 0,0.0175 0,0.0277 -0.0304,0 -0.0597,0 -0.089,0 -0.0594,-0.5723 -0.0282,-1.2012 -0.0422,-1.8066 -0.0047,-0.2352 -0.1078,-0.4086 -0.1266,-0.6125 0.0016,-0.1161 0.0031,-0.2336 0.0074,-0.3489 -0.0113,-0.1058 -0.0199,-0.214 -0.0296,-0.3211 -0.1411,-0.0195 -0.2411,0.0172 -0.2719,0.1543 -0.0453,0.1953 0.0515,0.3606 0.0465,0.5457 -0.0157,0.1278 -0.0266,0.2543 -0.0422,0.3821 -0.0067,0.6898 0.0562,1.4211 0.0504,2.0968 -0.0137,0.1176 -0.0239,0.2336 -0.0364,0.3481 -0.0168,0.0594 -0.0324,0.1168 -0.0453,0.1769 -0.0312,0 -0.0593,0 -0.0906,0.0012 0,-0.0105 0,-0.0207 0,-0.0301 -0.0098,0 -0.0184,0 -0.0293,0 -0.0164,-0.4937 -0.0726,-0.9379 -0.098,-1.4265 -0.0196,-0.0871 -0.0368,-0.175 -0.0555,-0.2625 -0.0293,0 -0.0578,0 -0.0879,0 -0.1535,0.3836 -0.1059,0.8879 -0.1102,1.3414 -0.0031,0.2441 0.0231,0.4949 -0.0519,0.7 -0.0891,-0.1574 -0.0832,-0.3211 -0.0988,-0.5227 -0.0188,-0.2328 -0.0344,-0.5121 -0.0215,-0.7586 0.0137,-0.259 0.0621,-0.5468 0.0418,-0.8175 -0.1453,-1.6711 -0.0684,-3.309 -0.0781,-5.011 -0.0094,-0.3398 -0.018,-0.6793 -0.0239,-1.0191 -0.0234,-0.2887 -0.0703,-0.602 -0.073,-0.9063 -0.002,-0.4183 0.0273,-0.8664 0.0183,-1.3113 -0.0074,-0.4148 -0.0547,-0.8793 -0.0293,-1.3094 0.0039,-0.0586 0.0137,-0.207 0.0813,-0.207 0,-0.0078 0,-0.0176 0,-0.0274 0.0086,0 0.0183,0 0.0281,0 0,0.0098 0,0.0196 0,0.0274 0.0094,0 0.0219,0 0.0293,0 0.0785,0.2469 0.0531,0.5359 0.0641,0.8176 0.0168,0.4586 0.0746,0.9222 0.0617,1.3992 -0.0074,0.2969 -0.0695,0.6695 0.0324,0.9535 0.0168,0.0477 0.0531,0.0633 0.1082,0.0477 0.1133,-0.0313 0.1387,-0.202 0.1535,-0.3043 0.0578,-0.3551 -0.0082,-0.7055 -0.0277,-1.0793 -0.0027,-0.2918 -0.0043,-0.5825 -0.0074,-0.8743 -0.0012,-0.3191 -0.0219,-0.6593 0.0129,-0.9621 0.0172,-0.1687 -0.0192,-0.3308 0.0293,-0.4879 0.0281,-0.0906 0.0476,-0.3003 0.1804,-0.3003 0.0313,0.482 0.0496,1.0253 0.0524,1.5171 -0.0106,0.2325 -0.0242,0.4665 -0.0352,0.6997 0.0223,0.2312 0.0434,0.4656 0.0656,0.6976 0.0239,0.1563 0.0473,0.3121 0.0719,0.4676 0.0012,0.2164 -0.066,0.4254 -0.0922,0.6137 -0.0437,0.3129 -0.0355,0.6496 -0.0343,0.9902 0.0015,0.1785 0.0019,0.3605 0.0503,0.5195 0.0157,0.0528 0.0997,0.1 0.0997,0.1485 0.0097,0 0.0199,0 0.0281,0 0.1035,-0.0899 0.1668,-0.1821 0.189,-0.3235 0.0504,-0.3558 0.025,-0.7992 0.0012,-1.1621 -0.0097,-0.1289 -0.0515,-0.2371 -0.0492,-0.3797 0.0031,-0.3211 0.0859,-0.6597 0.0941,-0.9914 -0.0074,-0.1347 -0.0136,-0.2703 -0.0199,-0.4078 -0.0035,-0.5902 -0.007,-1.1199 -0.0094,-1.7203 -0.0027,-0.4273 0.0368,-0.884 0.0797,-1.2867 -0.009,-0.0762 -0.0195,-0.1524 -0.0304,-0.2305 0.039,0 0.0781,0 0.1171,0 0.1168,0.252 0.0825,0.5652 0.0942,0.8762 0.0113,0.3277 0.0605,0.7066 0.0211,1.0453 -0.0297,0.2242 -0.0621,0.4477 -0.0957,0.675 0.0051,0.2352 0.0785,0.4488 0.0859,0.6977 0.0082,0.366 -0.0547,0.6925 -0.0523,1.05 0.0215,0.3765 0.0441,0.7558 0.0644,1.1367 0,0.2902 0.0032,0.5812 4e-4,0.8726 -0.0129,0.1168 -0.0293,0.2328 -0.0449,0.3496 -0.0027,0.1856 0.0488,0.3356 0.0547,0.5243 -0.007,0.3027 -0.0156,0.6019 -0.0227,0.9046 4e-4,0.4622 0.0321,0.9204 0.0352,1.3993 0.0039,0.4929 0.0394,0.9558 0.0351,1.4293" /><path
       inkscape:connector-curvature="0"
       id="path3456"
       style="fill:#ffffff;fill-opacity:1;fill-rule:nonzero;stroke:none"
       d="m 47.4184,48.607 c -0.111,-0.0773 -0.2774,-0.1097 -0.4051,-0.1476 -0.3301,-0.0989 -0.6586,-0.2004 -0.9887,-0.302 -0.4519,-0.1402 -0.9156,-0.3105 -1.3387,-0.5191 -0.2968,-0.1727 -0.5937,-0.3453 -0.8945,-0.5195 -0.0484,-0.0239 -0.4586,-0.2395 -0.457,-0.1262 -0.0121,0 -0.0196,0 -0.0309,0 0.0395,0.3062 0.3934,0.5156 0.6336,0.6562 0.1156,0.0817 0.2332,0.1649 0.3481,0.2496 0.2961,0.1887 0.6148,0.3723 0.9289,0.518 0.332,0.1559 0.6847,0.2399 1.0339,0.3574 0.1204,0.0551 0.2391,0.1067 0.3559,0.159 0.1578,0.0551 0.3149,0.1117 0.4727,0.1645 0.1207,0 0.2617,0.0101 0.3699,-0.0254 0.2269,-0.0809 0.1156,-0.359 -0.0281,-0.4649 z m -0.0473,-7.1281 c -0.2371,-0.1426 -0.5531,-0.1406 -0.832,-0.2023 -0.2528,-0.0516 -0.5028,-0.1293 -0.761,-0.1879 -0.8668,-0.2 -1.5863,-0.5485 -2.3273,-0.9926 -0.0922,-0.0527 -0.336,-0.2859 -0.4278,-0.1148 -0.0671,0.1179 0.1129,0.241 0.1852,0.305 0.2902,0.2528 0.5867,0.4215 0.9004,0.618 0.348,0.2176 0.6949,0.4105 1.0777,0.559 0.1227,0.0672 0.2446,0.1316 0.368,0.1988 0.4766,0.1883 0.9691,0.3055 1.4543,0.4703 0.1355,0 0.2785,-0.0027 0.391,-0.0586 0.2348,-0.1238 0.1731,-0.473 -0.0285,-0.5949 z m -4.0688,2.3781 c 0.7004,0.652 1.6106,0.9731 2.4661,1.3207 0.2718,0.1118 0.5882,0.3086 0.9089,0.3075 0.1079,0.0843 0.3516,0.2027 0.4957,0.2011 0,0.0117 0,0.0188 0,0.0305 0.1688,-0.0289 0.2969,-0.1004 0.302,-0.293 0.0047,-0.1656 -0.0781,-0.3004 -0.2051,-0.3851 -0.2551,-0.1696 -0.5613,-0.1981 -0.8547,-0.2989 -0.3293,-0.1101 -0.6722,-0.2343 -1.005,-0.3359 -0.2274,-0.0687 -0.4551,-0.1176 -0.6711,-0.2051 -0.3934,-0.159 -0.7856,-0.3625 -1.1485,-0.5812 -0.1293,-0.0781 -0.2636,-0.2 -0.4269,-0.2059 -0.0395,-0.0015 -0.0828,0.002 -0.1094,0.0297 -0.1398,0.1406 0.1656,0.343 0.248,0.4156 z m 5.4063,1.0938 c -0.0152,0.1726 -0.0313,0.3476 -0.0492,0.5238 -0.0074,0.7317 0.0347,1.4824 0.0386,2.1844 -0.007,0.225 -0.0144,0.4476 -0.0222,0.6734 -0.007,0.5563 0.0031,1.0965 -0.0278,1.6317 -0.0308,0.1668 -0.0593,0.3316 -0.091,0.5 -0.0297,0.191 0.0086,0.4082 0.0211,0.6062 8e-4,0.0672 0.0192,0.2625 -0.0633,0.2641 -0.1402,0.0668 -0.3015,0.0355 -0.464,0.0433 -0.1899,0.0118 -0.3766,0.0489 -0.5836,0.05 -0.2192,-0.0769 -0.4899,-0.0519 -0.7242,-0.0968 -1.0793,-0.2012 -2.0879,-0.3579 -3.0215,-0.8539 -0.2289,-0.1227 -0.4754,-0.254 -0.6504,-0.4629 -0.1328,-0.1602 -0.1367,-0.3598 -0.168,-0.5703 -0.0761,-0.4965 -0.0742,-1.0274 -0.0922,-1.575 -0.0195,-0.2731 -0.0382,-0.545 -0.0582,-0.8176 -0.005,-0.3949 -0.0062,-0.7946 -0.0109,-1.193 -0.0184,-0.1555 -0.0344,-0.3109 -0.0527,-0.4648 -0.0368,-0.37 -0.027,-0.7786 -0.0403,-1.1391 -0.0191,-0.5574 0.0129,-1.1262 0.0246,-1.6613 0.0125,-0.5121 -0.0211,-1.0664 -0.0144,-1.602 0.0125,-0.1457 0.0254,-0.2898 0.0371,-0.4383 -0.0117,-0.0867 -0.0219,-0.1757 -0.034,-0.2613 -0.0012,-0.2469 0.0473,-0.4898 0.0453,-0.7582 -0.0039,-0.7172 -0.0222,-1.6402 0.2629,-2.2102 0.0152,-0.0281 0.1051,-0.157 0.1051,-0.0945 0.3219,0.1258 0.609,0.3758 0.9101,0.5395 0.2688,0.1465 0.5598,0.2343 0.829,0.3769 0.325,0.1735 0.4945,0.2965 0.9191,0.2914 0.1207,0.0782 0.4793,0.1457 0.6426,0.1426 0.0691,0.0109 0.1359,0.0188 0.2019,0.0274 0.0602,0.0105 0.1188,0.0175 0.175,0.03 0.3106,0.1524 1.0305,0.0117 1.343,-0.066 0.1531,-0.039 0.3098,-0.0793 0.4664,-0.1183 0.0738,0.45 4e-4,0.9613 -0.0098,1.3992 0.0157,0.2508 0.0321,0.5035 0.0489,0.7551 0.0027,0.3183 -0.0207,0.6382 -0.0153,0.9347 0.0157,0.1574 0.0336,0.3125 0.0492,0.4664 0.018,0.368 -0.0031,0.7203 0.0165,1.0785 0.0109,0.2082 0.0441,0.4305 0.0488,0.6411 0.0078,0.4027 0.0203,0.8082 0.0078,1.2238" /><path
       inkscape:connector-curvature="0"
       id="path3458"
       style="fill:#ffffff;fill-opacity:1;fill-rule:nonzero;stroke:none"
       d="m 41.7633,46.8242 c -0.0332,-0.0633 -0.1387,-0.0668 -0.2024,-0.0551 -0.173,0.0364 -0.3031,0.1957 -0.45,0.2821 -0.1687,0.0965 -0.339,0.191 -0.5089,0.2867 -0.9051,0.4582 -1.927,0.7238 -2.9149,0.998 -0.2851,0.0797 -0.6547,0.0614 -0.8996,0.2145 -0.2012,0.1266 -0.2051,0.3969 -0.0297,0.5469 0.4246,-0.0028 0.7672,-0.1383 1.1399,-0.25 0.1136,-0.0219 0.2269,-0.045 0.3378,-0.0676 0.2454,-0.0668 0.4805,-0.1684 0.7125,-0.2617 0.2075,-0.0711 0.4122,-0.145 0.6215,-0.2164 0.0981,-0.0543 0.1981,-0.1094 0.2957,-0.161 0.2852,-0.1328 0.5684,-0.2676 0.852,-0.4008 0.1762,-0.0828 1.1539,-0.6914 1.0461,-0.9156 z M 41.65,43.1832 c -0.0211,-0.0078 -0.0406,-0.016 -0.0605,-0.0215 -0.0122,-0.0012 -0.0211,-0.0058 -0.0317,-0.007 -0.2035,-0.0301 -1.0258,0.6437 -1.275,0.7598 -0.2918,0.1394 -0.5937,0.25 -0.8965,0.3675 -0.4058,0.1567 -0.8011,0.336 -1.2574,0.3969 -0.1738,0.0223 -0.3465,0.0441 -0.5226,0.0684 -0.2379,0.0129 -0.609,-0.0414 -0.7856,0.0988 -0.2168,0.175 -0.0758,0.6379 0.2098,0.6371 0,0.0078 0,0.0172 0,0.0273 1.2875,-0.091 2.4008,-0.6792 3.4461,-1.2675 0.282,-0.159 1.0109,-0.5985 1.1593,-0.8938 0.0168,-0.0332 0.0711,-0.1668 0.0141,-0.166 z m -0.6973,-3.1914 c -0.4984,0.2352 -1.0312,0.4234 -1.5664,0.5922 -0.1859,0.0574 -0.3797,0.0808 -0.5754,0.1211 -0.2832,0.0586 -0.5796,0.1402 -0.8781,0.1863 -0.3301,0.0516 -0.6683,0.0652 -0.9875,0.1348 -0.0355,0.0144 -0.0715,0.0293 -0.1078,0.0418 -0.2633,0.1453 -0.2672,0.6566 0.1121,0.6539 0,0.0086 0,0.0191 0,0.0301 0.2379,-0.0012 0.4117,-0.0614 0.6149,-0.1055 0.2113,-0.0457 0.4273,-0.0652 0.6343,-0.116 0.1766,-0.0664 0.3528,-0.1309 0.527,-0.1922 0.5207,-0.168 0.9941,-0.3406 1.4816,-0.5707 0.1149,-0.0422 0.2293,-0.086 0.3457,-0.125 0.2778,-0.1231 0.6793,-0.4196 0.8797,-0.6586 0.0766,-0.0852 0.1985,-0.1387 0.1985,-0.2684 -0.2434,-0.0312 -0.4817,0.1832 -0.6786,0.2762 z m 1.0582,8.8453 c -0.0406,0.4293 0.0164,0.8828 -0.2265,1.209 -0.4555,0.6156 -1.0774,0.8391 -1.7438,1.0902 -0.1789,0.0602 -0.3535,0.1231 -0.5324,0.184 -0.2016,0.0383 -0.4019,0.075 -0.6051,0.1133 -0.3093,0.0781 -0.6648,0.1422 -0.9957,0.1586 -0.4668,0.0047 -0.9312,0.0082 -1.3976,0.0125 -0.1387,-0.0621 -0.3668,-0.0414 -0.4571,-0.177 -0.0902,-0.1371 -0.0429,-0.6672 -0.0429,-0.8695 -0.0043,-0.7887 -0.0395,-1.5762 -0.0446,-2.3891 -0.0027,-0.4765 -0.0062,-0.9531 -0.0101,-1.4277 -0.0278,-0.3984 -0.0539,-0.7969 -0.0809,-1.1965 -0.0113,-0.2844 0.1039,-0.5433 0.0961,-0.8437 -0.0121,-0.5852 -0.0242,-1.2285 -0.0363,-1.8364 -0.0215,-0.2531 -0.0387,-0.507 -0.0602,-0.7566 -0.0086,-0.5191 0.0293,-1.0043 0.0184,-1.5164 -0.0184,-0.2535 -0.0391,-0.5055 -0.0586,-0.7563 -0.002,-0.2457 0.0738,-0.4476 0.0715,-0.671 -0.0012,-0.2625 -0.05,-0.5125 -0.052,-0.7864 0.1059,-0.0019 0.2129,-0.0039 0.3207,-0.0039 0.0797,0.0387 0.1918,0.0582 0.2903,0.0582 0.0824,0.0391 0.1945,0.0547 0.2922,0.0547 0.0695,0.0125 0.1371,0.0195 0.2035,0.0274 0.2773,0.123 1.032,-0.0332 1.3144,-0.0782 0.3586,-0.0621 0.6934,-0.0488 1.0434,-0.1226 0.4117,-0.086 1.0351,-0.3242 1.391,-0.534 0.1262,-0.0742 0.8434,-0.6293 0.9074,-0.6293 0,0.0078 0,0.0187 0,0.0273 0.1867,0.3082 0.168,0.6078 0.2211,0.9895 0.059,0.4305 0.068,0.8676 0.0863,1.3406 0.0227,0.6692 0.0625,1.3582 0.0664,2.041 -0.0058,0.291 -0.0113,0.5836 -0.0195,0.8735 0.0313,0.8394 0.0235,1.6547 0.041,2.4777 0.0266,1.2867 0.1129,2.6555 -4e-4,3.9371" /><path
       inkscape:connector-curvature="0"
       id="path3460"
       style="fill:#de1a34;fill-opacity:1;fill-rule:nonzero;stroke:none"
       d="m 40.1922,74.4695 c -0.443,-0.0531 -0.8859,-0.1074 -1.3289,-0.1597 -0.382,-0.0602 -0.7586,-0.1282 -1.1742,-0.1422 -0.9051,-0.1746 -1.8098,-0.3473 -2.7157,-0.5215 -1.273,-0.259 -2.4793,-0.7957 -3.6461,-1.2777 -2.1867,-0.9016 -4.2472,-1.9493 -6.2324,-3.2586 -0.4703,-0.3086 -3.7508,-2.6078 -3.75,-2.966 0.5336,-0.0415 1.0707,-0.0852 1.6055,-0.1266 1.2875,-0.0762 2.632,-0.0266 3.9117,-0.0266 0.7906,-0.039 1.5832,-0.0804 2.3738,-0.1183 0.3118,0.1449 0.8086,0.0687 1.1879,0.0699 1.0813,0.0012 2.1094,-0.068 3.1418,-0.0664 0.5317,0.223 1.3899,0.0269 1.9555,0.0066 1.7453,0 3.491,-0.0011 5.2371,-0.0011 1.9559,-0.0438 3.9106,-0.0887 5.8648,-0.1309 3.6094,0.0465 7.2184,0.0973 10.825,0.1457 0.2684,0.0969 0.6692,0.0023 0.9793,0.0023 0.6266,-0.0171 1.2567,-0.0355 1.8821,-0.0531 0.3254,0.0164 0.6519,0.0328 0.9781,0.0496 0.6148,-0.0168 1.2945,-0.0793 1.9547,-0.0597 0.1426,0.0066 0.5547,-0.0219 0.7019,-0.0219 0.4422,0 -0.3543,0.632 -0.4925,0.7863 -0.4551,0.5137 -0.9606,0.8672 -1.4993,1.2254 -0.3222,0.2543 -0.6425,0.5098 -0.966,0.7645 -0.6582,0.441 -1.3187,0.8781 -1.9777,1.3191 -4.125,2.4922 -8.1066,3.9625 -13.2332,4.4687 -0.7445,0.0137 -1.4871,0.029 -2.2313,0.045 -1.0824,0.0172 -2.2519,0.0484 -3.3519,0.0472" /><path
       inkscape:connector-curvature="0"
       id="path3462"
       style="fill:#de1a34;fill-opacity:1;fill-rule:nonzero;stroke:none"
       d="M 19.6074,64.5328 C 19.1586,64.0758 18.4945,63.4113 18.0453,62.9543 17.1145,61.7016 16.1852,60.4492 15.2551,59.1949 13.298,55.8965 12.1039,52.4637 11.2605,48.616 11.123,48.0023 11.1262,47.3922 11.0656,46.7402 c -0.3004,-3.1711 -0.3879,-6.7359 0.1192,-9.8621 0.1379,-0.5179 0.2765,-1.0351 0.414,-1.5472 0.1551,-0.8539 0.2825,-1.6422 0.5504,-2.4356 0.2684,-0.6586 0.5371,-1.3133 0.8047,-1.9699 0.3211,-0.9649 0.8106,-1.8324 1.2699,-2.7242 1.0875,-2.1192 2.3496,-4.1332 3.8832,-6.0496 0.2239,-0.2758 0.7844,-1.0536 1.1817,-1.0536 4e-4,0.0243 4e-4,0.045 4e-4,0.0704 0.3078,0.5851 0.0933,2.357 0.0711,3.0742 -0.0043,1.209 -0.0075,2.4179 -0.0098,3.6308 -0.0016,1.0801 -0.0434,2.2215 0.0098,3.3504 0.1101,2.4063 0.0156,4.8992 0.0515,7.3348 0.0301,2.0586 0.136,4.1785 0.1336,6.284 -0.0012,1.9781 -0.118,4.1496 0.0516,6.0668 -0.016,0.2133 -0.0321,0.4261 -0.0489,0.6418 -0.0031,0.6019 -0.0035,1.2074 -0.0058,1.8117 0.0336,0.8348 0.068,1.6699 0.1019,2.5066 -0.0554,1.7989 -0.0445,3.6274 -0.1027,5.4559 -0.0437,1.2836 0.1152,2.5191 0.066,3.2074" /><path
       inkscape:connector-curvature="0"
       id="path3464"
       style="fill:#de1a34;fill-opacity:1;fill-rule:nonzero;stroke:none"
       d="m 65.6656,64.3371 c -0.0984,-1.2305 0.1059,-3.141 0.0883,-4.4363 -0.0437,-2.791 -0.0543,-5.5645 -0.0527,-8.4535 0.0051,-4.7153 0.0058,-8.995 0.0097,-13.5493 0.0028,-2.5476 -0.1265,-5.0875 -7e-4,-7.6781 -0.0094,-1.0488 -0.0157,-2.0976 -0.0266,-3.1445 0.0027,-1.9262 0.2215,-3.9391 -0.1816,-5.7918 -0.0274,-0.1094 -0.2758,-0.9379 -0.079,-0.9379 0.6598,0 3.6879,4.3711 4.1118,5.0699 0.3054,0.5578 0.6105,1.1133 0.916,1.6703 0.1668,0.3786 0.3355,0.7563 0.5027,1.1387 0.5879,1.0422 1.2621,2.3106 1.6563,3.4578 0.825,2.425 1.3242,4.9156 1.6718,7.5871 0.1145,0.8754 0.0801,1.7235 0.0954,2.6485 0.021,0.4898 0.0421,0.9773 0.0636,1.466 -0.0437,2.6148 -0.35,5.3812 -1.0234,7.7058 -0.668,2.2985 -1.709,4.5332 -2.8535,6.604 -0.4,0.7238 -0.8965,1.3859 -1.343,2.091 -0.5973,0.9394 -3.1602,4.8472 -3.5551,4.5523" /><path
       inkscape:connector-curvature="0"
       id="path3466"
       style="fill:#de1a34;fill-opacity:1;fill-rule:nonzero;stroke:none"
       d="m 61.4656,17.0176 c -1.7902,-1.3453 -5.5105,-1.4871 -7.8789,-1.777 -0.6062,-0.0777 -1.2133,-0.1551 -1.8226,-0.2301 -2.9532,-0.1414 -6.843,-0.4167 -7.9051,-3.4503 -0.1098,-0.3278 -0.0988,-0.3957 -0.2098,-0.7231 -0.0484,-0.2887 1.3172,-0.0152 1.9453,-0.0133 0.1809,0.0907 0.475,0.0672 0.6993,0.0684 0.139,0.0254 0.2792,0.0476 0.4187,0.0699 0.3488,0.1945 0.8883,0.2109 1.3266,0.2129 0.2918,0.1473 0.6882,0.1395 1.048,0.1395 0.3836,0.2097 1.3207,0.3511 1.8137,0.3511 0.8347,0.286 1.6703,0.5739 2.5035,0.8625 2.366,0.9602 4.8801,1.9254 6.9027,3.5457 0.2993,0.2395 0.6762,0.3164 1.1586,0.9438" /><path
       inkscape:connector-curvature="0"
       id="path3468"
       style="fill:#de1a34;fill-opacity:1;fill-rule:nonzero;stroke:none"
       d="m 24.6699,16.4234 c 0.5246,-0.6312 1.2699,-0.7765 1.9227,-1.2214 0.3726,-0.2735 0.9176,-0.5594 1.2871,-0.8317 1.4305,-0.6848 2.5113,-1.2469 3.9726,-1.7308 1.6075,-0.5336 3.1801,-1.0418 4.9098,-1.3571 0.5844,-0.1074 4.5692,-0.8312 4.718,-0.4586 0.2394,0.6039 -1.0598,2.084 -1.5113,2.4657 -0.4211,0.357 -0.9325,0.5843 -1.395,0.8378 -0.4465,0.245 -0.9707,0.3868 -1.4629,0.5211 -0.65,0.1797 -1.2793,0.3864 -1.9718,0.5028 -0.6625,0.1121 -1.3176,0.1168 -2.0172,0.1832 -0.6086,0.0969 -1.2141,0.1961 -1.8239,0.2949 -0.7875,0.107 -1.5761,0.0973 -2.3632,0.1961 -1.445,0.1785 -2.7938,0.5101 -4.2649,0.598" /></g></svg>